<svg xmlns="http://www.w3.org/2000/svg" viewBox="0 0 500 500"><g id="freepik--background-simple--inject-141"><path d="M227.52,454.56c106.93,11.41,198-78.83,233.6-161.85,23.67-55.16,26.89-118.25.76-167.63-19.15-36.19-58.65-69.84-109.55-68-56.73,2.07-94.16,58.25-152.32,61.1s-123.17,30.33-150.12,74S27.58,311.79,64.66,368.46c21.14,32.31,54,59,93.63,73.84,21.8,8.16,44.21,9.38,67.92,12.12Z" style="fill:#2E3A3A"></path><path d="M227.52,454.56c106.93,11.41,198-78.83,233.6-161.85,23.67-55.16,26.89-118.25.76-167.63-19.15-36.19-58.65-69.84-109.55-68-56.73,2.07-94.16,58.25-152.32,61.1s-123.17,30.33-150.12,74S27.58,311.79,64.66,368.46c21.14,32.31,54,59,93.63,73.84,21.8,8.16,44.21,9.38,67.92,12.12Z" style="fill:#fff;opacity:0.8"></path></g><g id="freepik--Floor--inject-141"><path d="M390.4,387.5c0,.86-1.5,1.56-3.35,1.56s-3.34-.7-3.34-1.56,1.49-1.56,3.34-1.56S390.4,386.64,390.4,387.5Z" style="fill:none;stroke:#263238;stroke-miterlimit:10"></path><path d="M396.65,388.17c0,.49-.8.89-1.79.89s-1.78-.4-1.78-.89.8-.89,1.78-.89S396.65,387.68,396.65,388.17Z" style="fill:none;stroke:#263238;stroke-miterlimit:10"></path><path d="M319.44,417.4c0,.86-1.5,1.56-3.34,1.56s-3.35-.7-3.35-1.56,1.5-1.56,3.35-1.56S319.44,416.54,319.44,417.4Z" style="fill:none;stroke:#263238;stroke-miterlimit:10"></path><path d="M392.63,414.5c0,.49-.9.89-2,.89s-2-.4-2-.89.9-.89,2-.89S392.63,414,392.63,414.5Z" style="fill:none;stroke:#263238;stroke-miterlimit:10"></path><ellipse cx="243.13" cy="360.95" rx="3.12" ry="1.34" style="fill:none;stroke:#263238;stroke-miterlimit:10"></ellipse><path d="M275.26,361.62c0,.12-.6.22-1.34.22s-1.34-.1-1.34-.22.6-.23,1.34-.23S275.26,361.49,275.26,361.62Z" style="fill:none;stroke:#263238;stroke-miterlimit:10"></path><path d="M298.47,362.28c0,.25-.6.45-1.34.45s-1.34-.2-1.34-.45.6-.44,1.34-.44S298.47,362,298.47,362.28Z" style="fill:none;stroke:#263238;stroke-miterlimit:10"></path><path d="M215.91,415.17c0,.61-1.5,1.11-3.35,1.11s-3.35-.5-3.35-1.11,1.5-1.12,3.35-1.12S215.91,414.55,215.91,415.17Z" style="fill:none;stroke:#263238;stroke-miterlimit:10"></path><path d="M239.56,434.58c0,1-1.2,1.79-2.68,1.79s-2.67-.8-2.67-1.79,1.19-1.78,2.67-1.78S239.56,433.59,239.56,434.58Z" style="fill:none;stroke:#263238;stroke-miterlimit:10"></path><path d="M119.51,377.9c0,.5-1.39.9-3.12.9s-3.12-.4-3.12-.9,1.39-.89,3.12-.89S119.51,377.41,119.51,377.9Z" style="fill:none;stroke:#263238;stroke-miterlimit:10"></path><path d="M45.88,382.14c0,.87-1.5,1.57-3.35,1.57s-3.34-.7-3.34-1.57,1.49-1.56,3.34-1.56S45.88,381.28,45.88,382.14Z" style="fill:none;stroke:#263238;stroke-miterlimit:10"></path><path d="M57.93,404.68c0,.49-.9.89-2,.89s-2-.4-2-.89.9-.89,2-.89S57.93,404.19,57.93,404.68Z" style="fill:none;stroke:#263238;stroke-miterlimit:10"></path><path d="M44.54,412c0,.37-.4.67-.89.67s-.89-.3-.89-.67.4-.67.89-.67S44.54,411.67,44.54,412Z" style="fill:none;stroke:#263238;stroke-miterlimit:10"></path><ellipse cx="114.38" cy="418.07" rx="1.56" ry="0.89" style="fill:none;stroke:#263238;stroke-miterlimit:10"></ellipse><path d="M441.27,367c0,.37-.4.67-.89.67s-.89-.3-.89-.67.4-.67.89-.67S441.27,366.6,441.27,367Z" style="fill:none;stroke:#263238;stroke-miterlimit:10"></path><path d="M420.75,353.81c0,.49-.7.89-1.57.89s-1.56-.4-1.56-.89.7-.9,1.56-.9S420.75,353.31,420.75,353.81Z" style="fill:none;stroke:#263238;stroke-miterlimit:10"></path><path d="M476.53,412c0,.62-.9,1.12-2,1.12s-2-.5-2-1.12.9-1.11,2-1.11S476.53,411.43,476.53,412Z" style="fill:none;stroke:#263238;stroke-miterlimit:10"></path><path d="M387.28,444.62c0,.37-1,.67-2.24.67s-2.23-.3-2.23-.67,1-.67,2.23-.67S387.28,444.25,387.28,444.62Z" style="fill:none;stroke:#263238;stroke-miterlimit:10"></path><ellipse cx="139" cy="467" rx="79" ry="15" style="fill:#263238;stroke:#263238;stroke-linecap:round;stroke-linejoin:round"></ellipse></g><g id="freepik--Clouds--inject-141"><path d="M200.15,77.3s5.75-18.1-15.64-27.15-55.94,4.11-54.29,13.16,18.1,18.1,6.58,18.92S117.88,65.78,94,74s4.11,18.93-1.65,18.93S71,88.81,57,92.93s0,11.51,52.65,15.63S150,102,169.71,100.33s17.27,7.41,59.23,0S256.09,67.42,200.15,77.3Z" style="opacity:0.15"></path><path d="M159.86,178.09s2.34-7.34-6.33-11-22.69,1.66-22,5.33,7.34,7.34,2.67,7.68-7.67-6.68-17.35-3.34,1.67,7.67-.67,7.67-8.67-1.67-14.34,0,0,4.67,21.35,6.34,16.35-2.67,24.35-3.34,7,3,24,0S182.55,174.09,159.86,178.09Z" style="opacity:0.15"></path><path d="M393.38,226.85s1.3-4.11-3.55-6.16-12.69.93-12.31,3,4.1,4.1,1.49,4.29-4.29-3.74-9.7-1.87.93,4.29-.38,4.29-4.85-.93-8,0,0,2.61,11.94,3.55,9.14-1.5,13.62-1.87,3.92,1.68,13.44,0S406.06,224.61,393.38,226.85Z" style="opacity:0.15"></path><path d="M429.38,189.67s2.33-7.34-6.34-11-22.68,1.67-22,5.34,7.34,7.34,2.67,7.67S396,185,386.35,188.34,388,196,385.68,196s-8.67-1.67-14.35,0,0,4.67,21.35,6.34S409,199.68,417,199s7,3,24,0S452.06,185.67,429.38,189.67Z" style="opacity:0.15"></path></g><g id="freepik--Trees--inject-141"><path d="M462.87,326.73s10.29-5.15,18.65,2.89l.34.31a29.18,29.18,0,0,0,11.24-23,29.91,29.91,0,0,0-59.82,0,29.18,29.18,0,0,0,11.31,23C446.46,328.6,455.17,322.73,462.87,326.73Z" style="fill:#2E3A3A"></path><path d="M462.87,326.73s10.29-5.15,18.65,2.89l.34.31a29.18,29.18,0,0,0,11.24-23,29.91,29.91,0,0,0-59.82,0,29.18,29.18,0,0,0,11.31,23C446.46,328.6,455.17,322.73,462.87,326.73Z" style="fill:#fff;opacity:0.4"></path><polygon points="452.54 320.44 462.36 323.74 461.89 340 464.33 340 463.8 319.18 471.4 314.95 482.3 316.19 472.54 314.32 484.52 307.67 477.18 311.26 478.28 307.77 483.22 303.87 478.59 306.77 479.98 302.39 476.74 310.2 474.02 306.92 475.54 301.83 473.55 306.35 470.35 302.48 476.34 311.15 476.08 311.79 463.76 317.82 463.46 306.19 467.14 301.94 477.94 299.15 473.56 299.91 475.63 297.57 472.73 300.05 468.08 300.85 473.41 294.7 469.18 298.77 469.52 293.59 468.52 299.41 463.42 304.33 463.19 295.53 463.04 300.81 461.2 297.69 461.9 293.91 465.81 290.17 462.1 292.82 463.22 286.74 460.6 296.68 458.13 292.48 459.82 295.86 455.54 294.52 460.29 296.81 462.99 302.21 462.74 310.77 457.06 306.39 455.65 302.88 456.28 297.67 455.17 301.65 455.25 301.89 452.76 295.72 456.26 305.77 450.91 301.65 457.65 307.74 447.48 307.11 453.05 307.91 446.19 309.8 454.45 308.11 458.74 308.72 462.7 312.3 462.41 322.06 455.74 320.57 449.43 312.76 452.78 317.49 444.98 315.54 453.68 318.75 454.82 320.36 447.3 318.69 451.25 320.01 443.41 321.83 452.54 320.44" style="fill:#263238"></polygon><path d="M425.25,326.73s10.3-5.15,18.66,2.89l.33.31a29.18,29.18,0,0,0,11.24-23,29.91,29.91,0,0,0-59.81,0A29.2,29.2,0,0,0,407,330C408.85,328.6,417.55,322.73,425.25,326.73Z" style="fill:#2E3A3A"></path><path d="M425.25,326.73s10.3-5.15,18.66,2.89l.33.31a29.18,29.18,0,0,0,11.24-23,29.91,29.91,0,0,0-59.81,0A29.2,29.2,0,0,0,407,330C408.85,328.6,417.55,322.73,425.25,326.73Z" style="fill:#fff;opacity:0.2"></path><polygon points="414.92 320.44 424.75 323.74 424.27 340 426.72 340 426.18 319.18 433.79 314.95 444.68 316.19 434.92 314.32 446.9 307.67 439.56 311.26 440.66 307.77 445.61 303.87 440.98 306.77 442.37 302.39 439.13 310.2 436.41 306.92 437.92 301.83 435.94 306.35 432.74 302.48 438.73 311.15 438.46 311.79 426.15 317.82 425.85 306.19 429.53 301.94 440.33 299.15 435.94 299.91 438.01 297.57 435.11 300.05 430.47 300.85 435.79 294.7 431.57 298.77 431.9 293.59 430.91 299.41 425.8 304.33 425.58 295.53 425.42 300.81 423.58 297.69 424.28 293.91 428.2 290.17 424.48 292.82 425.61 286.74 422.99 296.68 420.51 292.48 422.2 295.86 417.92 294.52 422.68 296.81 425.38 302.21 425.13 310.77 419.45 306.39 418.03 302.88 418.66 297.67 417.55 301.65 417.63 301.89 415.14 295.72 418.64 305.77 413.29 301.65 420.04 307.74 409.87 307.11 415.44 307.91 408.57 309.8 416.84 308.11 421.12 308.72 425.08 312.3 424.8 322.06 418.13 320.57 411.81 312.76 415.17 317.49 407.37 315.54 416.06 318.75 417.2 320.36 409.68 318.69 413.63 320.01 405.79 321.83 414.92 320.44" style="fill:#263238"></polygon><path d="M77.2,326.73s10.29-5.15,18.65,2.89l.34.31a29.18,29.18,0,0,0,11.24-23,29.91,29.91,0,0,0-59.82,0,29.18,29.18,0,0,0,11.31,23C60.79,328.6,69.5,322.73,77.2,326.73Z" style="fill:#2E3A3A"></path><path d="M77.2,326.73s10.29-5.15,18.65,2.89l.34.31a29.18,29.18,0,0,0,11.24-23,29.91,29.91,0,0,0-59.82,0,29.18,29.18,0,0,0,11.31,23C60.79,328.6,69.5,322.73,77.2,326.73Z" style="fill:#fff;opacity:0.4"></path><polygon points="66.87 320.44 76.7 323.74 76.22 340 78.66 340 78.13 319.18 85.73 314.95 96.63 316.19 86.87 314.32 98.85 307.67 91.51 311.26 92.61 307.77 97.56 303.87 92.93 306.77 94.31 302.39 91.07 310.2 88.35 306.92 89.87 301.83 87.88 306.35 84.69 302.48 90.67 311.15 90.41 311.79 78.09 317.82 77.8 306.19 81.47 301.94 92.28 299.15 87.89 299.91 89.96 297.57 87.06 300.05 82.42 300.85 87.74 294.7 83.52 298.77 83.85 293.59 82.85 299.41 77.75 304.33 77.52 295.53 77.37 300.81 75.53 297.69 76.23 293.91 80.15 290.17 76.43 292.82 77.56 286.74 74.94 296.68 72.46 292.48 74.15 295.86 69.87 294.52 74.63 296.81 77.33 302.21 77.08 310.77 71.4 306.39 69.98 302.88 70.61 297.67 69.5 301.65 69.58 301.89 67.09 295.72 70.59 305.77 65.24 301.65 71.99 307.74 61.81 307.11 67.39 307.91 60.52 309.8 68.79 308.11 73.07 308.72 77.03 312.3 76.75 322.06 70.08 320.57 63.76 312.76 67.11 317.49 59.31 315.54 68.01 318.75 69.15 320.36 61.63 318.69 65.58 320.01 57.74 321.83 66.87 320.44" style="fill:#263238"></polygon><path d="M39.59,326.73s10.29-5.15,18.65,2.89l.33.31a29.19,29.19,0,0,0,11.25-23,29.67,29.67,0,0,0-29.91-29.43A29.67,29.67,0,0,0,10,307a29.18,29.18,0,0,0,11.31,23C23.18,328.6,31.89,322.73,39.59,326.73Z" style="fill:#2E3A3A"></path><path d="M39.59,326.73s10.29-5.15,18.65,2.89l.33.31a29.19,29.19,0,0,0,11.25-23,29.67,29.67,0,0,0-29.91-29.43A29.67,29.67,0,0,0,10,307a29.18,29.18,0,0,0,11.31,23C23.18,328.6,31.89,322.73,39.59,326.73Z" style="fill:#fff;opacity:0.2"></path><polygon points="29.25 320.44 39.08 323.74 38.6 340 41.05 340 40.52 319.18 48.12 314.95 59.02 316.19 49.26 314.32 61.24 307.67 53.9 311.26 55 307.77 59.94 303.87 55.31 306.77 56.7 302.39 53.46 310.2 50.74 306.92 52.26 301.83 50.27 306.35 47.07 302.48 53.06 311.15 52.8 311.79 40.48 317.82 40.18 306.19 43.86 301.94 54.66 299.15 50.27 299.91 52.35 297.57 49.45 300.05 44.8 300.85 50.13 294.7 45.9 298.77 46.24 293.59 45.24 299.41 40.13 304.33 39.91 295.53 39.75 300.81 37.92 297.69 38.62 293.91 42.53 290.17 38.82 292.82 39.94 286.74 37.32 296.68 34.85 292.48 36.53 295.86 32.26 294.52 37.01 296.81 39.71 302.21 39.46 310.77 33.78 306.39 32.37 302.88 33 297.67 31.89 301.65 31.97 301.89 29.48 295.72 32.98 305.77 27.63 301.65 34.37 307.74 24.2 307.11 29.77 307.91 22.9 309.8 31.17 308.11 35.46 308.72 39.42 312.3 39.13 322.06 32.46 320.57 26.14 312.76 29.5 317.49 21.7 315.54 30.4 318.75 31.54 320.36 24.02 318.69 27.97 320.01 20.13 321.83 29.25 320.44" style="fill:#263238"></polygon></g><g id="freepik--Teotihuacán--inject-141"><polygon points="208.49 166.92 203.83 168.61 203.83 173.91 205.31 174.33 204.89 182.59 203.83 183.01 203.62 187.46 204.68 187.46 204.25 196.78 184.34 203.56 181.99 213.22 178.82 216.48 169.52 219.02 164.22 232.57 152.36 235.75 147.49 248.46 136.05 251 130.54 264.56 119.74 267.1 114.66 280.02 104.28 281.5 98.35 295.48 87.97 296.54 82.04 310.73 71.88 311.58 66.79 324.5 55.36 324.92 51.33 339.75 462.65 339.75 454.81 323.23 444.22 322.38 436.17 309.03 426.43 308.61 416.44 293.77 406.73 292.73 400.38 278.32 390.21 277.26 383.22 263.29 371.78 261.38 364.58 247.61 354.2 245.71 347.85 231.52 335.99 229.4 330.69 214.78 319.05 212.45 312.69 199.11 301.25 196.99 298.29 190.43 298.29 183.86 299.98 183.65 300.2 179.41 299.35 178.78 299.35 170.31 300.83 170.31 300.83 164.8 252.75 151.24 208.49 166.92" style="fill:#d9d9d9"></polygon><path d="M251.87,167l-.35,20.36-8.42-2.1-1.76,14.39L240.29,214l-2.11,14-1.4,17.55-2.11,14.74-2.45,18.95-2.46,18.26-2.11,19.65-2.1,22.11s.13.16.37.42H462.65l-7.84-16.53-10.59-.84L436.17,309l-9.74-.42-10-14.84-9.71-1-6.35-14.41-10.17-1.06-7-14-11.44-1.91-7.2-13.77-10.38-1.9-6.35-14.19L336,229.4l-5.29-14.62-11.65-2.33-6.36-13.34L301.26,197l-3-6.56v-6.57l1.69-.21.22-4.24-.85-.63v-8.47h1.48V164.8l-48.08-13.56-.18,7Z" style="stroke:#263238;stroke-miterlimit:10;opacity:0.2"></path><polygon points="231.93 189.15 233.71 201.56 228.64 203.08 225.85 217.26 218.51 219.28 220.03 232.2 207.12 235.24 210.66 248.91 200.78 251.34 200.53 266.63 192.89 268.5 192.18 283.6 178.98 286.12 182.05 301.58 167.39 303.28 173.69 319.56 160.43 320.9 172.68 339.82 102.53 339.82 231.93 189.15" style="stroke:#263238;stroke-miterlimit:10;opacity:0.2"></polygon><polygon points="208.49 166.92 203.83 168.61 203.83 173.91 205.31 174.33 204.89 182.59 203.83 183.01 203.62 187.46 204.68 187.46 204.25 196.78 184.34 203.56 181.99 213.22 178.82 216.48 169.52 219.02 164.22 232.57 152.36 235.75 147.49 248.46 136.05 251 130.54 264.56 119.74 267.1 114.66 280.02 104.28 281.5 98.35 295.48 87.97 296.54 82.04 310.73 71.88 311.58 66.79 324.5 55.36 324.92 51.33 339.75 462.65 339.75 454.81 323.23 444.22 322.38 436.17 309.03 426.43 308.61 416.44 293.77 406.73 292.73 400.38 278.32 390.21 277.26 383.22 263.29 371.78 261.38 364.58 247.61 354.2 245.71 347.85 231.52 335.99 229.4 330.69 214.78 319.05 212.45 312.69 199.11 301.25 196.99 298.29 190.43 298.29 183.86 299.98 183.65 300.2 179.41 299.35 178.78 299.35 170.31 300.83 170.31 300.83 164.8 252.75 151.24 208.49 166.92" style="fill:none;stroke:#263238;stroke-miterlimit:10"></polygon><polygon points="208.49 166.92 203.83 168.61 203.83 173.91 205.31 174.33 204.89 182.59 203.83 183.01 203.62 187.46 204.68 187.46 204.25 196.78 184.34 203.56 181.99 213.22 178.82 216.48 169.52 219.02 164.22 232.57 152.36 235.75 147.49 248.46 136.05 251 130.54 264.56 119.74 267.1 114.66 280.02 104.28 281.5 98.35 295.48 87.97 296.54 82.04 310.73 71.88 311.58 66.79 324.5 55.36 324.92 51.33 339.75 462.65 339.75 454.81 323.23 444.22 322.38 436.17 309.03 426.43 308.61 416.44 293.77 406.73 292.73 400.38 278.32 390.21 277.26 383.22 263.29 371.78 261.38 364.58 247.61 354.2 245.71 347.85 231.52 335.99 229.4 330.69 214.78 319.05 212.45 312.69 199.11 301.25 196.99 298.29 190.43 298.29 183.86 299.98 183.65 300.2 179.41 299.35 178.78 299.35 170.31 300.83 170.31 300.83 164.8 252.75 151.24 208.49 166.92" style="fill:none;stroke:#263238;stroke-miterlimit:10"></polygon><polyline points="203.62 187.46 251.69 172.64 299.98 183.65" style="fill:none;stroke:#263238;stroke-miterlimit:10;stroke-width:0.75px"></polyline><polyline points="299.35 178.78 251.69 166.49 204.89 182.59" style="fill:none;stroke:#263238;stroke-miterlimit:10;stroke-width:0.75px"></polyline><polyline points="203.83 173.91 252.12 157.81 300.83 170.31" style="fill:none;stroke:#263238;stroke-miterlimit:10;stroke-width:0.75px"></polyline><polyline points="205.31 174.33 252.12 159.08 299.39 170.6" style="fill:none;stroke:#263238;stroke-miterlimit:10;stroke-width:0.75px"></polyline><polyline points="204.84 187.92 251.68 173.44 297.93 183.95" style="fill:none;stroke:#263238;stroke-miterlimit:10;stroke-width:0.75px"></polyline><polyline points="301.25 196.99 243.19 185.71 204.25 196.78" style="fill:none;stroke:#263238;stroke-miterlimit:10"></polyline><polygon points="273.08 191.5 271.24 185.8 271.24 180.83 276.3 181.94 276.3 186.72 278.23 192.42 273.08 191.5" style="fill:#263238;stroke:#263238;stroke-miterlimit:10"></polygon><polygon points="238.59 186.53 238.59 178.99 233.71 180.28 236.19 180.47 236.19 183.5 235.55 183.96 235.55 187.73 238.59 186.53" style="fill:#263238;stroke:#263238;stroke-miterlimit:10"></polygon><polygon points="229.2 181.66 229.48 183.78 231.78 184.6 231.78 188.84 225.62 190.68 225.62 187.55 226.81 187.27 226.63 183.78 224.33 183.04 229.2 181.66" style="fill:#263238;stroke:#263238;stroke-miterlimit:10"></polygon><polygon points="219.55 186.17 222.12 187.27 222.12 191.32 219.27 192.33 219.55 186.17" style="fill:#263238;stroke:#263238;stroke-miterlimit:10"></polygon><polygon points="231.84 188.94 103.09 339.71 68.53 339.71 193.93 200.17 231.84 188.94" style="fill:none;stroke:#263238;stroke-miterlimit:10"></polygon><line x1="226.88" y1="190.55" x2="97.86" y2="339.96" style="fill:none;stroke:#263238;stroke-miterlimit:10"></line><line x1="197.72" y1="199.3" x2="73.34" y2="339.71" style="fill:none;stroke:#263238;stroke-miterlimit:10"></line><line x1="197.28" y1="200.17" x2="225.42" y2="191.86" style="fill:none;stroke:#263238;stroke-miterlimit:10;stroke-width:0.75px"></line><line x1="195.27" y1="202.44" x2="223.35" y2="194.27" style="fill:none;stroke:#263238;stroke-miterlimit:10;stroke-width:0.75px"></line><line x1="193.26" y1="204.71" x2="221.27" y2="196.68" style="fill:none;stroke:#263238;stroke-miterlimit:10;stroke-width:0.75px"></line><line x1="191.25" y1="206.98" x2="219.19" y2="199.09" style="fill:none;stroke:#263238;stroke-miterlimit:10;stroke-width:0.75px"></line><line x1="189.24" y1="209.24" x2="217.11" y2="201.49" style="fill:none;stroke:#263238;stroke-miterlimit:10;stroke-width:0.75px"></line><line x1="187.23" y1="211.51" x2="215.04" y2="203.9" style="fill:none;stroke:#263238;stroke-miterlimit:10;stroke-width:0.75px"></line><line x1="185.21" y1="213.78" x2="212.96" y2="206.31" style="fill:none;stroke:#263238;stroke-miterlimit:10;stroke-width:0.75px"></line><line x1="183.2" y1="216.05" x2="210.88" y2="208.72" style="fill:none;stroke:#263238;stroke-miterlimit:10;stroke-width:0.75px"></line><line x1="181.19" y1="218.32" x2="208.8" y2="211.13" style="fill:none;stroke:#263238;stroke-miterlimit:10;stroke-width:0.75px"></line><line x1="179.18" y1="220.59" x2="206.73" y2="213.54" style="fill:none;stroke:#263238;stroke-miterlimit:10;stroke-width:0.75px"></line><line x1="177.17" y1="222.85" x2="204.65" y2="215.95" style="fill:none;stroke:#263238;stroke-miterlimit:10;stroke-width:0.75px"></line><line x1="175.16" y1="225.12" x2="202.57" y2="218.36" style="fill:none;stroke:#263238;stroke-miterlimit:10;stroke-width:0.75px"></line><line x1="173.14" y1="227.39" x2="200.49" y2="220.76" style="fill:none;stroke:#263238;stroke-miterlimit:10;stroke-width:0.75px"></line><line x1="171.13" y1="229.66" x2="198.42" y2="223.17" style="fill:none;stroke:#263238;stroke-miterlimit:10;stroke-width:0.75px"></line><line x1="169.12" y1="231.93" x2="196.34" y2="225.58" style="fill:none;stroke:#263238;stroke-miterlimit:10;stroke-width:0.75px"></line><line x1="167.11" y1="234.2" x2="194.26" y2="227.99" style="fill:none;stroke:#263238;stroke-miterlimit:10;stroke-width:0.75px"></line><line x1="165.1" y1="236.46" x2="192.18" y2="230.4" style="fill:none;stroke:#263238;stroke-miterlimit:10;stroke-width:0.75px"></line><line x1="163.09" y1="238.73" x2="190.1" y2="232.81" style="fill:none;stroke:#263238;stroke-miterlimit:10;stroke-width:0.75px"></line><line x1="161.08" y1="241" x2="188.03" y2="235.22" style="fill:none;stroke:#263238;stroke-miterlimit:10;stroke-width:0.75px"></line><line x1="159.06" y1="243.27" x2="185.95" y2="237.63" style="fill:none;stroke:#263238;stroke-miterlimit:10;stroke-width:0.75px"></line><line x1="157.05" y1="245.54" x2="183.87" y2="240.03" style="fill:none;stroke:#263238;stroke-miterlimit:10;stroke-width:0.75px"></line><line x1="155.04" y1="247.81" x2="181.79" y2="242.44" style="fill:none;stroke:#263238;stroke-miterlimit:10;stroke-width:0.75px"></line><line x1="153.03" y1="250.07" x2="179.72" y2="244.85" style="fill:none;stroke:#263238;stroke-miterlimit:10;stroke-width:0.75px"></line><line x1="151.02" y1="252.34" x2="177.64" y2="247.26" style="fill:none;stroke:#263238;stroke-miterlimit:10;stroke-width:0.75px"></line><line x1="149.01" y1="254.61" x2="175.56" y2="249.67" style="fill:none;stroke:#263238;stroke-miterlimit:10;stroke-width:0.75px"></line><line x1="147" y1="256.88" x2="173.48" y2="252.08" style="fill:none;stroke:#263238;stroke-miterlimit:10;stroke-width:0.75px"></line><line x1="144.98" y1="259.15" x2="171.41" y2="254.49" style="fill:none;stroke:#263238;stroke-miterlimit:10;stroke-width:0.75px"></line><line x1="142.97" y1="261.42" x2="169.33" y2="256.9" style="fill:none;stroke:#263238;stroke-miterlimit:10;stroke-width:0.75px"></line><line x1="140.96" y1="263.68" x2="167.25" y2="259.3" style="fill:none;stroke:#263238;stroke-miterlimit:10;stroke-width:0.75px"></line><line x1="138.95" y1="265.95" x2="165.17" y2="261.71" style="fill:none;stroke:#263238;stroke-miterlimit:10;stroke-width:0.75px"></line><line x1="136.94" y1="268.22" x2="163.1" y2="264.12" style="fill:none;stroke:#263238;stroke-miterlimit:10;stroke-width:0.75px"></line><line x1="134.93" y1="270.49" x2="161.02" y2="266.53" style="fill:none;stroke:#263238;stroke-miterlimit:10;stroke-width:0.75px"></line><line x1="132.92" y1="272.76" x2="158.94" y2="268.94" style="fill:none;stroke:#263238;stroke-miterlimit:10;stroke-width:0.75px"></line><line x1="130.9" y1="275.03" x2="156.86" y2="271.35" style="fill:none;stroke:#263238;stroke-miterlimit:10;stroke-width:0.75px"></line><line x1="128.89" y1="277.29" x2="154.79" y2="273.76" style="fill:none;stroke:#263238;stroke-miterlimit:10;stroke-width:0.75px"></line><line x1="126.88" y1="279.56" x2="152.71" y2="276.17" style="fill:none;stroke:#263238;stroke-miterlimit:10;stroke-width:0.75px"></line><line x1="124.87" y1="281.83" x2="150.63" y2="278.57" style="fill:none;stroke:#263238;stroke-miterlimit:10;stroke-width:0.75px"></line><line x1="122.86" y1="284.1" x2="148.55" y2="280.98" style="fill:none;stroke:#263238;stroke-miterlimit:10;stroke-width:0.75px"></line><line x1="120.85" y1="286.37" x2="146.48" y2="283.39" style="fill:none;stroke:#263238;stroke-miterlimit:10;stroke-width:0.75px"></line><line x1="118.84" y1="288.64" x2="144.4" y2="285.8" style="fill:none;stroke:#263238;stroke-miterlimit:10;stroke-width:0.75px"></line><line x1="116.82" y1="290.9" x2="142.32" y2="288.21" style="fill:none;stroke:#263238;stroke-miterlimit:10;stroke-width:0.75px"></line><line x1="114.81" y1="293.17" x2="140.24" y2="290.62" style="fill:none;stroke:#263238;stroke-miterlimit:10;stroke-width:0.75px"></line><line x1="112.8" y1="295.44" x2="138.17" y2="293.03" style="fill:none;stroke:#263238;stroke-miterlimit:10;stroke-width:0.75px"></line><line x1="110.79" y1="297.71" x2="136.09" y2="295.44" style="fill:none;stroke:#263238;stroke-miterlimit:10;stroke-width:0.75px"></line><line x1="108.78" y1="299.98" x2="134.01" y2="297.84" style="fill:none;stroke:#263238;stroke-miterlimit:10;stroke-width:0.75px"></line><line x1="106.77" y1="302.25" x2="131.93" y2="300.25" style="fill:none;stroke:#263238;stroke-miterlimit:10;stroke-width:0.75px"></line><line x1="104.76" y1="304.51" x2="129.86" y2="302.66" style="fill:none;stroke:#263238;stroke-miterlimit:10;stroke-width:0.75px"></line><line x1="102.74" y1="306.78" x2="127.78" y2="305.07" style="fill:none;stroke:#263238;stroke-miterlimit:10;stroke-width:0.75px"></line><line x1="100.73" y1="309.05" x2="125.7" y2="307.48" style="fill:none;stroke:#263238;stroke-miterlimit:10;stroke-width:0.75px"></line><line x1="98.72" y1="311.32" x2="123.62" y2="309.89" style="fill:none;stroke:#263238;stroke-miterlimit:10;stroke-width:0.75px"></line><line x1="96.71" y1="313.59" x2="121.55" y2="312.3" style="fill:none;stroke:#263238;stroke-miterlimit:10;stroke-width:0.75px"></line><line x1="94.7" y1="315.86" x2="119.47" y2="314.71" style="fill:none;stroke:#263238;stroke-miterlimit:10;stroke-width:0.75px"></line><line x1="92.69" y1="318.12" x2="117.39" y2="317.11" style="fill:none;stroke:#263238;stroke-miterlimit:10;stroke-width:0.75px"></line><line x1="90.68" y1="320.39" x2="115.31" y2="319.52" style="fill:none;stroke:#263238;stroke-miterlimit:10;stroke-width:0.75px"></line><line x1="88.66" y1="322.66" x2="113.24" y2="321.93" style="fill:none;stroke:#263238;stroke-miterlimit:10;stroke-width:0.75px"></line><line x1="86.65" y1="324.93" x2="111.16" y2="324.34" style="fill:none;stroke:#263238;stroke-miterlimit:10;stroke-width:0.75px"></line><line x1="84.64" y1="327.2" x2="109.08" y2="326.75" style="fill:none;stroke:#263238;stroke-miterlimit:10;stroke-width:0.75px"></line><line x1="82.63" y1="329.47" x2="107" y2="329.16" style="fill:none;stroke:#263238;stroke-miterlimit:10;stroke-width:0.75px"></line><line x1="80.62" y1="331.73" x2="104.93" y2="331.57" style="fill:none;stroke:#263238;stroke-miterlimit:10;stroke-width:0.75px"></line><line x1="78.61" y1="334" x2="102.85" y2="333.98" style="fill:none;stroke:#263238;stroke-miterlimit:10;stroke-width:0.75px"></line><line x1="76.6" y1="336.27" x2="100.77" y2="336.38" style="fill:none;stroke:#263238;stroke-miterlimit:10;stroke-width:0.75px"></line><line x1="74.58" y1="338.54" x2="98.69" y2="338.79" style="fill:none;stroke:#263238;stroke-miterlimit:10;stroke-width:0.75px"></line><polygon points="241.18 199.34 259.98 202.01 258.74 188.87 243.19 185.71 231.84 188.94 228.53 203.16 241.18 199.34" style="fill:none;stroke:#263238;stroke-miterlimit:10"></polygon><polygon points="240.76 213.35 270.15 218.35 266.83 202.98 241.18 199.34 223.52 204.67 218.12 219.44 240.76 213.35" style="fill:none;stroke:#263238;stroke-miterlimit:10"></polygon><polygon points="238.1 227.93 279.98 234.26 275.38 219.24 240.76 213.35 212.59 220.92 207.18 235.51 238.1 227.93" style="fill:none;stroke:#263238;stroke-miterlimit:10"></polygon><polygon points="235.86 244.89 289.04 250.6 284.49 234.94 238.1 227.93 200.96 237.04 196.16 251.96 235.86 244.89" style="fill:none;stroke:#263238;stroke-miterlimit:10"></polygon><polygon points="233.61 261.57 299.41 267.62 294.58 251.2 235.86 244.89 191.01 252.88 184.38 268.95 233.61 261.57" style="fill:none;stroke:#263238;stroke-miterlimit:10"></polygon><polygon points="231.23 278.53 310.43 285.6 306.77 268.3 233.61 261.57 180.36 269.56 173.59 286.65 231.23 278.53" style="fill:none;stroke:#263238;stroke-miterlimit:10"></polygon><polygon points="230.11 297.87 322.22 302.61 316.02 286.1 231.23 278.53 167.6 287.5 161 303.39 230.11 297.87" style="fill:none;stroke:#263238;stroke-miterlimit:10"></polygon><polygon points="225.34 317.35 333.44 319.37 328.08 302.91 230.11 297.87 154.71 303.89 147.32 320.87 225.34 317.35" style="fill:none;stroke:#263238;stroke-miterlimit:10"></polygon><polygon points="141.39 321.13 136.35 339.49 343.21 339.49 337.75 319.45 225.34 317.35 141.39 321.13" style="fill:none;stroke:#263238;stroke-miterlimit:10"></polygon><polygon points="420.01 339.56 375.68 339.56 258.96 188.54 302.13 197.19 420.01 339.56" style="fill:none;stroke:#263238;stroke-miterlimit:10;stroke-width:0.75px"></polygon><line x1="264.28" y1="190.04" x2="380.86" y2="339.42" style="fill:none;stroke:#263238;stroke-miterlimit:10;stroke-width:0.75px"></line><line x1="297.96" y1="196.6" x2="416.29" y2="339.86" style="fill:none;stroke:#263238;stroke-miterlimit:10;stroke-width:0.75px"></line><line x1="265.46" y1="191.08" x2="298.73" y2="197.52" style="fill:none;stroke:#263238;stroke-miterlimit:10;stroke-width:0.75px"></line><line x1="267.35" y1="193.5" x2="300.64" y2="199.83" style="fill:none;stroke:#263238;stroke-miterlimit:10;stroke-width:0.75px"></line><line x1="269.23" y1="195.91" x2="302.54" y2="202.13" style="fill:none;stroke:#263238;stroke-miterlimit:10;stroke-width:0.75px"></line><line x1="271.12" y1="198.33" x2="304.44" y2="204.44" style="fill:none;stroke:#263238;stroke-miterlimit:10;stroke-width:0.75px"></line><line x1="273" y1="200.75" x2="306.35" y2="206.74" style="fill:none;stroke:#263238;stroke-miterlimit:10;stroke-width:0.75px"></line><line x1="274.89" y1="203.16" x2="308.25" y2="209.05" style="fill:none;stroke:#263238;stroke-miterlimit:10;stroke-width:0.75px"></line><line x1="276.78" y1="205.58" x2="310.15" y2="211.35" style="fill:none;stroke:#263238;stroke-miterlimit:10;stroke-width:0.75px"></line><line x1="278.66" y1="208" x2="312.06" y2="213.66" style="fill:none;stroke:#263238;stroke-miterlimit:10;stroke-width:0.75px"></line><line x1="280.55" y1="210.41" x2="313.96" y2="215.96" style="fill:none;stroke:#263238;stroke-miterlimit:10;stroke-width:0.75px"></line><line x1="282.43" y1="212.83" x2="315.86" y2="218.27" style="fill:none;stroke:#263238;stroke-miterlimit:10;stroke-width:0.75px"></line><line x1="284.32" y1="215.24" x2="317.77" y2="220.57" style="fill:none;stroke:#263238;stroke-miterlimit:10;stroke-width:0.75px"></line><line x1="286.2" y1="217.66" x2="319.67" y2="222.88" style="fill:none;stroke:#263238;stroke-miterlimit:10;stroke-width:0.75px"></line><line x1="288.09" y1="220.08" x2="321.57" y2="225.18" style="fill:none;stroke:#263238;stroke-miterlimit:10;stroke-width:0.75px"></line><line x1="289.97" y1="222.49" x2="323.48" y2="227.49" style="fill:none;stroke:#263238;stroke-miterlimit:10;stroke-width:0.75px"></line><line x1="291.86" y1="224.91" x2="325.38" y2="229.79" style="fill:none;stroke:#263238;stroke-miterlimit:10;stroke-width:0.75px"></line><line x1="293.75" y1="227.33" x2="327.28" y2="232.1" style="fill:none;stroke:#263238;stroke-miterlimit:10;stroke-width:0.75px"></line><line x1="295.63" y1="229.74" x2="329.19" y2="234.4" style="fill:none;stroke:#263238;stroke-miterlimit:10;stroke-width:0.75px"></line><line x1="297.52" y1="232.16" x2="331.09" y2="236.7" style="fill:none;stroke:#263238;stroke-miterlimit:10;stroke-width:0.75px"></line><line x1="299.4" y1="234.58" x2="332.99" y2="239.01" style="fill:none;stroke:#263238;stroke-miterlimit:10;stroke-width:0.75px"></line><line x1="301.29" y1="236.99" x2="334.89" y2="241.31" style="fill:none;stroke:#263238;stroke-miterlimit:10;stroke-width:0.75px"></line><line x1="303.17" y1="239.41" x2="336.8" y2="243.62" style="fill:none;stroke:#263238;stroke-miterlimit:10;stroke-width:0.75px"></line><line x1="305.06" y1="241.83" x2="338.7" y2="245.92" style="fill:none;stroke:#263238;stroke-miterlimit:10;stroke-width:0.75px"></line><line x1="306.95" y1="244.24" x2="340.6" y2="248.23" style="fill:none;stroke:#263238;stroke-miterlimit:10;stroke-width:0.75px"></line><line x1="308.83" y1="246.66" x2="342.51" y2="250.53" style="fill:none;stroke:#263238;stroke-miterlimit:10;stroke-width:0.75px"></line><line x1="310.72" y1="249.07" x2="344.41" y2="252.84" style="fill:none;stroke:#263238;stroke-miterlimit:10;stroke-width:0.75px"></line><line x1="312.6" y1="251.49" x2="346.31" y2="255.14" style="fill:none;stroke:#263238;stroke-miterlimit:10;stroke-width:0.75px"></line><line x1="314.49" y1="253.91" x2="348.22" y2="257.45" style="fill:none;stroke:#263238;stroke-miterlimit:10;stroke-width:0.75px"></line><line x1="316.37" y1="256.32" x2="350.12" y2="259.75" style="fill:none;stroke:#263238;stroke-miterlimit:10;stroke-width:0.75px"></line><line x1="318.26" y1="258.74" x2="352.02" y2="262.06" style="fill:none;stroke:#263238;stroke-miterlimit:10;stroke-width:0.75px"></line><line x1="320.14" y1="261.16" x2="353.93" y2="264.36" style="fill:none;stroke:#263238;stroke-miterlimit:10;stroke-width:0.75px"></line><line x1="322.03" y1="263.57" x2="355.83" y2="266.67" style="fill:none;stroke:#263238;stroke-miterlimit:10;stroke-width:0.75px"></line><line x1="323.92" y1="265.99" x2="357.73" y2="268.97" style="fill:none;stroke:#263238;stroke-miterlimit:10;stroke-width:0.75px"></line><line x1="325.8" y1="268.41" x2="359.64" y2="271.28" style="fill:none;stroke:#263238;stroke-miterlimit:10;stroke-width:0.75px"></line><line x1="327.69" y1="270.82" x2="361.54" y2="273.58" style="fill:none;stroke:#263238;stroke-miterlimit:10;stroke-width:0.75px"></line><line x1="329.57" y1="273.24" x2="363.44" y2="275.89" style="fill:none;stroke:#263238;stroke-miterlimit:10;stroke-width:0.75px"></line><line x1="331.46" y1="275.65" x2="365.35" y2="278.19" style="fill:none;stroke:#263238;stroke-miterlimit:10;stroke-width:0.75px"></line><line x1="333.34" y1="278.07" x2="367.25" y2="280.5" style="fill:none;stroke:#263238;stroke-miterlimit:10;stroke-width:0.75px"></line><line x1="335.23" y1="280.49" x2="369.15" y2="282.8" style="fill:none;stroke:#263238;stroke-miterlimit:10;stroke-width:0.75px"></line><line x1="337.11" y1="282.9" x2="371.06" y2="285.11" style="fill:none;stroke:#263238;stroke-miterlimit:10;stroke-width:0.75px"></line><line x1="339" y1="285.32" x2="372.96" y2="287.41" style="fill:none;stroke:#263238;stroke-miterlimit:10;stroke-width:0.75px"></line><line x1="340.89" y1="287.74" x2="374.86" y2="289.72" style="fill:none;stroke:#263238;stroke-miterlimit:10;stroke-width:0.75px"></line><line x1="342.77" y1="290.15" x2="376.76" y2="292.02" style="fill:none;stroke:#263238;stroke-miterlimit:10;stroke-width:0.75px"></line><line x1="344.66" y1="292.57" x2="378.67" y2="294.33" style="fill:none;stroke:#263238;stroke-miterlimit:10;stroke-width:0.75px"></line><line x1="346.54" y1="294.99" x2="380.57" y2="296.63" style="fill:none;stroke:#263238;stroke-miterlimit:10;stroke-width:0.75px"></line><line x1="348.43" y1="297.4" x2="382.47" y2="298.94" style="fill:none;stroke:#263238;stroke-miterlimit:10;stroke-width:0.75px"></line><line x1="350.31" y1="299.82" x2="384.38" y2="301.24" style="fill:none;stroke:#263238;stroke-miterlimit:10;stroke-width:0.75px"></line><line x1="352.2" y1="302.23" x2="386.28" y2="303.55" style="fill:none;stroke:#263238;stroke-miterlimit:10;stroke-width:0.75px"></line><line x1="354.08" y1="304.65" x2="388.18" y2="305.85" style="fill:none;stroke:#263238;stroke-miterlimit:10;stroke-width:0.75px"></line><line x1="355.97" y1="307.07" x2="390.09" y2="308.16" style="fill:none;stroke:#263238;stroke-miterlimit:10;stroke-width:0.75px"></line><line x1="357.86" y1="309.48" x2="391.99" y2="310.46" style="fill:none;stroke:#263238;stroke-miterlimit:10;stroke-width:0.75px"></line><line x1="359.74" y1="311.9" x2="393.89" y2="312.77" style="fill:none;stroke:#263238;stroke-miterlimit:10;stroke-width:0.75px"></line><line x1="361.63" y1="314.32" x2="395.8" y2="315.07" style="fill:none;stroke:#263238;stroke-miterlimit:10;stroke-width:0.75px"></line><line x1="363.51" y1="316.73" x2="397.7" y2="317.38" style="fill:none;stroke:#263238;stroke-miterlimit:10;stroke-width:0.75px"></line><line x1="365.4" y1="319.15" x2="399.6" y2="319.68" style="fill:none;stroke:#263238;stroke-miterlimit:10;stroke-width:0.75px"></line><line x1="367.28" y1="321.57" x2="401.51" y2="321.99" style="fill:none;stroke:#263238;stroke-miterlimit:10;stroke-width:0.75px"></line><line x1="369.17" y1="323.98" x2="403.41" y2="324.29" style="fill:none;stroke:#263238;stroke-miterlimit:10;stroke-width:0.75px"></line><line x1="371.06" y1="326.4" x2="405.31" y2="326.6" style="fill:none;stroke:#263238;stroke-miterlimit:10;stroke-width:0.75px"></line><line x1="372.94" y1="328.81" x2="407.22" y2="328.9" style="fill:none;stroke:#263238;stroke-miterlimit:10;stroke-width:0.75px"></line><line x1="374.83" y1="331.23" x2="409.12" y2="331.21" style="fill:none;stroke:#263238;stroke-miterlimit:10;stroke-width:0.75px"></line><line x1="376.71" y1="333.65" x2="411.02" y2="333.51" style="fill:none;stroke:#263238;stroke-miterlimit:10;stroke-width:0.75px"></line><line x1="378.6" y1="336.06" x2="412.93" y2="335.82" style="fill:none;stroke:#263238;stroke-miterlimit:10;stroke-width:0.75px"></line><line x1="380.48" y1="338.48" x2="414.83" y2="338.12" style="fill:none;stroke:#263238;stroke-miterlimit:10;stroke-width:0.75px"></line><line x1="444.22" y1="322.38" x2="405.69" y2="321.8" style="fill:none;stroke:#263238;stroke-miterlimit:10"></line><line x1="426.43" y1="308.61" x2="393.24" y2="306.97" style="fill:none;stroke:#263238;stroke-miterlimit:10"></line><line x1="406.73" y1="292.73" x2="379.92" y2="291.11" style="fill:none;stroke:#263238;stroke-miterlimit:10"></line><line x1="390.21" y1="277.26" x2="366.75" y2="274.95" style="fill:none;stroke:#263238;stroke-miterlimit:10"></line><line x1="371.78" y1="261.38" x2="353.63" y2="259.37" style="fill:none;stroke:#263238;stroke-miterlimit:10"></line><line x1="354.2" y1="245.71" x2="340.63" y2="243.88" style="fill:none;stroke:#263238;stroke-miterlimit:10"></line><line x1="335.99" y1="229.4" x2="327.82" y2="228.09" style="fill:none;stroke:#263238;stroke-miterlimit:10"></line><line x1="319.05" y1="212.45" x2="314.04" y2="211.58" style="fill:none;stroke:#263238;stroke-miterlimit:10"></line><line x1="147.49" y1="248.46" x2="151.16" y2="247.45" style="fill:none;stroke:#263238;stroke-miterlimit:10"></line><line x1="130.55" y1="264.56" x2="137.18" y2="263.25" style="fill:none;stroke:#263238;stroke-miterlimit:10"></line><line x1="114.66" y1="280.02" x2="122.82" y2="278.93" style="fill:none;stroke:#263238;stroke-miterlimit:10"></line><line x1="98.35" y1="295.48" x2="109.1" y2="294.73" style="fill:none;stroke:#263238;stroke-miterlimit:10"></line><line x1="82.04" y1="310.73" x2="95.26" y2="310.01" style="fill:none;stroke:#263238;stroke-miterlimit:10"></line><line x1="66.79" y1="324.5" x2="82.45" y2="324.25" style="fill:none;stroke:#263238;stroke-miterlimit:10"></line><polygon points="129.41 339.8 129.41 325.8 135.24 325.8 135.24 340 129.41 339.8" style="fill:#263238;stroke:#263238;stroke-miterlimit:10"></polygon><line x1="252.12" y1="151.36" x2="252.12" y2="157.81" style="fill:#263238;stroke:#263238;stroke-miterlimit:10;stroke-width:0.75px"></line><polyline points="252.12 159.08 251.69 166.49 251.69 172.64" style="fill:#263238;stroke:#263238;stroke-miterlimit:10;stroke-width:0.75px"></polyline><line x1="251.68" y1="173.44" x2="251.46" y2="187.21" style="fill:#263238;stroke:#263238;stroke-miterlimit:10;stroke-width:0.75px"></line><polyline points="211.13 224.89 240.01 217.75 276.02 223.06" style="fill:none;stroke:#263238;stroke-miterlimit:10;stroke-width:0.75px"></polyline><polyline points="199.84 240.99 237.85 232.86 285.48 239.33" style="fill:none;stroke:#263238;stroke-miterlimit:10;stroke-width:0.75px"></polyline><polyline points="222.08 208.46 242 202.82 267.23 206.47" style="fill:none;stroke:#263238;stroke-miterlimit:10;stroke-width:0.75px"></polyline><polyline points="231.04 192.53 243.16 189.37 258.76 191.69" style="fill:none;stroke:#263238;stroke-miterlimit:10;stroke-width:0.75px"></polyline><polyline points="189.72 256.43 236.19 249.12 295.61 255.1" style="fill:none;stroke:#263238;stroke-miterlimit:10;stroke-width:0.75px"></polyline><polyline points="178.43 274.02 234.03 266.55 307.72 272.86" style="fill:none;stroke:#263238;stroke-miterlimit:10;stroke-width:0.75px"></polyline><polyline points="165.98 291.94 230.71 284.64 317.35 290.78" style="fill:none;stroke:#263238;stroke-miterlimit:10;stroke-width:0.75px"></polyline><polyline points="152.87 308.71 229.55 304.23 329.47 307.88" style="fill:none;stroke:#263238;stroke-miterlimit:10;stroke-width:0.75px"></polyline><polyline points="139.76 326.46 226.4 323.98 339.09 324.31" style="fill:none;stroke:#263238;stroke-miterlimit:10;stroke-width:0.75px"></polyline><line x1="118.35" y1="270.7" x2="132.46" y2="268.04" style="fill:none;stroke:#263238;stroke-miterlimit:10;stroke-width:0.75px"></line><line x1="134.78" y1="254.93" x2="146.73" y2="252.44" style="fill:none;stroke:#263238;stroke-miterlimit:10;stroke-width:0.75px"></line><line x1="151.05" y1="239.33" x2="161.34" y2="236.51" style="fill:none;stroke:#263238;stroke-miterlimit:10;stroke-width:0.75px"></line><line x1="167.81" y1="223.4" x2="174.78" y2="221.4" style="fill:none;stroke:#263238;stroke-miterlimit:10;stroke-width:0.75px"></line><line x1="183.41" y1="206.3" x2="190.88" y2="203.81" style="fill:none;stroke:#263238;stroke-miterlimit:10;stroke-width:0.75px"></line><line x1="102.75" y1="285.64" x2="119.35" y2="283.48" style="fill:none;stroke:#263238;stroke-miterlimit:10;stroke-width:0.75px"></line><line x1="85.99" y1="300.91" x2="104.24" y2="299.74" style="fill:none;stroke:#263238;stroke-miterlimit:10;stroke-width:0.75px"></line><line x1="70.38" y1="315.84" x2="90.96" y2="314.68" style="fill:none;stroke:#263238;stroke-miterlimit:10;stroke-width:0.75px"></line><line x1="54.28" y1="329.62" x2="78.02" y2="329.12" style="fill:none;stroke:#263238;stroke-miterlimit:10;stroke-width:0.75px"></line><line x1="409.3" y1="326.63" x2="456.44" y2="327.46" style="fill:none;stroke:#263238;stroke-miterlimit:10;stroke-width:0.75px"></line><line x1="396.02" y1="310.53" x2="437.85" y2="312.19" style="fill:none;stroke:#263238;stroke-miterlimit:10;stroke-width:0.75px"></line><line x1="383.57" y1="295.59" x2="419.09" y2="297.92" style="fill:none;stroke:#263238;stroke-miterlimit:10;stroke-width:0.75px"></line><line x1="369.8" y1="279" x2="401.66" y2="281.82" style="fill:none;stroke:#263238;stroke-miterlimit:10;stroke-width:0.75px"></line><line x1="357.18" y1="263.73" x2="384.74" y2="266.88" style="fill:none;stroke:#263238;stroke-miterlimit:10;stroke-width:0.75px"></line><line x1="344.4" y1="248.13" x2="366.48" y2="251.45" style="fill:none;stroke:#263238;stroke-miterlimit:10;stroke-width:0.75px"></line><line x1="331.13" y1="232.19" x2="349.38" y2="235.01" style="fill:none;stroke:#263238;stroke-miterlimit:10;stroke-width:0.75px"></line><line x1="317.18" y1="215.43" x2="331.79" y2="218.42" style="fill:none;stroke:#263238;stroke-miterlimit:10;stroke-width:0.75px"></line><line x1="305.07" y1="200.66" x2="313.87" y2="202.32" style="fill:none;stroke:#263238;stroke-miterlimit:10;stroke-width:0.75px"></line><line x1="243.03" y1="187.02" x2="242.08" y2="197.89" style="fill:none;stroke:#263238;stroke-miterlimit:10;stroke-width:0.75px"></line><line x1="240.82" y1="210.4" x2="240.72" y2="212.02" style="fill:none;stroke:#263238;stroke-miterlimit:10;stroke-width:0.75px"></line><line x1="241.4" y1="201.01" x2="240.9" y2="209.23" style="fill:none;stroke:#263238;stroke-miterlimit:10;stroke-width:0.75px"></line><line x1="240.32" y1="213.65" x2="238.82" y2="226.56" style="fill:none;stroke:#263238;stroke-miterlimit:10;stroke-width:0.75px"></line><line x1="236.61" y1="241.54" x2="236.38" y2="243.68" style="fill:none;stroke:#263238;stroke-miterlimit:10;stroke-width:0.75px"></line><line x1="238.1" y1="227.93" x2="236.88" y2="239.07" style="fill:none;stroke:#263238;stroke-miterlimit:10;stroke-width:0.75px"></line><line x1="234.54" y1="258.74" x2="234.34" y2="260.66" style="fill:none;stroke:#263238;stroke-miterlimit:10;stroke-width:0.75px"></line><line x1="235.97" y1="245.31" x2="234.72" y2="257.03" style="fill:none;stroke:#263238;stroke-miterlimit:10;stroke-width:0.75px"></line><line x1="232.87" y1="275.57" x2="232.71" y2="277.37" style="fill:none;stroke:#263238;stroke-miterlimit:10;stroke-width:0.75px"></line><line x1="233.93" y1="263.65" x2="233.15" y2="272.44" style="fill:none;stroke:#263238;stroke-miterlimit:10;stroke-width:0.75px"></line><line x1="230.41" y1="293.64" x2="230.16" y2="296.41" style="fill:none;stroke:#263238;stroke-miterlimit:10;stroke-width:0.75px"></line><line x1="231.64" y1="279.63" x2="230.64" y2="291.02" style="fill:none;stroke:#263238;stroke-miterlimit:10;stroke-width:0.75px"></line><line x1="228.55" y1="313.16" x2="228.36" y2="316.1" style="fill:none;stroke:#263238;stroke-miterlimit:10;stroke-width:0.75px"></line><line x1="229.45" y1="299.25" x2="228.69" y2="311.02" style="fill:none;stroke:#263238;stroke-miterlimit:10;stroke-width:0.75px"></line><line x1="225.9" y1="336.07" x2="225.74" y2="338.64" style="fill:none;stroke:#263238;stroke-miterlimit:10;stroke-width:0.75px"></line><line x1="227" y1="318.27" x2="226.1" y2="332.81" style="fill:none;stroke:#263238;stroke-miterlimit:10;stroke-width:0.75px"></line><polyline points="231.81 206.89 228.61 207.85 227.74 213.18 223.76 214.44" style="fill:none;stroke:#263238;stroke-miterlimit:10;stroke-width:0.75px"></polyline><polyline points="239.07 204.75 235.87 205.72 235 211.83 230.74 212.8" style="fill:none;stroke:#263238;stroke-miterlimit:10;stroke-width:0.75px"></polyline><polyline points="240.43 191.19 237.33 191.77 236.94 197.78 233.74 198.65" style="fill:none;stroke:#263238;stroke-miterlimit:10;stroke-width:0.75px"></polyline><polyline points="234.13 192.94 232.09 193.32 230.93 199.33" style="fill:none;stroke:#263238;stroke-miterlimit:10;stroke-width:0.75px"></polyline><polyline points="236.75 219.68 232 220.64 230.45 226.46 224.54 227.91" style="fill:none;stroke:#263238;stroke-miterlimit:10;stroke-width:0.75px"></polyline><polyline points="225.51 222.58 221.92 223.36 220.37 228.78 213.88 229.94" style="fill:none;stroke:#263238;stroke-miterlimit:10;stroke-width:0.75px"></polyline><line x1="238.3" y1="225" x2="235.49" y2="225.49" style="fill:none;stroke:#263238;stroke-miterlimit:10;stroke-width:0.75px"></line><line x1="235.87" y1="240.7" x2="231.8" y2="241.18" style="fill:none;stroke:#263238;stroke-miterlimit:10;stroke-width:0.75px"></line><polyline points="233.16 235.08 227.35 236.24 225.8 242.63 218.82 243.99" style="fill:none;stroke:#263238;stroke-miterlimit:10;stroke-width:0.75px"></polyline><polyline points="220.47 237.6 214.95 238.76 213.5 244.67 206.42 245.83" style="fill:none;stroke:#263238;stroke-miterlimit:10;stroke-width:0.75px"></polyline><polyline points="208.07 240.21 202.84 241.38 201.38 247.28 198.48 247.87" style="fill:none;stroke:#263238;stroke-miterlimit:10;stroke-width:0.75px"></polyline><polyline points="227.54 251.26 221.05 252.32 219.4 259.39 211.65 260.56" style="fill:none;stroke:#263238;stroke-miterlimit:10;stroke-width:0.75px"></polyline><polyline points="213.01 254.16 207 254.84 205.36 261.62 198.38 262.4" style="fill:none;stroke:#263238;stroke-miterlimit:10;stroke-width:0.75px"></polyline><polyline points="199.35 256.58 193.73 257.17 191.7 263.56 187.24 264.24" style="fill:none;stroke:#263238;stroke-miterlimit:10;stroke-width:0.75px"></polyline><line x1="226.48" y1="257.94" x2="233.84" y2="256.97" style="fill:none;stroke:#263238;stroke-miterlimit:10;stroke-width:0.75px"></line><line x1="232.29" y1="274.99" x2="223.09" y2="276.15" style="fill:none;stroke:#263238;stroke-miterlimit:10;stroke-width:0.75px"></line><polyline points="224.34 269.18 216.5 270.34 214.85 277.32 205.16 278.67" style="fill:none;stroke:#263238;stroke-miterlimit:10;stroke-width:0.75px"></polyline><polyline points="206.81 271.7 199.45 272.76 198.19 279.55 189.28 280.42" style="fill:none;stroke:#263238;stroke-miterlimit:10;stroke-width:0.75px"></polyline><polyline points="190.53 273.83 183.46 274.7 181.23 281.97 176.2 282.55" style="fill:none;stroke:#263238;stroke-miterlimit:10;stroke-width:0.75px"></polyline><polyline points="221.83 286.81 211.56 288.17 209.62 295.34 198.77 296.4" style="fill:none;stroke:#263238;stroke-miterlimit:10;stroke-width:0.75px"></polyline><polyline points="200.61 289.72 191.41 290.49 189.28 297.66 179.39 298.34" style="fill:none;stroke:#263238;stroke-miterlimit:10;stroke-width:0.75px"></polyline><polyline points="181.23 291.85 172.81 292.72 170.97 299.21 164.28 299.79" style="fill:none;stroke:#263238;stroke-miterlimit:10;stroke-width:0.75px"></polyline><line x1="230.16" y1="293.3" x2="219.79" y2="294.17" style="fill:none;stroke:#263238;stroke-miterlimit:10;stroke-width:0.75px"></line><polyline points="215.63 306.09 204.78 306.67 202.55 314.32 190.15 315.1" style="fill:none;stroke:#263238;stroke-miterlimit:10;stroke-width:0.75px"></polyline><polyline points="191.79 307.93 182.3 308.51 180.27 315.29 168.25 315.87" style="fill:none;stroke:#263238;stroke-miterlimit:10;stroke-width:0.75px"></polyline><polyline points="170.77 309 162.44 309.48 160.02 316.07 152.66 316.36" style="fill:none;stroke:#263238;stroke-miterlimit:10;stroke-width:0.75px"></polyline><line x1="213.3" y1="313.45" x2="227.35" y2="312.68" style="fill:none;stroke:#263238;stroke-miterlimit:10;stroke-width:0.75px"></line><polyline points="208.84 325.56 197.99 325.95 196.15 335.44 179.78 335.44" style="fill:none;stroke:#263238;stroke-miterlimit:10;stroke-width:0.75px"></polyline><polyline points="181.72 326.34 171.74 326.63 169.71 335.25 156.05 335.44" style="fill:none;stroke:#263238;stroke-miterlimit:10;stroke-width:0.75px"></polyline><polyline points="157.79 327.11 149.07 327.4 147.33 335.25 138.41 335.44" style="fill:none;stroke:#263238;stroke-miterlimit:10;stroke-width:0.75px"></polyline><line x1="206.81" y1="334.77" x2="225.8" y2="334.57" style="fill:none;stroke:#263238;stroke-miterlimit:10;stroke-width:0.75px"></line><polyline points="171.9 223.44 169.37 223.99 167.78 228.74" style="fill:none;stroke:#263238;stroke-miterlimit:10;stroke-width:0.75px"></polyline><polyline points="156.22 239.04 152.82 239.83 151.63 244.42 149.73 244.82" style="fill:none;stroke:#263238;stroke-miterlimit:10;stroke-width:0.75px"></polyline><polyline points="140.86 254.64 137.3 255.35 135.4 260.81 132.47 261.37" style="fill:none;stroke:#263238;stroke-miterlimit:10;stroke-width:0.75px"></polyline><polyline points="126.53 270.24 122.73 271.03 121.14 276.25 116.71 276.73" style="fill:none;stroke:#263238;stroke-miterlimit:10;stroke-width:0.75px"></polyline><polyline points="111.33 285.83 106.81 286.31 105.39 291.85 100.8 292.17" style="fill:none;stroke:#263238;stroke-miterlimit:10;stroke-width:0.75px"></polyline><polyline points="96.92 301.04 91.85 301.27 89.79 306.98 84.17 307.21" style="fill:none;stroke:#263238;stroke-miterlimit:10;stroke-width:0.75px"></polyline><polyline points="81.87 316.24 76.48 316.56 74.82 321.78 68.72 321.86" style="fill:none;stroke:#263238;stroke-miterlimit:10;stroke-width:0.75px"></polyline><polyline points="66.51 330.5 61.28 330.65 59.86 336.91 52.89 336.91" style="fill:none;stroke:#263238;stroke-miterlimit:10;stroke-width:0.75px"></polyline><polyline points="77.04 330.02 75.14 330.02 74.82 332.63" style="fill:none;stroke:#263238;stroke-miterlimit:10;stroke-width:0.75px"></polyline><line x1="95.28" y1="306.33" x2="98.39" y2="306.17" style="fill:none;stroke:#263238;stroke-miterlimit:10;stroke-width:0.75px"></line><line x1="80.65" y1="321.47" x2="84.85" y2="321.3" style="fill:none;stroke:#263238;stroke-miterlimit:10;stroke-width:0.75px"></line><line x1="110.25" y1="291.36" x2="111.76" y2="291.11" style="fill:none;stroke:#263238;stroke-miterlimit:10;stroke-width:0.75px"></line><line x1="494" y1="340.16" x2="13" y2="340.16" style="fill:none;stroke:#263238;stroke-miterlimit:10"></line></g><g id="freepik--character-2--inject-141"><rect x="209.88" y="215.98" width="11.93" height="24.31" rx="1.58" transform="translate(-5.23 5.06) rotate(-1.33)" style="fill:#2E3A3A;stroke:#263238;stroke-linecap:round;stroke-linejoin:round"></rect><path d="M205.17,258.33l11.66-12s-2.2-7.38-2.22-8.28,1.49-4.08,1.46-5.21-.08-3.38-.08-3.38,2.23-1.17,2.29,1.53a14.17,14.17,0,0,0,1.24,5.15l2,.63-.21-9.46,3,4.89s.12,5.17.15,6.52.35,5.63-.54,6.1-4.1,7.75-4.94,10-1.57,9.94-5.3,14.54a18.3,18.3,0,0,1-9.09,5.84S202.14,263.36,205.17,258.33Z" style="fill:#fff;stroke:#263238;stroke-linecap:round;stroke-linejoin:round"></path><path d="M138.78,464s-2,1.39.3,3.14,7,1,8.56.25,1.76-2.06,3.32-2.55,3.59-.76,3.78-2.34-2.8-4-6.17-3.91S139.17,461.47,138.78,464Z" style="fill:#fff;stroke:#263238;stroke-miterlimit:10"></path><path d="M133,361.85s3.41,30.77,3.47,33-3,8.41-2.8,15.38,5,39.75,5.09,44.7-1.15,8.58.47,10.57,7,1.19,8.11,0,1.51-2.74,2.86-2.77c4.66-.12,3.79-3.41,1.66-6.12-.7-.88-2.3-2.2-2.36-4.67s1.89-35.18,3.25-44.44,3-18.31,3.05-23.94.68-19.16.68-19.16Z" style="fill:#fff;stroke:#263238;stroke-miterlimit:10"></path><path d="M133.61,367.06a62.53,62.53,0,0,0,22.49,7.7c.2-5.23.42-10.3.42-10.3L133,361.85S133.27,363.94,133.61,367.06Z" style="fill:#263238;stroke:#263238;stroke-linecap:round;stroke-linejoin:round"></path><path d="M139,453.14s4.58,3.27,10.56-1.14" style="fill:none;stroke:#263238;stroke-miterlimit:10"></path><path d="M137.06,438.1s7.06,3.44,13.06-.08" style="fill:none;stroke:#263238;stroke-miterlimit:10"></path><line x1="148.79" y1="439.18" x2="140.34" y2="453.56" style="fill:none;stroke:#263238;stroke-miterlimit:10"></line><line x1="138.21" y1="439.2" x2="146.42" y2="453.64" style="fill:none;stroke:#263238;stroke-miterlimit:10"></line><path d="M150.75,455.57s2.51,2-.51,7.22" style="fill:none;stroke:#263238;stroke-miterlimit:10"></path><path d="M167.64,465.31s-2.65,2.32-.81,4.08,5.68,2.12,10.39,1.11,9.15-3.59,9.79-4.74-1.85-2.2-3-2.63-3.84-.36-8.35-.71S167.64,465.31,167.64,465.31Z" style="fill:#fff;stroke:#263238;stroke-miterlimit:10"></path><path d="M164.42,365.4s2.46,28.55,2.28,30.35-1.09,11.06-1,16.91,2.4,35.53,2.09,41.61-.68,9.25-.84,12.18,4.81,3.5,6.83,3.45,8-2.89,9.6-3.6,3.33-2.11,2.17-3.66-5.24-2.8-5.76-5.49a37.63,37.63,0,0,1-.59-6.29c0-1.13,1.92-24.14,3.11-30.93s3.06-13.58,2.89-20.78-.25-11-.25-11l4.14-25.32-25-.09Z" style="fill:#fff;stroke:#263238;stroke-miterlimit:10"></path><path d="M164.42,365.4s.3,3.52.69,8.16a70.22,70.22,0,0,0,21.5,4.67l2.52-15.43-25-.09Z" style="fill:#263238;stroke:#263238;stroke-linecap:round;stroke-linejoin:round"></path><path d="M181.69,459.58s1.21,3.35-.94,7.91" style="fill:none;stroke:#263238;stroke-miterlimit:10"></path><path d="M168,442.11s6.15,2.79,11.94.17" style="fill:none;stroke:#263238;stroke-miterlimit:10"></path><path d="M177.94,443.23s-7.62,11.44-9.85,12.39c0,0,4.11,2.61,11,.19" style="fill:none;stroke:#263238;stroke-miterlimit:10"></path><path d="M169.37,443s2.25,9.4,7.74,13.33" style="fill:none;stroke:#263238;stroke-miterlimit:10"></path><path d="M139.69,309s-4.19,3.7-6.82,16.38-1.24,34.25-1.24,34.25,21,2.44,24.15,2.37l4.73-.11s2.53,2.42,13.57,2.39a74.52,74.52,0,0,0,18.64-2.23s.73-26.59-1.06-36a109.46,109.46,0,0,0-4.2-15.89Z" style="fill:#2E3A3A;stroke:#263238;stroke-miterlimit:10"></path><path d="M152,315.36s.39,0,1,.05a37.85,37.85,0,0,0,9.39-.59c3.9-1,4.49-1.92,9.38.08A32.66,32.66,0,0,0,183,317.36a25.94,25.94,0,0,0,4.22-.7,22,22,0,0,1,3.48,6.27s-1.65-9.65-3.28-12.78-18.53-1.53-25.79-1.37l-10.28.24S144.22,312.21,152,315.36Z" style="fill:#263238;stroke:#263238;stroke-linecap:round;stroke-linejoin:round"></path><path d="M157.21,316.48s-2.37,14.69.38,26.11" style="fill:none;stroke:#263238;stroke-miterlimit:10"></path><path d="M189.16,344.56c-5.07,4.62-12.23,6.59-12.23,6.59-5.69-2.34-11.68-8.28-11.68-8.28l-.1-14,19.58-.46" style="fill:none;stroke:#263238;stroke-miterlimit:10"></path><path d="M150.06,328.58l-13.51.31a47.12,47.12,0,0,0-.9,9.48,27.24,27.24,0,0,0,.83,7l5.27,3.93,6.9-3.53" style="fill:none;stroke:#263238;stroke-miterlimit:10"></path><polyline points="153.34 353.73 159.19 355.74 159.38 363.76" style="fill:none;stroke:#263238;stroke-miterlimit:10"></polyline><path d="M129.73,355.4s12.26,4,20.6,4.48,9.22,0,9.22,0l.33,7.95s-12.71,1.94-22.87-1.32c-8.71-2.79-8.24-4.36-8.24-4.36Z" style="fill:#fff;stroke:#263238;stroke-miterlimit:10"></path><path d="M159.55,359.91l-.27,7.66s1.4,1.52,14,2.36a43.51,43.51,0,0,0,22-4.34l-1.76-7.84s-13.21,3.46-21.09,3.64A41.73,41.73,0,0,1,159.55,359.91Z" style="fill:#fff;stroke:#263238;stroke-miterlimit:10"></path><path d="M137.71,252.69s-5.8,2.39-6.6,6.46-8.06,50.69-8.06,50.69,4.54,1.47,6.8,1.87,8.29-1.77,9.87-1.36,8.68,5.09,12.28,5,11.84-4,14.8-2.93,5.23,2.35,10.86,2.22,8.28-2.21,10.3-2.26,5.34-3.05,6.22-4,.45-19.22.45-19.22a30.46,30.46,0,0,0,7.15-2.64c3.56-1.88,4.25-10.91,4.25-10.91s5-6.42,4.71-10.46-4.91-7.77-4.91-7.77-9.28-2-11.33-3.12-6.4-4.13-12.71-4.21-12.59.75-22.5,1S143.93,249,137.71,252.69Z" style="fill:#fff;stroke:#263238;stroke-linecap:round;stroke-linejoin:round"></path><path d="M153.7,258.37s5.91,1.89,16.38-.58,18.76-2.46,20.6-1.69a6.49,6.49,0,0,0,3-2.22,33.69,33.69,0,0,0-9.86-3.7c-4.67-.7-11-1.16-11-1.16Z" style="fill:#263238;stroke:#263238;stroke-linecap:round;stroke-linejoin:round"></path><line x1="136.24" y1="277.05" x2="135.86" y2="279.76" style="fill:none;stroke:#263238;stroke-linecap:round;stroke-linejoin:round"></line><line x1="138.18" y1="263.04" x2="136.77" y2="273.2" style="fill:none;stroke:#263238;stroke-linecap:round;stroke-linejoin:round"></line><line x1="146.81" y1="266.22" x2="147" y2="274.55" style="fill:none;stroke:#263238;stroke-linecap:round;stroke-linejoin:round"></line><path d="M189.39,284.93a9.21,9.21,0,0,0,2.05,2.55" style="fill:none;stroke:#263238;stroke-linecap:round;stroke-linejoin:round"></path><path d="M181.41,262.94s3.08,11.91,6.56,19.3" style="fill:none;stroke:#263238;stroke-linecap:round;stroke-linejoin:round"></path><line x1="190.51" y1="257.32" x2="194.47" y2="262.86" style="fill:none;stroke:#263238;stroke-linecap:round;stroke-linejoin:round"></line><line x1="163.66" y1="280.91" x2="163.66" y2="283.84" style="fill:none;stroke:#263238;stroke-linecap:round;stroke-linejoin:round"></line><line x1="163.68" y1="265.6" x2="163.67" y2="277.31" style="fill:none;stroke:#263238;stroke-linecap:round;stroke-linejoin:round"></line><path d="M181.79,250.09c-6.31-.07-12.59.75-22.5,1s-15.36-2.12-21.58,1.62c0,0-5.31,2.2-6.46,6,4.5,3.4,13.93,8,30.84,6.31,20.71-2.1,28.87-8.25,31.64-11.08A23.82,23.82,0,0,0,181.79,250.09Z" style="fill:none;stroke:#263238;stroke-linecap:round;stroke-linejoin:round"></path><path d="M148.19,228.8s-1.07-17.08,2.47-19.64,14-8,22-5,12,13.69,12.28,14.81S186,229.5,186,229.5s15.08,9.34,19.4,11.26,7.5,3,7.5,3-16.45-.74-24.7,2.83-21.1,12.87-36.21,11.87-29.84-14.85-29.84-14.85,15.57-8.24,19.56-10.81S148.19,228.8,148.19,228.8Z" style="fill:#fff;stroke:#263238;stroke-linecap:round;stroke-linejoin:round"></path><path d="M186,229.5s-.1-1-.23-2.43l-1.07.91-.13.13c-.06.06-6,5.83-21.13,5.55-11.34-.21-14.49-3.89-15.32-5.4,0,.34,0,.54,0,.54s-1.18.68-3.24,2c1.72,2.74,6.31,6.68,18.45,6.9.86,0,1.7,0,2.51,0,14.47-.33,20.66-5.86,21.49-6.68l.43-.37C186.72,229.93,186,229.5,186,229.5Z" style="fill:#263238"></path></g><g id="freepik--character-1--inject-141"><path d="M96,391.7s-.45,29-1.1,37.32-.3,18.79-.3,18.79.24,1.57-2.91,2.3a27.35,27.35,0,0,1-6,.69A40.42,40.42,0,0,0,84,440.59c-1.73-6.29-5.1-24.36-4.72-31.92s.42-10.18.42-10.18L78.52,388l15.92.25Z" style="fill:#fff;stroke:#263238;stroke-linecap:round;stroke-linejoin:round"></path><path d="M94.59,445.46s2.66-3.35,3.15-1.26a11.91,11.91,0,0,1-.34,5,24,24,0,0,0,6.21,3.49c3.64,1.36,6.77,1.15,6.22,3.49s-4.24,3.59-8.68,4S87,463.88,84.94,461.5s-.86-12,.19-12.53S94,448.06,94.59,445.46Z" style="fill:#fff;stroke:#263238;stroke-linecap:round;stroke-linejoin:round"></path><path d="M109.83,456.14a1.42,1.42,0,0,0-.68-1.72c-2.26,1.68-6.22,3.84-12.69,5.17s-10.07,1.06-12.18.56a3.7,3.7,0,0,0,.66,1.35c2,2.38,11.76-.86,16.21-1.32S109.27,458.48,109.83,456.14Z" style="fill:#fff;stroke:#263238;stroke-linecap:round;stroke-linejoin:round"></path><path d="M76.68,388.52s-1.2,10.43-2.05,14.59-4.58,8.55-3.45,20.31,3.44,29.82,3.44,29.82-.53.51,3.9,1.37,7.85-1.19,8.13-2.49,4.16-32,5.85-40.11a157.53,157.53,0,0,0,2.38-18.5Z" style="fill:#fff;stroke:#263238;stroke-linecap:round;stroke-linejoin:round"></path><path d="M75.72,396.2c2.72,1.58,8.57,3.83,18.7,2.62.32-3.13.46-5.31.46-5.31l-18.2-5S76.25,392.29,75.72,396.2Z" style="fill:#263238;stroke:#263238;stroke-linecap:round;stroke-linejoin:round"></path><path d="M73.37,450.09a64.5,64.5,0,0,0,8.07,1.43,13.74,13.74,0,0,0,4.19-.72s2.69-5.44,3.71-3.33-.11,6.78-.11,6.78,4.64,3.73,7.23,5.34,5.45,1.65,5.42,3.48-5,4.88-13.92,5.52c-6.64.48-11.77-.78-14.48-.94a1.45,1.45,0,0,1-1.37-1.51c.13-2.74.42-8.55.63-9.54C73,455.3,72,452.94,73.37,450.09Z" style="fill:#fff;stroke:#263238;stroke-linecap:round;stroke-linejoin:round"></path><path d="M72.2,464.37c0,.66-.06,1.27-.09,1.77a1.45,1.45,0,0,0,1.37,1.51c2.71.16,7.84,1.42,14.48.94,8.89-.64,13.9-3.7,13.92-5.52a1.41,1.41,0,0,0-.55-1.16A32.29,32.29,0,0,1,91.92,466C85.72,467.8,76,465.45,72.2,464.37Z" style="fill:#fff;stroke:#263238;stroke-linecap:round;stroke-linejoin:round"></path><path d="M89.23,454.25s-2.69,4.92-13.36,2.67" style="fill:none;stroke:#263238;stroke-linecap:round;stroke-linejoin:round"></path><path d="M58.1,308.08s-6.29,18.7-4.88,28.64,10.26,28.1,11.52,31,3.76,9.72,3.76,9.72-.69,10.69-.44,11.48,11.64,7,21.56,6.87,21.49-4.63,21.49-4.63-1.73-39.45-1.52-53.28-.67-23.51-.67-23.51-26.79-6.69-37-7.63S58.1,308.08,58.1,308.08Z" style="fill:#2E3A3A;stroke:#263238;stroke-linecap:round;stroke-linejoin:round"></path><path d="M68.5,377.43l.16-26.63s-2-3.16-3.83-5.54a31.14,31.14,0,0,0-4.37-4.51l-.64,15.59Z" style="fill:#263238;stroke:#263238;stroke-linecap:round;stroke-linejoin:round"></path><path d="M57.85,240.71a72.42,72.42,0,0,0-6.41,9.3c-2.95,5.18-14.27,27.45-14.56,29.28S60.49,306,60.49,306l2.76-9.62-9.6-20.78,6.69-10.07L61.51,241A9.08,9.08,0,0,0,57.85,240.71Z" style="fill:#fff;stroke:#263238;stroke-linecap:round;stroke-linejoin:round"></path><path d="M57.85,240.71a72.42,72.42,0,0,0-6.41,9.3c-1,1.71-2.87,5.3-5,9.4l10.77,10.81,3.1-4.66L61.51,241A9.08,9.08,0,0,0,57.85,240.71Z" style="fill:#263238;stroke:#263238;stroke-linecap:round;stroke-linejoin:round"></path><path d="M75.53,229.24s-15.3,9.94-17.68,11.47-3.6,13.26-2.43,21.9,2.44,27.45,2.39,31.1-2,11.72-.25,15.66,6.63,10,20.18,12.07,28.5-2.69,31.41-5.51,7-12.95,5.63-25.76-8.66-30.68-9.13-33.56-2.39-14.4-6.5-18.64S81.84,226.47,75.53,229.24Z" style="fill:#263238;stroke:#263238;stroke-linecap:round;stroke-linejoin:round"></path><path d="M107.5,204.94c1,0,3.91.32,3.62,2.15s-2.93,3.6-2.93,3.6S108,224,106.92,225.56s-6.8.67-6.8.67l-1.44,8.34-20-7.37.88-6S73.93,214.6,74,210.42s5.61-8.27,12.67-8.94,16.69,1.31,16.69,1.31Z" style="fill:#fff;stroke:#263238;stroke-linecap:round;stroke-linejoin:round"></path><path d="M100.87,211.36c1.84-.75.58-3.38.58-3.38a24.47,24.47,0,0,0,.15-5.52c-3.1-.53-9.71-1.48-14.93-1-7.06.67-12.61,4.76-12.67,8.94s5.57,10.79,5.57,10.79a9.88,9.88,0,0,0,8.61.4c4.73-2,4.52-5.15,4.52-5.15a6.92,6.92,0,0,1-.19-4.71c.83-2.59,4.47-2,5.25-1.48S99,212.12,100.87,211.36Z" style="fill:#263238;stroke:#263238;stroke-linecap:round;stroke-linejoin:round"></path><path d="M92.7,216.46l2,2.12,2.36-.23a32.17,32.17,0,0,0,1.75,5" style="fill:none;stroke:#263238;stroke-linecap:round;stroke-linejoin:round"></path><path d="M69.75,197.82l4.21,15a26.31,26.31,0,0,0,13.29,1.77c7.58-.92,17.6-7.29,21.3-9.58s7.89-3.8,8.18-5.62-6.18-5.58-8.78-6.14a23.79,23.79,0,0,0-5.74-.35s-.15-7.06-5.34-9.23-14.33-1.79-19.07.49S67.52,190.21,69.75,197.82Z" style="fill:#fff;stroke:#263238;stroke-linecap:round;stroke-linejoin:round"></path><line x1="102.21" y1="192.85" x2="104.16" y2="201.49" style="fill:#fff;stroke:#263238;stroke-linecap:round;stroke-linejoin:round"></line><polygon points="76.37 225.34 75.53 229.24 103.01 241.68 100.77 234.34 76.37 225.34" style="fill:#fff;stroke:#263238;stroke-linecap:round;stroke-linejoin:round"></polygon><path d="M101.43,275.6,92,276.76l.12-7.31s.53-.78,3.4-.21S101.43,275.6,101.43,275.6Z" style="fill:#fff;stroke:#263238;stroke-linecap:round;stroke-linejoin:round"></path><path d="M78.87,265.58s-2.28,12.24-2.09,16.94S92.43,317,92.43,317s-2.62.22-2.64,1.53a4.81,4.81,0,0,1-2.4,3.61c-1.32.77-4.23,3.33-2.41,3.88s4.47-2,4.47-2l.21,2.88s-2.09,0-2.11,1.27,6.43,6.37,8,5.87a5.16,5.16,0,0,0,4-4.9c0-3.13.92-9.12-.83-13.85s-6.52-33.78-6.52-33.78l3.33-12.22S89.38,261.83,78.87,265.58Z" style="fill:#fff;stroke:#263238;stroke-linecap:round;stroke-linejoin:round"></path><path d="M88.17,238.84s-8.48,7.7-8.84,14.22S78,269.49,78,269.49a18.48,18.48,0,0,1,11.23-.09,55.28,55.28,0,0,1,12.17,6.2s1-13.82-.7-21.94-3-11.54-4.24-12.34" style="fill:#263238;stroke:#263238;stroke-linecap:round;stroke-linejoin:round"></path><line x1="92.43" y1="316.97" x2="94.71" y2="321.18" style="fill:none;stroke:#263238;stroke-linecap:round;stroke-linejoin:round"></line><path d="M93.15,320.64s-2.4,3.35-.86,4.94,4.12,3.72,4.12,3.72" style="fill:none;stroke:#263238;stroke-linecap:round;stroke-linejoin:round"></path></g></svg>