<svg xmlns="http://www.w3.org/2000/svg" viewBox="0 0 500 500"><g id="freepik--background-complete--inject-58"><rect x="416.78" y="398.49" width="33.12" height="0.25" style="fill:#ebebeb"></rect><rect x="322.53" y="401.21" width="8.69" height="0.25" style="fill:#ebebeb"></rect><rect x="396.59" y="389.21" width="19.19" height="0.25" style="fill:#ebebeb"></rect><rect x="52.46" y="390.89" width="43.19" height="0.25" style="fill:#ebebeb"></rect><rect x="104.56" y="390.89" width="6.33" height="0.25" style="fill:#ebebeb"></rect><rect x="131.47" y="395.11" width="93.68" height="0.25" style="fill:#ebebeb"></rect><path d="M238.4,337.8H45.3a5.71,5.71,0,0,1-5.71-5.71V60.66A5.71,5.71,0,0,1,45.3,55H238.4a5.71,5.71,0,0,1,5.71,5.71V332.09A5.71,5.71,0,0,1,238.4,337.8ZM45.3,55.2a5.47,5.47,0,0,0-5.46,5.46V332.09a5.47,5.47,0,0,0,5.46,5.46H238.4a5.47,5.47,0,0,0,5.46-5.46V60.66a5.47,5.47,0,0,0-5.46-5.46Z" style="fill:#ebebeb"></path><path d="M454.7,337.8H261.6a5.71,5.71,0,0,1-5.71-5.71V60.66A5.71,5.71,0,0,1,261.6,55H454.7a5.71,5.71,0,0,1,5.71,5.71V332.09A5.71,5.71,0,0,1,454.7,337.8ZM261.6,55.2a5.47,5.47,0,0,0-5.46,5.46V332.09a5.47,5.47,0,0,0,5.46,5.46H454.7a5.47,5.47,0,0,0,5.46-5.46V60.66a5.47,5.47,0,0,0-5.46-5.46Z" style="fill:#ebebeb"></path><rect y="382.4" width="500" height="0.25" style="fill:#ebebeb"></rect><path d="M175.3,233,146,231.24a5.35,5.35,0,0,0-3,.71h0c-9.69,8.39-20.14,2.79-24.75-.52a11.31,11.31,0,0,0-6-2.15l-32.68-1.91c-12.26-.71-14.22-18.05-2.4-21.4l.45-.13c-12.19-11.41,17.23-32.28,45.94.65C121.81,196,148.72,201.3,156.2,216,159.69,206.82,184.62,224.5,175.3,233Z" style="fill:#f0f0f0"></path><path d="M273.45,119.85c-11.14,6.42-3.87,23.61,8.61,20.51l12.69-.62a5.49,5.49,0,0,1,3.33.25h0c13,7.84,21.9-.54,25.52-5.19a9.85,9.85,0,0,1,5.45-3.58L362.32,123c12.48-3.1,11.26-26.59-2.18-28.24a4.35,4.35,0,0,0-.52-.06c8.65-15.37-29.21-33.85-47.48,9.29-1.85-12.42-27.93-1.29-30.55,16.92C279.6,118,276.51,118.09,273.45,119.85Z" style="fill:#f0f0f0"></path><path d="M215.05,140.34c10.51,4.59,5.76,20.56-5.61,19l-11.32.7a5,5,0,0,0-2.93.55h0c-10.77,8.24-19.48,1.69-23.16-2.08a8.81,8.81,0,0,0-5.19-2.64l-30.33-4c-11.38-1.52-12.62-22.48-.86-25.27l.45-.11c-9.19-12.78,22.57-32.92,43.05,3.54.41-11.19,24.65-3.9,28.78,12C209.41,139.31,212.16,139.08,215.05,140.34Z" style="fill:#f0f0f0"></path><path d="M336.34,229l15-.28,1.25.52c6.86,2.92,29.49,2.57,36.06-1h0L409,228s11.64-4.64,9.9-16.31-27.09-1.58-27.09-1.58-9.76-16.43-26.82-11.47a25.39,25.39,0,0,0-18.42,21.18S324,216.32,336.34,229Z" style="fill:#f0f0f0"></path><path d="M312.1,173.83a9.93,9.93,0,0,1-1.61-.52c-1-.38-2.22-1-3.52-1.64a10.41,10.41,0,0,0-3.44-1c-.91-.11-1.53,0-1.62-.25s.45-.68,1.57-.89a7.15,7.15,0,0,1,4.18.72,12.67,12.67,0,0,1,3.26,2.42C311.65,173.35,312.1,173.83,312.1,173.83Z" style="fill:#e6e6e6"></path><path d="M317.75,169.28l-1.16.46c-.7.28-1.57.68-2.55,1.1-2,.86-3.61,1.76-3.88,1.37-.12-.18.13-.62.69-1.16a8.71,8.71,0,0,1,2.56-1.68,6,6,0,0,1,3.09-.43,4.92,4.92,0,0,1,.93.22Z" style="fill:#e6e6e6"></path><path d="M301.6,177.23l-.32-.19c-.2-.13-.49-.3-.86-.5a19.55,19.55,0,0,0-2.85-1.24c-2.26-.81-4.29-.63-4.36-1,0-.15.47-.41,1.35-.53a7.42,7.42,0,0,1,3.41.38,6.74,6.74,0,0,1,2.83,1.9,5.27,5.27,0,0,1,.61.83Z" style="fill:#e6e6e6"></path><path d="M303.82,172.54s-.32.2-.81.47l-1.81,1c-1.37.75-2.42,1.62-2.68,1.39s0-.48.35-.95a5.61,5.61,0,0,1,1.75-1.5,4.53,4.53,0,0,1,2.25-.54A4.16,4.16,0,0,1,303.82,172.54Z" style="fill:#e6e6e6"></path><path d="M299.72,169.88s-.76-.27-1.94-.77-2.75-1.19-4.48-1.77a12.31,12.31,0,0,0-4.55-.62c-1.18.06-1.94.29-2.05.08s.52-.81,1.85-1.2a9,9,0,0,1,5.25.22,13.12,13.12,0,0,1,4.4,2.61A16.91,16.91,0,0,1,299.72,169.88Z" style="fill:#e6e6e6"></path><path d="M304.93,163.26l-.44.12c-.27.07-.67.19-1.14.34a31.8,31.8,0,0,0-3.49,1.38c-2.63,1.17-4.33,2.92-4.7,2.64-.16-.13.06-.77.73-1.6a9.34,9.34,0,0,1,3.3-2.5,8.16,8.16,0,0,1,4.07-.71,6.38,6.38,0,0,1,1.23.2Z" style="fill:#e6e6e6"></path><path d="M195.7,189.87a9.93,9.93,0,0,1-1.61-.52c-1-.38-2.22-1-3.51-1.65a10.73,10.73,0,0,0-3.44-1c-.92-.1-1.54,0-1.63-.24s.45-.68,1.57-.89a7,7,0,0,1,4.19.72,12.62,12.62,0,0,1,3.26,2.42C195.26,189.39,195.7,189.87,195.7,189.87Z" style="fill:#e6e6e6"></path><path d="M201.36,185.32l-1.17.45c-.69.29-1.57.68-2.54,1.11-2,.86-3.61,1.75-3.88,1.37-.13-.18.13-.62.69-1.16a8.52,8.52,0,0,1,2.55-1.68,5.77,5.77,0,0,1,3.09-.43,4.73,4.73,0,0,1,.93.22Z" style="fill:#e6e6e6"></path><path d="M185.21,193.27l-.32-.2c-.2-.13-.5-.3-.86-.49a19,19,0,0,0-2.85-1.24c-2.27-.81-4.3-.63-4.36-1,0-.15.46-.41,1.34-.54a7.71,7.71,0,0,1,3.41.38,6.81,6.81,0,0,1,2.84,1.91,6,6,0,0,1,.61.83Z" style="fill:#e6e6e6"></path><path d="M187.43,188.58l-.81.47-1.81,1c-1.37.75-2.43,1.63-2.69,1.4s0-.48.35-1a5.42,5.42,0,0,1,1.76-1.5,4.5,4.5,0,0,1,2.24-.54A3.6,3.6,0,0,1,187.43,188.58Z" style="fill:#e6e6e6"></path><path d="M183.33,185.91s-.77-.27-2-.76-2.75-1.2-4.48-1.77a12.27,12.27,0,0,0-4.54-.63c-1.19.07-1.94.3-2.05.09s.52-.81,1.84-1.2a9,9,0,0,1,5.25.22,13.18,13.18,0,0,1,4.41,2.61A17.93,17.93,0,0,1,183.33,185.91Z" style="fill:#e6e6e6"></path><path d="M188.53,179.3l-.43.12c-.28.07-.68.19-1.15.34a33.62,33.62,0,0,0-3.49,1.37c-2.63,1.18-4.32,2.93-4.69,2.65-.17-.13,0-.77.72-1.6a9.16,9.16,0,0,1,3.31-2.5,8.24,8.24,0,0,1,4.06-.72,7.44,7.44,0,0,1,1.24.21Z" style="fill:#e6e6e6"></path><path d="M239.45,231.58c3.17,2.33,7.75,3.28,12.87,3.28a26.36,26.36,0,0,0,10-1.67A161.88,161.88,0,0,1,239.45,231.58Z" style="fill:#f0f0f0"></path><path d="M259.5,229.39a71.38,71.38,0,0,1-12.91.18c-3.37-.31-6.72-.84-10.08-1.24a10.31,10.31,0,0,0,1.56,2.07,158.57,158.57,0,0,0,26.28,1.75,10.75,10.75,0,0,0,3.78-3.83C265.26,228.75,262.39,229.13,259.5,229.39Z" style="fill:#f0f0f0"></path><path d="M246.59,228.57a71.38,71.38,0,0,0,12.91-.18c2.36-.21,4.71-.51,7.06-.84a3.39,3.39,0,0,0,2.84-2.74,15.06,15.06,0,0,0,.26-2.69A17.35,17.35,0,1,0,235,222a14.3,14.3,0,0,0,.29,2.94,3.31,3.31,0,0,0,2.85,2.58C240.93,227.9,243.75,228.31,246.59,228.57Z" style="fill:#f0f0f0"></path></g><g id="freepik--Shadow--inject-58"><path id="freepik--path--inject-58" d="M443.89,412.39c.05,6.25-86.32,11.32-193.89,11.32-107.08,0-193.89-5.07-193.89-11.32S142.92,401.07,250,401.07,443.84,406.14,443.89,412.39Z" style="fill:#f5f5f5"></path></g><g id="freepik--Bridge--inject-58"><polygon points="104.59 266.52 97.4 266.52 94.08 122.14 104.59 122.14 104.59 266.52" style="fill:#2E3A3A"></polygon><g style="opacity:0.7000000000000001"><polygon points="104.59 266.52 97.4 266.52 94.08 122.14 104.59 122.14 104.59 266.52" style="fill:#fff"></polygon></g><rect x="139.31" y="145.35" width="0.85" height="10.04" transform="translate(-65.4 142.85) rotate(-45)" style="fill:#263238"></rect><rect x="134.34" y="150.06" width="10.04" height="0.85" transform="translate(-65.59 142.62) rotate(-45)" style="fill:#263238"></rect><rect x="146.41" y="145.35" width="0.85" height="10.04" transform="translate(-63.32 147.88) rotate(-45)" style="fill:#263238"></rect><rect x="141.44" y="150.06" width="10.04" height="0.85" transform="translate(-63.51 147.64) rotate(-45)" style="fill:#263238"></rect><rect x="153.52" y="145.35" width="0.85" height="10.04" transform="translate(-61.24 152.9) rotate(-45)" style="fill:#263238"></rect><rect x="148.55" y="150.06" width="10.04" height="0.85" transform="translate(-61.43 152.66) rotate(-45)" style="fill:#263238"></rect><rect x="160.62" y="145.35" width="0.85" height="10.04" transform="translate(-59.16 157.92) rotate(-45)" style="fill:#263238"></rect><rect x="155.65" y="150.06" width="10.04" height="0.85" transform="translate(-59.35 157.69) rotate(-45)" style="fill:#263238"></rect><rect x="167.72" y="145.35" width="0.85" height="10.04" transform="translate(-57.08 162.94) rotate(-45)" style="fill:#263238"></rect><rect x="162.75" y="150.06" width="10.04" height="0.85" transform="translate(-57.27 162.71) rotate(-45)" style="fill:#263238"></rect><rect x="174.82" y="145.35" width="0.85" height="10.04" transform="translate(-55 167.96) rotate(-45)" style="fill:#263238"></rect><rect x="169.85" y="150.06" width="10.04" height="0.85" transform="translate(-55.19 167.73) rotate(-45)" style="fill:#263238"></rect><rect x="181.92" y="145.35" width="0.85" height="10.04" transform="translate(-52.92 172.98) rotate(-45)" style="fill:#263238"></rect><rect x="176.95" y="150.06" width="10.04" height="0.85" transform="translate(-53.11 172.75) rotate(-45)" style="fill:#263238"></rect><rect x="193.88" y="145.35" width="0.85" height="10.04" transform="translate(-49.42 181.43) rotate(-45)" style="fill:#263238"></rect><rect x="188.91" y="150.06" width="10.04" height="0.85" transform="translate(-49.61 181.21) rotate(-45)" style="fill:#263238"></rect><rect x="200.98" y="145.35" width="0.85" height="10.04" transform="translate(-47.33 186.46) rotate(-45)" style="fill:#263238"></rect><rect x="196.01" y="150.06" width="10.04" height="0.85" transform="translate(-47.52 186.25) rotate(-45)" style="fill:#263238"></rect><rect x="208.08" y="145.35" width="0.85" height="10.04" transform="translate(-45.25 191.48) rotate(-45)" style="fill:#263238"></rect><rect x="203.11" y="150.06" width="10.04" height="0.85" transform="translate(-45.45 191.25) rotate(-45)" style="fill:#263238"></rect><rect x="215.18" y="145.35" width="0.85" height="10.04" transform="translate(-43.17 196.51) rotate(-45)" style="fill:#263238"></rect><rect x="210.21" y="150.06" width="10.04" height="0.85" transform="translate(-43.36 196.29) rotate(-45)" style="fill:#263238"></rect><rect x="222.29" y="145.35" width="0.85" height="10.04" transform="translate(-41.09 201.52) rotate(-45)" style="fill:#263238"></rect><rect x="217.32" y="150.06" width="10.04" height="0.85" transform="translate(-41.29 201.29) rotate(-45)" style="fill:#263238"></rect><rect x="229.39" y="145.35" width="0.85" height="10.04" transform="translate(-39.01 206.55) rotate(-45)" style="fill:#263238"></rect><rect x="224.42" y="150.06" width="10.04" height="0.85" transform="translate(-39.2 206.34) rotate(-45)" style="fill:#263238"></rect><rect x="236.49" y="145.35" width="0.85" height="10.04" transform="translate(-36.93 211.57) rotate(-45)" style="fill:#263238"></rect><rect x="231.52" y="150.06" width="10.04" height="0.85" transform="translate(-37.13 211.34) rotate(-45)" style="fill:#263238"></rect><path d="M243.08,155.11H137.72v-9.48H242.77Zm-103.66-1.7h101.9l-.2-6.08H139.41Z" style="fill:#2E3A3A"></path><rect x="187.12" y="144.86" width="8.66" height="11.01" style="fill:#2E3A3A"></rect><path d="M193.39,147v4.08l-.78.16a.82.82,0,0,0-.65.8v.45h-1v-.45a.82.82,0,0,0-.65-.8l-.79-.16V147l1.94,0Z" style="fill:#fff"></path><path d="M243.42,148.86s.2-3.13,2-3.33,3.53-.17,3.73-.89a4.34,4.34,0,0,0,0-1.73h.91v6Z" style="fill:#2E3A3A"></path><rect x="137.48" y="154.03" width="108.16" height="3.81" style="fill:#2E3A3A"></rect><g style="opacity:0.2"><rect x="137.48" y="154.03" width="108.16" height="3.81"></rect></g><rect x="242.02" y="148.86" width="8.31" height="8.98" style="fill:#2E3A3A"></rect><polygon points="129.04 266.52 136.23 266.52 139.55 122.14 129.04 122.14 129.04 266.52" style="fill:#2E3A3A"></polygon><g style="opacity:0.7000000000000001"><polygon points="129.04 266.52 136.23 266.52 139.55 122.14 129.04 122.14 129.04 266.52" style="fill:#fff"></polygon></g><polygon points="104.59 133.33 104.59 264.6 129.18 264.97 129.18 133.32 104.59 133.33" style="fill:#2E3A3A"></polygon><g style="opacity:0.5"><polygon points="129.18 264.97 104.59 264.6 104.59 133.33 129.18 133.33 129.18 264.97" style="fill:#fff"></polygon></g><polygon points="104.59 122.05 94.09 122.05 93 120.08 105.69 120.08 104.59 122.05" style="fill:#2E3A3A"></polygon><g style="opacity:0.2"><polygon points="104.59 122.05 94.09 122.05 93 120.08 105.69 120.08 104.59 122.05"></polygon></g><polygon points="105.74 120.07 92.95 120.07 99.41 96.61 105.74 120.07" style="fill:#2E3A3A"></polygon><rect x="98.81" y="88.97" width="1.21" height="10.52" style="fill:#263238"></rect><rect x="98.74" y="91.6" width="1.21" height="5.26" transform="translate(5.11 193.57) rotate(-90)" style="fill:#263238"></rect><polygon points="139.54 122.05 129.04 122.05 127.95 120.08 140.64 120.08 139.54 122.05" style="fill:#2E3A3A"></polygon><g style="opacity:0.2"><polygon points="139.54 122.05 129.04 122.05 127.95 120.08 140.64 120.08 139.54 122.05"></polygon></g><polygon points="140.69 120.07 127.9 120.07 134.36 96.61 140.69 120.07" style="fill:#2E3A3A"></polygon><rect x="133.77" y="88.97" width="1.21" height="10.52" style="fill:#263238"></rect><rect x="133.69" y="91.6" width="1.21" height="5.26" transform="translate(40.07 228.52) rotate(-90)" style="fill:#263238"></rect><polygon points="105.51 170.25 105.51 172.67 104.53 181.45 103 174.29 100.66 180.23 99.99 181.97 99.31 180.23 96.97 174.29 95.44 181.45 94.67 172.67 94.67 170.25 105.51 170.25" style="fill:#2E3A3A"></polygon><g style="opacity:0.4"><polygon points="105.51 170.25 105.51 172.67 104.53 181.45 103 174.29 100.66 180.23 99.99 181.97 99.31 180.23 96.97 174.29 95.44 181.45 94.67 172.67 94.67 170.25 105.51 170.25" style="fill:#fff"></polygon></g><polygon points="139.21 170.25 139.21 172.67 138.23 181.45 136.69 174.29 134.36 180.23 133.68 181.97 133 180.23 130.67 174.29 129.13 181.45 128.37 172.67 128.37 170.25 139.21 170.25" style="fill:#2E3A3A"></polygon><g style="opacity:0.4"><polygon points="139.21 170.25 139.21 172.67 138.23 181.45 136.69 174.29 134.36 180.23 133.68 181.97 133 180.23 130.67 174.29 129.13 181.45 128.37 172.67 128.37 170.25 139.21 170.25" style="fill:#fff"></polygon></g><polygon points="139.31 141.37 94.35 141.37 92.86 137.89 140.8 137.89 139.31 141.37" style="fill:#2E3A3A"></polygon><polygon points="139.21 170.23 94.71 170.23 93.12 167.44 140.8 167.44 139.21 170.23" style="fill:#2E3A3A"></polygon><polygon points="138.64 163.05 94.71 163.05 93.12 161.66 140.23 161.66 138.64 163.05" style="fill:#2E3A3A"></polygon><polygon points="138.44 191.44 95.31 191.44 93.72 190.05 140.03 190.05 138.44 191.44" style="fill:#2E3A3A"></polygon><polygon points="138.44 196.99 95.31 196.99 93.72 195.6 140.03 195.6 138.44 196.99" style="fill:#2E3A3A"></polygon><polygon points="137.76 221.15 96.16 221.15 94.56 219.76 139.35 219.76 137.76 221.15" style="fill:#2E3A3A"></polygon><polygon points="137.68 226.71 96.16 226.71 94.56 225.31 139.27 225.31 137.68 226.71" style="fill:#2E3A3A"></polygon><polygon points="136.98 252.88 96.72 252.88 95.13 254.28 138.57 254.28 136.98 252.88" style="fill:#2E3A3A"></polygon><rect x="107.56" y="209.15" width="4.3" height="9.92" style="fill:#263238"></rect><path d="M112.28,219.49h-5.15V208.72h5.15Zm-4.3-.85h3.45v-9.07H108Z" style="fill:#fff"></path><rect x="107.56" y="213.2" width="4.3" height="0.85" style="fill:#fff"></rect><polygon points="113.62 212.15 111.43 212.15 111.43 207.68 107.98 207.68 107.98 212.15 105.65 212.15 105.65 211.3 107.13 211.3 107.13 206.83 112.28 206.83 112.28 211.3 113.62 211.3 113.62 212.15" style="fill:#fff"></polygon><rect x="107.56" y="181.14" width="4.3" height="9.92" style="fill:#263238"></rect><path d="M112.28,191.48h-5.15V180.72h5.15Zm-4.3-.84h3.45v-9.07H108Z" style="fill:#fff"></path><rect x="107.56" y="185.19" width="4.3" height="0.85" style="fill:#fff"></rect><polygon points="113.62 184.14 111.43 184.14 111.43 179.68 107.98 179.68 107.98 184.14 105.65 184.14 105.65 183.29 107.13 183.29 107.13 178.83 112.28 178.83 112.28 183.29 113.62 183.29 113.62 184.14" style="fill:#fff"></polygon><rect x="114.96" y="181.14" width="4.3" height="9.92" style="fill:#263238"></rect><path d="M119.68,191.48h-5.15V180.72h5.15Zm-4.3-.84h3.45v-9.07h-3.45Z" style="fill:#fff"></path><rect x="114.96" y="185.19" width="4.3" height="0.85" style="fill:#fff"></rect><polygon points="121.02 184.14 118.83 184.14 118.83 179.68 115.38 179.68 115.38 184.14 111.99 184.14 111.99 183.29 114.53 183.29 114.53 178.83 119.68 178.83 119.68 183.29 121.02 183.29 121.02 184.14" style="fill:#fff"></polygon><rect x="122.36" y="181.14" width="4.3" height="9.92" style="fill:#263238"></rect><path d="M127.08,191.48h-5.14V180.72h5.14Zm-4.29-.84h3.44v-9.07h-3.44Z" style="fill:#fff"></path><rect x="122.36" y="185.19" width="4.3" height="0.85" style="fill:#fff"></rect><polygon points="128.43 184.14 126.23 184.14 126.23 179.68 122.79 179.68 122.79 184.14 119.39 184.14 119.39 183.29 121.94 183.29 121.94 178.83 127.08 178.83 127.08 183.29 128.43 183.29 128.43 184.14" style="fill:#fff"></polygon><rect x="106.01" y="142.07" width="4.3" height="9.92" style="fill:#263238"></rect><path d="M110.73,152.41h-5.15V141.64h5.15Zm-4.3-.85h3.45v-9.07h-3.45Z" style="fill:#fff"></path><rect x="106.01" y="146.12" width="4.3" height="0.85" style="fill:#fff"></rect><polygon points="112.07 145.06 109.88 145.06 109.88 140.6 106.43 140.6 106.43 145.06 104.1 145.06 104.1 144.22 105.58 144.22 105.58 139.75 110.73 139.75 110.73 144.22 112.07 144.22 112.07 145.06" style="fill:#fff"></polygon><rect x="123.5" y="142.07" width="4.3" height="9.92" style="fill:#263238"></rect><path d="M128.22,152.41h-5.15V141.64h5.15Zm-4.3-.85h3.45v-9.07h-3.45Z" style="fill:#fff"></path><rect x="123.5" y="146.12" width="4.3" height="0.85" style="fill:#fff"></rect><polygon points="129.56 145.06 127.37 145.06 127.37 140.6 123.92 140.6 123.92 145.06 120.7 145.06 120.7 144.22 123.07 144.22 123.07 139.75 128.22 139.75 128.22 144.22 129.56 144.22 129.56 145.06" style="fill:#fff"></polygon><rect x="121.88" y="209.15" width="4.3" height="9.92" style="fill:#263238"></rect><path d="M126.61,219.49h-5.15V208.72h5.15Zm-4.3-.85h3.45v-9.07h-3.45Z" style="fill:#fff"></path><rect x="121.88" y="213.2" width="4.3" height="0.85" style="fill:#fff"></rect><polygon points="127.95 212.15 125.76 212.15 125.76 207.68 122.31 207.68 122.31 212.15 118.92 212.15 118.92 211.3 121.46 211.3 121.46 206.83 126.61 206.83 126.61 211.3 127.95 211.3 127.95 212.15" style="fill:#fff"></polygon><rect x="114.4" y="209.15" width="4.91" height="9.92" style="fill:#263238"></rect><path d="M119.74,219.49H114V208.72h5.77Zm-4.92-.85h4.07v-9.07h-4.07Z" style="fill:#fff"></path><rect x="114.4" y="213.2" width="4.91" height="0.85" style="fill:#fff"></rect><polygon points="121.33 212.15 118.89 212.15 118.89 207.68 114.82 207.68 114.82 212.15 111.68 212.15 111.68 211.3 113.97 211.3 113.97 206.83 119.73 206.83 119.73 211.3 121.33 211.3 121.33 212.15" style="fill:#fff"></polygon><rect x="116.43" y="209.15" width="0.85" height="9.92" style="fill:#fff"></rect><rect x="114.4" y="238.09" width="4.91" height="9.92" style="fill:#263238"></rect><path d="M119.74,248.43H114V237.66h5.77Zm-4.92-.85h4.07v-9.07h-4.07Z" style="fill:#fff"></path><rect x="114.4" y="242.14" width="4.91" height="0.85" style="fill:#fff"></rect><polygon points="121.33 240.32 118.89 240.32 118.89 235.86 114.82 235.86 114.82 240.32 111.68 240.32 111.68 239.47 113.97 239.47 113.97 235.01 119.73 235.01 119.73 239.47 121.33 239.47 121.33 240.32" style="fill:#fff"></polygon><rect x="116.43" y="238.09" width="0.85" height="9.92" style="fill:#fff"></rect><rect x="112.16" y="142.07" width="8.95" height="9.92" style="fill:#263238"></rect><path d="M121.53,152.41h-9.8V141.64h9.8Zm-9-.85h8.1v-9.07h-8.1Z" style="fill:#fff"></path><rect x="114.74" y="142.07" width="0.85" height="9.92" style="fill:#fff"></rect><rect x="117.76" y="142.07" width="0.85" height="9.92" style="fill:#fff"></rect><rect x="112.16" y="146.12" width="8.95" height="0.85" style="fill:#fff"></rect><path d="M112.52,144.86l-.73-.44.95-1.57a1,1,0,0,1,1-.54,1.08,1.08,0,0,1,1,.56l.89,1.56-.74.42-.89-1.56a.23.23,0,0,0-.22-.13.25.25,0,0,0-.22.12Z" style="fill:#fff"></path><path d="M115.49,144.86l-.73-.44.95-1.57a1.06,1.06,0,0,1,1-.54,1.08,1.08,0,0,1,1,.56l.89,1.56-.74.42-.89-1.56a.23.23,0,0,0-.22-.13.25.25,0,0,0-.22.12Z" style="fill:#fff"></path><path d="M118.46,144.86l-.73-.44,1-1.57a1.09,1.09,0,0,1,.95-.54h0a1.08,1.08,0,0,1,1,.56l.89,1.56-.74.42-.89-1.56a.26.26,0,0,0-.44,0Z" style="fill:#fff"></path><rect x="115.68" y="66.1" width="1.21" height="16.57" style="fill:#263238"></rect><rect x="115.6" y="68.73" width="1.21" height="5.26" transform="translate(44.84 187.57) rotate(-90)" style="fill:#263238"></rect><polygon points="118.1 88.97 114.86 88.97 114.63 82.62 118.34 82.62 118.1 88.97" style="fill:#2E3A3A"></polygon><polygon points="114.76 88.97 118 88.97 131.58 133.32 101.18 133.32 114.76 88.97" style="fill:#2E3A3A"></polygon><g style="opacity:0.2"><polygon points="125.24 126.96 123.68 128.37 123.68 133.32 116.42 133.32 109.3 133.32 109.3 128.37 107.72 126.96 109.45 125.03 109.45 119.39 110.64 118.25 110.64 115.16 109.87 114.25 113.11 114.25 112.19 115.31 112.19 116.63 116.19 110.37 116.48 109.9 116.78 110.37 120.78 116.63 120.78 115.31 119.86 114.25 123.09 114.25 122.33 115.16 122.33 118.25 123.52 119.39 123.52 125.03 125.24 126.96" style="fill:#fff"></polygon></g><rect x="112.03" y="122.05" width="8.95" height="9.92" style="fill:#263238"></rect><path d="M121.41,132.39h-9.8V121.63h9.8Zm-9-.84h8.1v-9.07h-8.1Z" style="fill:#fff"></path><rect x="114.62" y="122.05" width="0.85" height="9.92" style="fill:#fff"></rect><rect x="117.64" y="122.05" width="0.85" height="9.92" style="fill:#fff"></rect><rect x="112.03" y="126.1" width="8.95" height="0.85" style="fill:#fff"></rect><path d="M112.4,124.84l-.73-.43.94-1.58a1.11,1.11,0,0,1,1-.53,1.08,1.08,0,0,1,.94.55l.89,1.57-.74.42-.89-1.57a.26.26,0,0,0-.22-.13.27.27,0,0,0-.22.13Z" style="fill:#fff"></path><path d="M115.37,124.84l-.73-.43.94-1.58a1.11,1.11,0,0,1,1-.53,1.08,1.08,0,0,1,.94.55l.89,1.57-.74.42-.89-1.57a.26.26,0,0,0-.22-.13.27.27,0,0,0-.22.13Z" style="fill:#fff"></path><path d="M118.34,124.84l-.73-.43.94-1.58a1.11,1.11,0,0,1,1-.53,1.08,1.08,0,0,1,.94.55l.89,1.57-.74.42-.89-1.57a.26.26,0,0,0-.22-.13.27.27,0,0,0-.22.13Z" style="fill:#fff"></path><polygon points="112.28 237.75 107.81 237.75 107.9 237.75 107.9 231.9 112.19 231.9 112.19 237.75 112.28 237.75" style="fill:#263238"></polygon><polygon points="126.27 237.75 121.8 237.75 121.88 237.75 121.88 231.9 126.18 231.9 126.18 237.75 126.27 237.75" style="fill:#263238"></polygon><path d="M112.28,238.18h-4.47v-.43h-.33v-6.27h5.15v6.27h-.34Zm-4-.85h3.45v-5h-3.45Z" style="fill:#fff"></path><polygon points="113.96 236.17 111.77 236.17 111.77 231.7 108.32 231.7 108.32 236.17 104.93 236.17 104.93 235.32 107.47 235.32 107.47 230.85 112.62 230.85 112.62 235.32 113.96 235.32 113.96 236.17" style="fill:#fff"></polygon><path d="M126,238.18h-4.47v-.43h-.33v-6.27h5.14v6.27H126Zm-4-.85h3.45v-5h-3.45Z" style="fill:#fff"></path><polygon points="127.69 236.17 125.5 236.17 125.5 231.7 122.05 231.7 122.05 236.17 119.72 236.17 119.72 235.32 121.2 235.32 121.2 230.85 126.35 230.85 126.35 235.32 127.69 235.32 127.69 236.17" style="fill:#fff"></polygon><rect x="107.56" y="241.18" width="4.3" height="9.92" style="fill:#263238"></rect><path d="M112.28,251.52h-5.15V240.75h5.15Zm-4.3-.85h3.45V241.6H108Z" style="fill:#fff"></path><rect x="104.93" y="245.23" width="9.47" height="0.85" style="fill:#fff"></rect><rect x="121.92" y="241.18" width="4.3" height="9.92" style="fill:#263238"></rect><path d="M126.64,251.52H121.5V240.75h5.14Zm-4.3-.85h3.45V241.6h-3.45Z" style="fill:#fff"></path><rect x="119.29" y="245.23" width="9.47" height="0.85" style="fill:#fff"></rect><path d="M107.22,265h-4.8V254.26h4.8Zm-4-.85h3.1v-9.07h-3.1Z" style="fill:#fff"></path><path d="M111.17,265h-4.8V254.26h4.8Zm-4-.85h3.1v-9.07h-3.1Z" style="fill:#fff"></path><path d="M117.42,265h-4.8V254.26h4.8Zm-4-.85h3.1v-9.07h-3.1Z" style="fill:#fff"></path><path d="M121.37,265h-4.79V254.26h4.79Zm-3.94-.85h3.09v-9.07h-3.09Z" style="fill:#fff"></path><path d="M127.62,265h-4.8V254.26h4.8Zm-4-.85h3.1v-9.07h-3.1Z" style="fill:#fff"></path><path d="M131.57,265h-4.79V254.26h4.79Zm-3.94-.85h3.09v-9.07h-3.09Z" style="fill:#fff"></path><polygon points="128.24 152.52 128.24 161.52 125.51 161.52 125.51 157.71 122.6 157.71 122.6 162.48 121.47 162.48 121.47 160.78 111.59 160.78 111.59 162.48 110.46 162.48 110.46 157.71 107.56 157.71 107.56 161.52 105.51 161.52 105.51 152.52 128.24 152.52" style="fill:#2E3A3A"></polygon><g style="opacity:0.7000000000000001"><rect x="106.09" y="153.3" width="1.55" height="3.25" style="fill:#fff"></rect><rect x="106.09" y="157.54" width="1.55" height="3.25" style="fill:#fff"></rect><rect x="126.22" y="153.3" width="1.55" height="3.25" style="fill:#fff"></rect><rect x="126.22" y="157.54" width="1.55" height="3.25" style="fill:#fff"></rect><rect x="111.15" y="152.39" width="1.55" height="3.25" style="fill:#fff"></rect><rect x="120.54" y="152.39" width="1.55" height="3.25" style="fill:#fff"></rect><rect x="111.15" y="157.54" width="1.55" height="3.25" style="fill:#fff"></rect><rect x="114.28" y="157.54" width="1.55" height="3.25" style="fill:#fff"></rect><rect x="117.4" y="157.54" width="1.55" height="3.25" style="fill:#fff"></rect><rect x="120.53" y="157.54" width="1.55" height="3.25" style="fill:#fff"></rect><rect x="109.81" y="155.65" width="13.19" height="0.91" style="fill:#fff"></rect><polygon points="122.62 157.5 110.19 157.5 109.97 157.28 122.85 157.28 122.62 157.5" style="fill:#fff"></polygon></g><g style="opacity:0.2"><rect x="110.56" y="131.97" width="11.85" height="5.92" style="fill:#fff"></rect></g><path d="M161.28,285.49l-.34-.55-9.33-15,1.45-.9L161,281.84V267.62h1.7v14.69c0,.12-.05.8-.08,1.19-.1,1.23-.13,1.64-.74,1.81Z" style="fill:#263238"></path><path d="M171.64,284l-.35-.53L162.91,270l1.44-.9,7,11.26V267.68h1.7v13.4c0,2.5-.44,2.63-.8,2.74Z" style="fill:#263238"></path><path d="M182,282.5l-.36-.53-7.44-12,1.44-.9,6.06,9.74V267.73h1.7v12.12c0,2.23-.5,2.38-.8,2.47Z" style="fill:#263238"></path><path d="M192.36,281l-.36-.53L185.49,270l1.45-.89,5.11,8.22v-9.57h1.7v10.84c0,2-.54,2.12-.79,2.2Z" style="fill:#263238"></path><path d="M202.72,279.51l-.4-.55L196.79,270l1.44-.9,4.17,6.71v-8h1.69v9.55c0,1.12-.26,1.77-.78,1.94Z" style="fill:#263238"></path><path d="M213.08,278l-.41-.56-4.59-7.41,1.44-.89,3.22,5.19v-6.46h1.7v8.26c0,.34-.05,1.45-.77,1.68Z" style="fill:#263238"></path><path d="M223.45,276.53,223,276l-3.65-5.9,1.45-.9,2.27,3.68v-4.91h1.7v7s0,1.16-.76,1.41Z" style="fill:#263238"></path><path d="M233.82,275l-.46-.57-2.69-4.39,1.44-.89,1.33,2.16V268h1.7v5.69a1.3,1.3,0,0,1-.74,1.15Z" style="fill:#263238"></path><path d="M244.52,273.42a1,1,0,0,1-.75-.36l-.06-.09L242,270.09l1.45-.88.37.62v-1.78h1.7v4.41a1,1,0,0,1-.64.91A1.13,1.13,0,0,1,244.52,273.42Z" style="fill:#263238"></path><path d="M151,287.83V266.52h99.78v7.19h-2.2c-1.58.14-50.63,4.43-96.56,13.91Zm1.69-19.61v17.53c46.27-9.46,95.29-13.69,95.78-13.73h.61v-3.8Z" style="fill:#2E3A3A"></path><rect x="142.67" y="266.79" width="108.16" height="3.81" transform="translate(-0.86 0.63) rotate(-0.18)" style="fill:#2E3A3A"></rect><g style="opacity:0.2"><rect x="142.67" y="266.79" width="108.16" height="3.81" transform="translate(-0.86 0.63) rotate(-0.18)"></rect></g><rect x="45.3" y="268.05" width="36.58" height="7.48" style="fill:#263238"></rect><polygon points="83.83 270.43 81.88 270.44 45.3 270.55 45.3 266.74 54.45 266.71 56.15 266.71 72.67 266.65 74.37 266.65 81.88 266.63 83.82 266.62 83.83 270.43" style="fill:#2E3A3A"></polygon><g style="opacity:0.2"><polygon points="83.83 270.43 81.88 270.44 45.3 270.55 45.3 266.74 54.45 266.71 56.15 266.71 72.67 266.65 74.37 266.65 81.88 266.63 83.82 266.62 83.83 270.43"></polygon></g><rect x="81.88" y="264.6" width="70.45" height="51.85" style="fill:#2E3A3A"></rect><g style="opacity:0.2"><path d="M147.79,298v2.93H86.42V298a10.19,10.19,0,0,1,1.8-5.83c3-4.34,10.61-11.09,28.89-10.81,18.27-.28,25.89,6.47,28.89,10.8A10.31,10.31,0,0,1,147.79,298Z" style="fill:#fff"></path></g><rect x="87.46" y="272.87" width="3.23" height="3.23" style="fill:#263238"></rect><rect x="106.03" y="272.87" width="3.23" height="3.23" style="fill:#263238"></rect><rect x="124.59" y="272.87" width="3.23" height="3.23" style="fill:#263238"></rect><rect x="143.16" y="272.87" width="3.23" height="3.23" style="fill:#263238"></rect><g style="opacity:0.2"><rect x="81.88" y="300.91" width="70.45" height="15.54"></rect></g><rect x="72.67" y="183.38" width="1.7" height="83.99" style="fill:#263238"></rect><rect x="54.45" y="198.43" width="1.7" height="68.94" style="fill:#263238"></rect><polygon points="55.99 198.92 55.95 198.97 55.84 199.13 54.45 201.09 48.67 209.24 47.37 211.07 45.3 213.99 45.3 211.26 45.15 211.28 45.3 211.06 46.44 209.45 51.59 202.18 54.61 197.93 55.29 198.42 55.3 198.42 55.31 198.43 55.99 198.92" style="fill:#263238"></polygon><polygon points="55.38 210.34 54.89 210.39 54.45 210.43 52.06 210.64 47.37 211.07 45.3 211.26 45.15 211.28 45.3 211.06 45.3 209.55 46.44 209.45 48.67 209.24 54.18 208.74 54.45 208.71 54.84 208.68 55.22 208.64 55.3 209.49 55.35 209.97 55.38 210.34" style="fill:#263238"></polygon><rect x="54.66" y="194.08" width="19.51" height="1.7" transform="translate(-65.51 35.97) rotate(-20.98)" style="fill:#263238"></rect><rect x="48.49" y="195.58" width="31.84" height="1.7" transform="translate(-133.53 136.84) rotate(-55.09)" style="fill:#263238"></rect><path d="M95.42,163.53l-.38.56a254.52,254.52,0,0,1-20.67,26.63l-.79.87-.91,1-.1.1c-5.1,5.62-10.25,10.8-15.37,15.56l-1.05,1c-.18.17-.35.33-.53.48l-.27.26-.46.42-.44.39q-4.62,4.17-9.15,7.88v-2.2q3.36-2.78,6.76-5.82l2.12-1.9.27-.25c.48-.43,1-.88,1.44-1.33l.26-.24c2-1.86,4-3.79,6-5.8q3.42-3.37,6.82-7c.87-.92,1.73-1.85,2.57-2.8.38-.4.74-.81,1.1-1.22.57-.63,1.14-1.28,1.7-1.93,4.45-5.07,8.84-10.5,13.11-16.28-4.27,4.27-8.66,8.35-13.11,12.23-.25.23-.51.45-.77.67l-.93.8c-1.38,1.2-2.77,2.37-4.16,3.53-2.68,2.22-5.38,4.38-8.07,6.47q-2.14,1.66-4.29,3.28L56,199l-.32.24h0c-.39.3-.77.59-1.16.87-1,.71-1.91,1.41-2.86,2.09-2.11,1.53-4.21,3-6.29,4.45v-2.07a322.36,322.36,0,0,0,27-21L73,183a255.57,255.57,0,0,0,21.06-20.52h0l.73.57.21.16Z" style="fill:#2E3A3A"></path><polygon points="395.41 266.52 402.6 266.52 405.93 122.14 395.41 122.14 395.41 266.52" style="fill:#2E3A3A"></polygon><g style="opacity:0.7000000000000001"><polygon points="395.41 266.52 402.6 266.52 405.93 122.14 395.41 122.14 395.41 266.52" style="fill:#fff"></polygon></g><rect x="355.24" y="149.94" width="10.04" height="0.85" transform="translate(-0.81 298.78) rotate(-45)" style="fill:#263238"></rect><rect x="360.21" y="145.46" width="0.85" height="10.04" transform="translate(-0.78 299.08) rotate(-45)" style="fill:#263238"></rect><rect x="348.14" y="149.94" width="10.04" height="0.85" transform="translate(-2.89 293.76) rotate(-45)" style="fill:#263238"></rect><rect x="353.11" y="145.46" width="0.85" height="10.04" transform="translate(-2.86 294.06) rotate(-45)" style="fill:#263238"></rect><rect x="341.04" y="149.94" width="10.04" height="0.85" transform="translate(-4.97 288.73) rotate(-45)" style="fill:#263238"></rect><rect x="346.01" y="145.46" width="0.85" height="10.04" transform="translate(-4.94 289.04) rotate(-45)" style="fill:#263238"></rect><rect x="333.94" y="149.94" width="10.04" height="0.85" transform="translate(-7.05 283.72) rotate(-45)" style="fill:#263238"></rect><rect x="338.91" y="145.46" width="0.85" height="10.04" transform="translate(-7.02 284.02) rotate(-45)" style="fill:#263238"></rect><rect x="326.83" y="149.94" width="10.04" height="0.85" transform="translate(-9.13 278.69) rotate(-45)" style="fill:#263238"></rect><rect x="331.8" y="145.46" width="0.85" height="10.04" transform="translate(-9.1 279) rotate(-45)" style="fill:#263238"></rect><rect x="319.73" y="149.94" width="10.04" height="0.85" transform="translate(-11.21 273.67) rotate(-45)" style="fill:#263238"></rect><rect x="324.7" y="145.46" width="0.85" height="10.04" transform="translate(-11.18 273.97) rotate(-45)" style="fill:#263238"></rect><rect x="312.63" y="149.94" width="10.04" height="0.85" transform="translate(-13.29 268.65) rotate(-45)" style="fill:#263238"></rect><rect x="317.6" y="145.46" width="0.85" height="10.04" transform="translate(-13.26 268.95) rotate(-45)" style="fill:#263238"></rect><rect x="300.67" y="149.94" width="10.04" height="0.85" transform="translate(-16.79 260.2) rotate(-45)" style="fill:#263238"></rect><rect x="305.65" y="145.46" width="0.85" height="10.04" transform="translate(-16.76 260.5) rotate(-45)" style="fill:#263238"></rect><rect x="293.57" y="149.94" width="10.04" height="0.85" transform="translate(-18.87 255.17) rotate(-45)" style="fill:#263238"></rect><rect x="298.54" y="145.46" width="0.85" height="10.04" transform="translate(-18.85 255.45) rotate(-45)" style="fill:#263238"></rect><rect x="286.47" y="149.94" width="10.04" height="0.85" transform="translate(-20.95 250.15) rotate(-45)" style="fill:#263238"></rect><rect x="291.44" y="145.46" width="0.85" height="10.04" transform="translate(-20.92 250.46) rotate(-45)" style="fill:#263238"></rect><rect x="279.37" y="149.94" width="10.04" height="0.85" transform="translate(-23.03 245.13) rotate(-45)" style="fill:#263238"></rect><rect x="284.34" y="145.46" width="0.85" height="10.04" transform="translate(-23.01 245.41) rotate(-45)" style="fill:#263238"></rect><rect x="272.27" y="149.94" width="10.04" height="0.85" transform="translate(-25.11 240.11) rotate(-45)" style="fill:#263238"></rect><rect x="277.24" y="145.46" width="0.85" height="10.04" transform="translate(-25.08 240.41) rotate(-45)" style="fill:#263238"></rect><rect x="265.16" y="149.94" width="10.04" height="0.85" transform="translate(-27.19 235.09) rotate(-45)" style="fill:#263238"></rect><rect x="270.14" y="145.46" width="0.85" height="10.04" transform="translate(-27.17 235.37) rotate(-45)" style="fill:#263238"></rect><rect x="258.06" y="149.94" width="10.04" height="0.85" transform="translate(-29.27 230.07) rotate(-45)" style="fill:#263238"></rect><rect x="263.03" y="145.46" width="0.85" height="10.04" transform="translate(-29.24 230.37) rotate(-45)" style="fill:#263238"></rect><path d="M257.23,145.63H362.29v9.48H256.92Zm103.36,1.7H258.88l-.2,6.08h101.9Z" style="fill:#2E3A3A"></path><rect x="304.21" y="144.86" width="8.66" height="11.01" transform="translate(617.09 300.73) rotate(180)" style="fill:#2E3A3A"></rect><path d="M306.61,147v4.08l.78.16a.82.82,0,0,1,.65.8v.45h1v-.45a.82.82,0,0,1,.65-.8l.79-.16V147l-1.94,0Z" style="fill:#fff"></path><path d="M256.58,148.86s-.2-3.13-2-3.33-3.53-.17-3.73-.89a4.34,4.34,0,0,1,0-1.73h-.91v6Z" style="fill:#2E3A3A"></path><rect x="254.36" y="154.03" width="108.16" height="3.81" transform="translate(616.88 311.88) rotate(180)" style="fill:#2E3A3A"></rect><g style="opacity:0.2"><rect x="254.36" y="154.03" width="108.16" height="3.81" transform="translate(616.88 311.88) rotate(180)"></rect></g><rect x="249.66" y="148.86" width="8.31" height="8.98" transform="translate(507.64 306.71) rotate(180)" style="fill:#2E3A3A"></rect><polygon points="370.96 266.52 363.77 266.52 360.45 122.14 370.96 122.14 370.96 266.52" style="fill:#2E3A3A"></polygon><g style="opacity:0.7000000000000001"><polygon points="370.96 266.52 363.77 266.52 360.45 122.14 370.96 122.14 370.96 266.52" style="fill:#fff"></polygon></g><polygon points="395.41 133.33 395.41 264.6 370.82 264.97 370.82 133.32 395.41 133.33" style="fill:#2E3A3A"></polygon><g style="opacity:0.5"><polygon points="370.82 264.97 395.41 264.6 395.41 133.33 370.82 133.33 370.82 264.97" style="fill:#fff"></polygon></g><polygon points="395.41 122.05 405.91 122.05 407 120.08 394.31 120.08 395.41 122.05" style="fill:#2E3A3A"></polygon><g style="opacity:0.2"><polygon points="395.41 122.05 405.91 122.05 407 120.08 394.31 120.08 395.41 122.05"></polygon></g><polygon points="394.26 120.07 407.05 120.07 400.59 96.61 394.26 120.07" style="fill:#2E3A3A"></polygon><rect x="399.97" y="88.97" width="1.21" height="10.52" transform="translate(801.16 188.45) rotate(180)" style="fill:#263238"></rect><rect x="400.05" y="91.6" width="1.21" height="5.26" transform="translate(306.43 494.89) rotate(-90)" style="fill:#263238"></rect><polygon points="360.45 122.05 370.96 122.05 372.05 120.08 359.36 120.08 360.45 122.05" style="fill:#2E3A3A"></polygon><g style="opacity:0.2"><polygon points="360.45 122.05 370.96 122.05 372.05 120.08 359.36 120.08 360.45 122.05"></polygon></g><polygon points="359.31 120.07 372.1 120.07 365.64 96.61 359.31 120.07" style="fill:#2E3A3A"></polygon><rect x="365.02" y="88.97" width="1.21" height="10.52" transform="translate(731.26 188.45) rotate(180)" style="fill:#263238"></rect><rect x="365.1" y="91.6" width="1.21" height="5.26" transform="translate(271.48 459.93) rotate(-90)" style="fill:#263238"></rect><polygon points="394.49 170.25 394.49 172.67 395.47 181.45 397.01 174.29 399.34 180.23 400.01 181.97 400.69 180.23 403.02 174.29 404.56 181.45 405.33 172.67 405.33 170.25 394.49 170.25" style="fill:#2E3A3A"></polygon><g style="opacity:0.4"><polygon points="394.49 170.25 394.49 172.67 395.47 181.45 397.01 174.29 399.34 180.23 400.01 181.97 400.69 180.23 403.02 174.29 404.56 181.45 405.33 172.67 405.33 170.25 394.49 170.25" style="fill:#fff"></polygon></g><polygon points="360.8 170.25 360.8 172.67 361.77 181.45 363.31 174.29 365.64 180.23 366.32 181.97 367 180.23 369.33 174.29 370.87 181.45 371.63 172.67 371.63 170.25 360.8 170.25" style="fill:#2E3A3A"></polygon><g style="opacity:0.4"><polygon points="360.8 170.25 360.8 172.67 361.77 181.45 363.31 174.29 365.64 180.23 366.32 181.97 367 180.23 369.33 174.29 370.87 181.45 371.63 172.67 371.63 170.25 360.8 170.25" style="fill:#fff"></polygon></g><polygon points="360.69 141.37 405.65 141.37 407.14 137.89 359.2 137.89 360.69 141.37" style="fill:#2E3A3A"></polygon><polygon points="360.8 170.23 405.29 170.23 406.88 167.44 359.2 167.44 360.8 170.23" style="fill:#2E3A3A"></polygon><polygon points="361.36 163.05 405.29 163.05 406.88 161.66 359.77 161.66 361.36 163.05" style="fill:#2E3A3A"></polygon><polygon points="361.56 191.44 404.69 191.44 406.28 190.05 359.97 190.05 361.56 191.44" style="fill:#2E3A3A"></polygon><polygon points="361.56 196.99 404.69 196.99 406.28 195.6 359.97 195.6 361.56 196.99" style="fill:#2E3A3A"></polygon><polygon points="362.24 221.15 403.84 221.15 405.44 219.76 360.65 219.76 362.24 221.15" style="fill:#2E3A3A"></polygon><polygon points="362.32 226.71 403.84 226.71 405.44 225.31 360.73 225.31 362.32 226.71" style="fill:#2E3A3A"></polygon><polygon points="363.02 252.88 403.27 252.88 404.87 254.28 361.43 254.28 363.02 252.88" style="fill:#2E3A3A"></polygon><rect x="388.15" y="209.15" width="4.3" height="9.92" transform="translate(780.59 428.22) rotate(180)" style="fill:#263238"></rect><path d="M387.72,208.72h5.15v10.77h-5.15Zm4.3.85h-3.45v9.07H392Z" style="fill:#fff"></path><rect x="388.15" y="213.2" width="4.3" height="0.85" style="fill:#fff"></rect><polygon points="386.38 212.15 388.57 212.15 388.57 207.68 392.02 207.68 392.02 212.15 394.35 212.15 394.35 211.3 392.87 211.3 392.87 206.83 387.72 206.83 387.72 211.3 386.38 211.3 386.38 212.15" style="fill:#fff"></polygon><rect x="388.15" y="181.14" width="4.3" height="9.92" transform="translate(780.59 372.2) rotate(180)" style="fill:#263238"></rect><path d="M387.72,180.72h5.15v10.76h-5.15Zm4.3.85h-3.45v9.07H392Z" style="fill:#fff"></path><rect x="388.15" y="185.19" width="4.3" height="0.85" style="fill:#fff"></rect><polygon points="386.38 184.14 388.57 184.14 388.57 179.68 392.02 179.68 392.02 184.14 394.35 184.14 394.35 183.29 392.87 183.29 392.87 178.83 387.72 178.83 387.72 183.29 386.38 183.29 386.38 184.14" style="fill:#fff"></polygon><rect x="380.74" y="181.14" width="4.3" height="9.92" transform="translate(765.78 372.2) rotate(180)" style="fill:#263238"></rect><path d="M380.32,180.72h5.15v10.76h-5.15Zm4.3.85h-3.45v9.07h3.45Z" style="fill:#fff"></path><rect x="380.74" y="185.19" width="4.3" height="0.85" style="fill:#fff"></rect><polygon points="378.98 184.14 381.17 184.14 381.17 179.68 384.62 179.68 384.62 184.14 388.01 184.14 388.01 183.29 385.46 183.29 385.46 178.83 380.32 178.83 380.32 183.29 378.98 183.29 378.98 184.14" style="fill:#fff"></polygon><rect x="373.34" y="181.14" width="4.3" height="9.92" transform="translate(750.98 372.2) rotate(180)" style="fill:#263238"></rect><path d="M372.92,180.72h5.14v10.76h-5.14Zm4.29.85h-3.44v9.07h3.44Z" style="fill:#fff"></path><rect x="373.34" y="185.19" width="4.3" height="0.85" style="fill:#fff"></rect><polygon points="371.57 184.14 373.77 184.14 373.77 179.68 377.21 179.68 377.21 184.14 380.61 184.14 380.61 183.29 378.06 183.29 378.06 178.83 372.92 178.83 372.92 183.29 371.57 183.29 371.57 184.14" style="fill:#fff"></polygon><rect x="389.7" y="142.07" width="4.3" height="9.92" transform="translate(783.69 294.05) rotate(180)" style="fill:#263238"></rect><path d="M389.27,141.64h5.15v10.77h-5.15Zm4.3.85h-3.45v9.07h3.45Z" style="fill:#fff"></path><rect x="389.7" y="146.12" width="4.3" height="0.85" style="fill:#fff"></rect><polygon points="387.93 145.06 390.12 145.06 390.12 140.6 393.57 140.6 393.57 145.06 395.9 145.06 395.9 144.22 394.42 144.22 394.42 139.75 389.27 139.75 389.27 144.22 387.93 144.22 387.93 145.06" style="fill:#fff"></polygon><rect x="372.21" y="142.07" width="4.3" height="9.92" transform="translate(748.71 294.05) rotate(180)" style="fill:#263238"></rect><path d="M371.78,141.64h5.15v10.77h-5.15Zm4.3.85h-3.45v9.07h3.45Z" style="fill:#fff"></path><rect x="372.21" y="146.12" width="4.3" height="0.85" style="fill:#fff"></rect><polygon points="370.44 145.06 372.63 145.06 372.63 140.6 376.08 140.6 376.08 145.06 379.3 145.06 379.3 144.22 376.93 144.22 376.93 139.75 371.78 139.75 371.78 144.22 370.44 144.22 370.44 145.06" style="fill:#fff"></polygon><rect x="373.82" y="209.15" width="4.3" height="9.92" transform="translate(751.94 428.22) rotate(180)" style="fill:#263238"></rect><path d="M373.4,208.72h5.14v10.77H373.4Zm4.29.85h-3.45v9.07h3.45Z" style="fill:#fff"></path><rect x="373.82" y="213.2" width="4.3" height="0.85" style="fill:#fff"></rect><polygon points="372.05 212.15 374.24 212.15 374.24 207.68 377.69 207.68 377.69 212.15 381.08 212.15 381.08 211.3 378.54 211.3 378.54 206.83 373.39 206.83 373.39 211.3 372.05 211.3 372.05 212.15" style="fill:#fff"></polygon><rect x="380.69" y="209.15" width="4.91" height="9.92" transform="translate(766.29 428.22) rotate(180)" style="fill:#263238"></rect><path d="M380.27,208.72H386v10.77h-5.76Zm4.91.85h-4.07v9.07h4.07Z" style="fill:#fff"></path><rect x="380.69" y="213.2" width="4.91" height="0.85" style="fill:#fff"></rect><polygon points="378.67 212.15 381.11 212.15 381.11 207.68 385.18 207.68 385.18 212.15 388.32 212.15 388.32 211.3 386.03 211.3 386.03 206.83 380.26 206.83 380.26 211.3 378.67 211.3 378.67 212.15" style="fill:#fff"></polygon><rect x="382.72" y="209.15" width="0.85" height="9.92" style="fill:#fff"></rect><rect x="380.69" y="238.09" width="4.91" height="9.92" transform="translate(766.29 486.1) rotate(180)" style="fill:#263238"></rect><path d="M380.27,237.66H386v10.77h-5.76Zm4.91.85h-4.07v9.07h4.07Z" style="fill:#fff"></path><rect x="380.69" y="242.14" width="4.91" height="0.85" style="fill:#fff"></rect><polygon points="378.67 240.32 381.11 240.32 381.11 235.86 385.18 235.86 385.18 240.32 388.32 240.32 388.32 239.47 386.03 239.47 386.03 235.01 380.26 235.01 380.26 239.47 378.67 239.47 378.67 240.32" style="fill:#fff"></polygon><rect x="382.72" y="238.09" width="0.85" height="9.92" style="fill:#fff"></rect><rect x="378.89" y="142.07" width="8.95" height="9.92" transform="translate(766.73 294.05) rotate(180)" style="fill:#263238"></rect><path d="M378.47,141.64h9.8v10.77h-9.8Zm8.95.85h-8.1v9.07h8.1Z" style="fill:#fff"></path><rect x="384.41" y="142.07" width="0.85" height="9.92" style="fill:#fff"></rect><rect x="381.39" y="142.07" width="0.85" height="9.92" style="fill:#fff"></rect><rect x="378.89" y="146.12" width="8.95" height="0.85" style="fill:#fff"></rect><path d="M387.48,144.86l.73-.44-.95-1.57a1,1,0,0,0-1-.54,1.08,1.08,0,0,0-.95.56l-.89,1.56.74.42.89-1.56a.23.23,0,0,1,.22-.13.25.25,0,0,1,.22.12Z" style="fill:#fff"></path><path d="M384.51,144.86l.73-.44-.95-1.57a1.06,1.06,0,0,0-1-.54,1.08,1.08,0,0,0-.95.56l-.89,1.56.74.42.89-1.56a.23.23,0,0,1,.22-.13.25.25,0,0,1,.22.12Z" style="fill:#fff"></path><path d="M381.54,144.86l.73-.44-.95-1.57a1.09,1.09,0,0,0-.95-.54h0a1.08,1.08,0,0,0-.95.56l-.89,1.56.74.42.89-1.56a.26.26,0,0,1,.44,0Z" style="fill:#fff"></path><rect x="383.11" y="66.1" width="1.21" height="16.57" transform="translate(767.43 148.78) rotate(180)" style="fill:#263238"></rect><rect x="383.19" y="68.73" width="1.21" height="5.26" transform="translate(312.43 455.16) rotate(-90)" style="fill:#263238"></rect><polygon points="381.9 88.97 385.14 88.97 385.37 82.62 381.66 82.62 381.9 88.97" style="fill:#2E3A3A"></polygon><polygon points="385.24 88.97 382 88.97 368.42 133.32 398.82 133.32 385.24 88.97" style="fill:#2E3A3A"></polygon><g style="opacity:0.2"><polygon points="374.76 126.96 376.32 128.37 376.32 133.32 383.58 133.32 390.7 133.32 390.7 128.37 392.28 126.96 390.55 125.03 390.55 119.39 389.36 118.25 389.36 115.16 390.13 114.25 386.89 114.25 387.81 115.31 387.81 116.63 383.81 110.37 383.52 109.9 383.22 110.37 379.22 116.63 379.22 115.31 380.14 114.25 376.9 114.25 377.67 115.16 377.67 118.25 376.49 119.39 376.49 125.03 374.76 126.96" style="fill:#fff"></polygon></g><rect x="379.02" y="122.05" width="8.95" height="9.92" transform="translate(766.98 254.02) rotate(180)" style="fill:#263238"></rect><path d="M378.59,121.63h9.8v10.76h-9.8Zm9,.85h-8.1v9.07h8.1Z" style="fill:#fff"></path><rect x="384.53" y="122.05" width="0.85" height="9.92" style="fill:#fff"></rect><rect x="381.51" y="122.05" width="0.85" height="9.92" style="fill:#fff"></rect><rect x="379.02" y="126.1" width="8.95" height="0.85" style="fill:#fff"></rect><path d="M387.6,124.84l.73-.43-.94-1.58a1.11,1.11,0,0,0-1-.53,1.08,1.08,0,0,0-.94.55l-.89,1.57.74.42.89-1.57a.26.26,0,0,1,.22-.13.27.27,0,0,1,.22.13Z" style="fill:#fff"></path><path d="M384.63,124.84l.73-.43-.94-1.58a1.11,1.11,0,0,0-1-.53,1.08,1.08,0,0,0-.94.55l-.89,1.57.74.42.89-1.57a.26.26,0,0,1,.22-.13.27.27,0,0,1,.22.13Z" style="fill:#fff"></path><path d="M381.66,124.84l.73-.43-.94-1.58a1.1,1.1,0,0,0-1-.53,1.08,1.08,0,0,0-.95.55l-.89,1.57.74.42.89-1.57a.26.26,0,0,1,.22-.13.27.27,0,0,1,.22.13Z" style="fill:#fff"></path><polygon points="387.72 237.75 392.19 237.75 392.11 237.75 392.11 231.9 387.81 231.9 387.81 237.75 387.72 237.75" style="fill:#263238"></polygon><polygon points="373.74 237.75 378.2 237.75 378.12 237.75 378.12 231.9 373.82 231.9 373.82 237.75 373.74 237.75" style="fill:#263238"></polygon><path d="M387.72,237.75h-.34v-6.27h5.15v6.27h-.33v.43h-4.47Zm4-5.42h-3.45v5h3.45Z" style="fill:#fff"></path><polygon points="386.04 236.17 388.23 236.17 388.23 231.7 391.68 231.7 391.68 236.17 395.07 236.17 395.07 235.32 392.53 235.32 392.53 230.85 387.38 230.85 387.38 235.32 386.04 235.32 386.04 236.17" style="fill:#fff"></polygon><path d="M374,237.75h-.34v-6.27h5.14v6.27h-.33v.43H374Zm3.95-5.42H374.5v5H378Z" style="fill:#fff"></path><polygon points="372.31 236.17 374.5 236.17 374.5 231.7 377.95 231.7 377.95 236.17 380.28 236.17 380.28 235.32 378.8 235.32 378.8 230.85 373.65 230.85 373.65 235.32 372.31 235.32 372.31 236.17" style="fill:#fff"></polygon><rect x="388.15" y="241.18" width="4.3" height="9.92" transform="translate(780.59 492.27) rotate(180)" style="fill:#263238"></rect><path d="M387.72,240.75h5.15v10.77h-5.15Zm4.3.85h-3.45v9.07H392Z" style="fill:#fff"></path><rect x="385.6" y="245.23" width="9.47" height="0.85" style="fill:#fff"></rect><rect x="373.78" y="241.18" width="4.3" height="9.92" transform="translate(751.86 492.27) rotate(180)" style="fill:#263238"></rect><path d="M373.36,240.75h5.14v10.77h-5.14Zm4.3.85h-3.45v9.07h3.45Z" style="fill:#fff"></path><rect x="371.24" y="245.23" width="9.47" height="0.85" style="fill:#fff"></rect><path d="M392.78,254.26h4.8V265h-4.8Zm4,.85h-3.1v9.07h3.1Z" style="fill:#fff"></path><path d="M388.83,254.26h4.8V265h-4.8Zm3.95.85h-3.1v9.07h3.1Z" style="fill:#fff"></path><path d="M382.58,254.26h4.8V265h-4.8Zm3.95.85h-3.1v9.07h3.1Z" style="fill:#fff"></path><path d="M378.63,254.26h4.79V265h-4.79Zm3.94.85h-3.09v9.07h3.09Z" style="fill:#fff"></path><path d="M372.38,254.26h4.8V265h-4.8Zm3.95.85h-3.1v9.07h3.1Z" style="fill:#fff"></path><path d="M368.43,254.26h4.79V265h-4.79Zm3.94.85h-3.09v9.07h3.09Z" style="fill:#fff"></path><polygon points="371.76 152.52 371.76 161.52 374.49 161.52 374.49 157.71 377.4 157.71 377.4 162.48 378.52 162.48 378.52 160.78 388.41 160.78 388.41 162.48 389.54 162.48 389.54 157.71 392.44 157.71 392.44 161.52 394.49 161.52 394.49 152.52 371.76 152.52" style="fill:#2E3A3A"></polygon><g style="opacity:0.7000000000000001"><rect x="392.36" y="153.3" width="1.55" height="3.25" transform="translate(786.27 309.86) rotate(180)" style="fill:#fff"></rect><rect x="392.36" y="157.54" width="1.55" height="3.25" transform="translate(786.27 318.33) rotate(180)" style="fill:#fff"></rect><rect x="372.23" y="153.3" width="1.55" height="3.25" transform="translate(746 309.86) rotate(180)" style="fill:#fff"></rect><rect x="372.23" y="157.54" width="1.55" height="3.25" transform="translate(746 318.33) rotate(180)" style="fill:#fff"></rect><rect x="387.3" y="152.39" width="1.55" height="3.25" transform="translate(776.14 308.04) rotate(180)" style="fill:#fff"></rect><rect x="377.92" y="152.39" width="1.55" height="3.25" transform="translate(757.38 308.04) rotate(180)" style="fill:#fff"></rect><rect x="387.3" y="157.54" width="1.55" height="3.25" style="fill:#fff"></rect><rect x="384.17" y="157.54" width="1.55" height="3.25" style="fill:#fff"></rect><rect x="381.05" y="157.54" width="1.55" height="3.25" style="fill:#fff"></rect><rect x="377.92" y="157.54" width="1.55" height="3.25" style="fill:#fff"></rect><rect x="377" y="155.65" width="13.19" height="0.91" transform="translate(767.19 312.2) rotate(180)" style="fill:#fff"></rect><polygon points="377.38 157.5 389.81 157.5 390.03 157.28 377.15 157.28 377.38 157.5" style="fill:#fff"></polygon></g><g style="opacity:0.2"><rect x="377.59" y="131.97" width="11.85" height="5.92" transform="translate(767.03 269.86) rotate(180)" style="fill:#fff"></rect></g><path d="M338.72,285.49l.34-.55,9.33-15-1.45-.9L339,281.84V267.62h-1.7v14.69c0,.12,0,.8.08,1.19.1,1.23.13,1.64.74,1.81Z" style="fill:#263238"></path><path d="M328.36,284l.35-.53L337.09,270l-1.44-.9-7,11.26V267.68H327v13.4c0,2.5.44,2.63.8,2.74Z" style="fill:#263238"></path><path d="M318,282.5l.36-.53,7.44-12-1.44-.9-6.06,9.74V267.73h-1.7v12.12c0,2.23.5,2.38.8,2.47Z" style="fill:#263238"></path><path d="M307.64,281l.36-.53L314.51,270l-1.45-.89L308,277.35v-9.57h-1.7v10.84c0,2,.54,2.12.79,2.2Z" style="fill:#263238"></path><path d="M297.28,279.51l.4-.55,5.53-8.92-1.44-.9-4.17,6.71v-8h-1.69v9.55c0,1.12.26,1.77.78,1.94Z" style="fill:#263238"></path><path d="M286.92,278l.41-.56,4.59-7.41-1.44-.89-3.22,5.19v-6.46h-1.7v8.26c0,.34.05,1.45.77,1.68Z" style="fill:#263238"></path><path d="M276.55,276.53,277,276l3.65-5.9-1.45-.9-2.27,3.68v-4.91h-1.7v7s0,1.16.76,1.41Z" style="fill:#263238"></path><path d="M266.18,275l.46-.57,2.69-4.39-1.44-.89-1.33,2.16V268h-1.7v5.69a1.3,1.3,0,0,0,.74,1.15Z" style="fill:#263238"></path><path d="M255.48,273.42a1,1,0,0,0,.75-.36l.06-.09,1.75-2.88-1.45-.88-.37.62v-1.78h-1.7v4.41a1,1,0,0,0,.64.91A1.19,1.19,0,0,0,255.48,273.42Z" style="fill:#263238"></path><path d="M348,287.62c-45.93-9.48-95-13.77-96.56-13.91h-2.2v-7.19H349v21.31Zm-97.06-19.4V272h.61c.49,0,49.51,4.27,95.78,13.73V268.22Z" style="fill:#2E3A3A"></path><rect x="249.17" y="266.79" width="108.16" height="3.81" transform="translate(605.64 538.36) rotate(-179.82)" style="fill:#2E3A3A"></rect><g style="opacity:0.2"><rect x="249.17" y="266.79" width="108.16" height="3.81" transform="translate(605.64 538.36) rotate(-179.82)"></rect></g><rect x="418.12" y="268.05" width="36.58" height="7.48" style="fill:#263238"></rect><polygon points="416.17 270.43 418.12 270.44 454.7 270.55 454.7 266.74 445.55 266.71 443.85 266.71 427.33 266.65 425.63 266.65 418.12 266.63 416.18 266.62 416.17 270.43" style="fill:#2E3A3A"></polygon><g style="opacity:0.2"><polygon points="416.17 270.43 418.12 270.44 454.7 270.55 454.7 266.74 445.55 266.71 443.85 266.71 427.33 266.65 425.63 266.65 418.12 266.63 416.18 266.62 416.17 270.43"></polygon></g><rect x="347.67" y="264.6" width="70.45" height="51.85" transform="translate(765.78 581.05) rotate(180)" style="fill:#2E3A3A"></rect><g style="opacity:0.2"><path d="M352.21,298v2.93h61.37V298a10.19,10.19,0,0,0-1.8-5.83c-3-4.34-10.61-11.09-28.89-10.81-18.27-.28-25.89,6.47-28.89,10.8A10.31,10.31,0,0,0,352.21,298Z" style="fill:#fff"></path></g><rect x="409.31" y="272.87" width="3.23" height="3.23" style="fill:#263238"></rect><rect x="390.75" y="272.87" width="3.23" height="3.23" style="fill:#263238"></rect><rect x="372.18" y="272.87" width="3.23" height="3.23" style="fill:#263238"></rect><rect x="353.62" y="272.87" width="3.23" height="3.23" style="fill:#263238"></rect><g style="opacity:0.2"><rect x="347.67" y="300.91" width="70.45" height="15.54" transform="translate(765.78 617.37) rotate(180)"></rect></g><rect x="425.63" y="183.38" width="1.7" height="83.99" style="fill:#263238"></rect><rect x="443.85" y="198.43" width="1.7" height="68.94" style="fill:#263238"></rect><polygon points="444.01 198.92 444.05 198.97 444.16 199.13 445.55 201.09 451.33 209.24 452.63 211.07 454.7 213.99 454.7 211.26 454.85 211.28 454.7 211.06 453.56 209.45 448.41 202.18 445.39 197.93 444.71 198.42 444.7 198.42 444.69 198.43 444.01 198.92" style="fill:#263238"></polygon><polygon points="444.62 210.34 445.11 210.39 445.55 210.43 447.94 210.64 452.63 211.07 454.7 211.26 454.85 211.28 454.7 211.06 454.7 209.55 453.56 209.45 451.33 209.24 445.82 208.74 445.55 208.71 445.16 208.68 444.78 208.64 444.7 209.49 444.65 209.97 444.62 210.34" style="fill:#263238"></polygon><rect x="434.74" y="185.18" width="1.7" height="19.51" transform="translate(97.65 531.88) rotate(-69.02)" style="fill:#263238"></rect><rect x="434.74" y="180.51" width="1.7" height="31.84" transform="translate(-34.03 284.63) rotate(-34.91)" style="fill:#263238"></rect><path d="M404.58,163.53l.38.56a254.52,254.52,0,0,0,20.67,26.63l.79.87.91,1a.47.47,0,0,0,.1.1c5.1,5.62,10.25,10.8,15.37,15.56l1.05,1c.18.17.35.33.53.48l.27.26.46.42.44.39q4.62,4.17,9.15,7.88v-2.2q-3.36-2.78-6.76-5.82l-2.12-1.9-.27-.25c-.48-.43-1-.88-1.44-1.33l-.26-.24c-2-1.86-4-3.79-6-5.8q-3.42-3.37-6.82-7c-.87-.92-1.73-1.85-2.57-2.8-.38-.4-.74-.81-1.1-1.22-.57-.63-1.14-1.28-1.7-1.93-4.45-5.07-8.84-10.5-13.11-16.28,4.27,4.27,8.66,8.35,13.11,12.23.25.23.51.45.77.67l.93.8c1.38,1.2,2.77,2.37,4.16,3.53,2.68,2.22,5.38,4.38,8.07,6.47q2.15,1.66,4.29,3.28l.2.14.32.24h0c.39.3.77.59,1.16.87,1,.71,1.91,1.41,2.86,2.09,2.11,1.53,4.21,3,6.29,4.45v-2.07a322.36,322.36,0,0,1-27-21L427,183a255.57,255.57,0,0,1-21.06-20.52h0l-.73.57-.21.16Z" style="fill:#2E3A3A"></path></g><g id="freepik--Wall--inject-58"><rect x="65.63" y="290.18" width="368.74" height="117.8" rx="3.22" style="fill:#263238"></rect><rect x="65.63" y="290.18" width="368.74" height="117.8" rx="3.22" style="fill:#fff;opacity:0.5"></rect><rect x="69.23" y="297.62" width="56.97" height="33.28" rx="3.05" style="fill:#263238"></rect><rect x="130.26" y="297.62" width="56.97" height="33.28" rx="3.05" style="fill:#263238"></rect><rect x="191.29" y="297.62" width="56.97" height="33.28" rx="3.05" style="fill:#263238"></rect><rect x="252.32" y="297.62" width="56.97" height="33.28" rx="3.05" style="fill:#263238"></rect><rect x="313.34" y="297.62" width="56.97" height="33.28" rx="3.05" style="fill:#263238"></rect><rect x="374.37" y="297.62" width="56.97" height="33.28" rx="3.05" style="fill:#263238"></rect><rect x="69.23" y="370.69" width="56.97" height="33.28" rx="3.05" style="fill:#263238"></rect><rect x="130.26" y="370.69" width="56.97" height="33.28" rx="3.05" style="fill:#263238"></rect><rect x="191.29" y="370.69" width="56.97" height="33.28" rx="3.05" style="fill:#263238"></rect><rect x="252.32" y="370.69" width="56.97" height="33.28" rx="3.05" style="fill:#263238"></rect><rect x="313.34" y="370.69" width="56.97" height="33.28" rx="3.05" style="fill:#263238"></rect><rect x="374.37" y="370.69" width="56.97" height="33.28" rx="3.05" style="fill:#263238"></rect><path d="M93.56,336.84V364a3.06,3.06,0,0,1-3,3.05H69.23V333.79H90.51A3,3,0,0,1,93.56,336.84Z" style="fill:#263238"></path><rect x="98.1" y="333.79" width="56.97" height="33.28" rx="3.05" style="fill:#263238"></rect><rect x="159.61" y="333.79" width="56.97" height="33.28" rx="3.05" style="fill:#263238"></rect><rect x="221.12" y="333.79" width="56.97" height="33.28" rx="3.05" style="fill:#263238"></rect><rect x="282.63" y="333.79" width="56.97" height="33.28" rx="3.05" style="fill:#263238"></rect><rect x="344.14" y="333.79" width="56.97" height="33.28" rx="3.05" style="fill:#263238"></rect><path d="M431.34,333.79v33.28H408.7a3.06,3.06,0,0,1-3.05-3.05V336.84a3,3,0,0,1,3.05-3Z" style="fill:#263238"></path><rect x="65.63" y="290.18" width="368.74" height="117.8" rx="3.22" style="fill:#fff;opacity:0.4"></rect></g><g id="freepik--character-2--inject-58"><path d="M370.54,286.3l-3.18.59,2.61,4.05s5.16.62,5.25-2.52L374,287.31A4.15,4.15,0,0,0,370.54,286.3Z" style="fill:#ffc0ba"></path><path d="M365,290.17l1.13,1.37a1.23,1.23,0,0,0,1.43.36l2.39-1-2.61-4.05-2.08,1.51a1.22,1.22,0,0,0-.32,1.71Z" style="fill:#ffc0ba"></path><path d="M387.26,269.33s-8.22,20.78-13.55,19.82c-.77-1.45-1.37-2.1-.17-3.22,0,0,6.52-14.91,6.16-19.28-.18-2.19-.63-15.34-.52-17.52.18-3.52,6.38-5.44,8.2,1.43C388.15,253.44,387.32,266.35,387.26,269.33Z" style="fill:#ffc0ba"></path><path d="M376.64,240c-1.28,5.81,1.07,12.86,1.07,12.86l12-.78s.1-12.89-3.1-15.11c-2.49-1.72-5.16-2.12-7.35-.78A5.85,5.85,0,0,0,376.64,240Z" style="fill:#263238"></path><polygon points="429.88 332.99 440.99 324.14 437.21 319.4 423.22 329.88 429.88 332.99" style="fill:#ffc0ba"></polygon><path d="M440.81,326.93c2.3-.11,6.36-2.06,9.57,2.37,1.1,1.51,3.22.59,2.21-2.14s-7.45-6.47-9.08-7.81c-2.65-2.16-3.55-2.66-5.62-4.41l-.19-.13a1,1,0,0,0-1.38.44l-2.84,5.61a.64.64,0,0,0,.16.79l6,4.91A1.7,1.7,0,0,0,440.81,326.93Z" style="fill:#2E3A3A"></path><path d="M443.05,328.16c-.17-.9-1.57-1.7-2.39-2.09a.26.26,0,0,0-.15,0,.19.19,0,0,0-.11.25c.15.46,1,2.78,1.81,3a.56.56,0,0,0,.55-.16.64.64,0,0,0,.1-.13A1,1,0,0,0,443.05,328.16Zm-.37.11a.68.68,0,0,1-.19.58.3.3,0,0,1-.19.06c-.38,0-1-1.24-1.36-2.24C442,327.21,442.62,327.78,442.68,328.27Z" style="fill:#2E3A3A"></path><path d="M440.76,326.18a.31.31,0,0,0-.07-.09.19.19,0,0,0-.27.05c-.05.09-1.19,1.75-1,2.79a1,1,0,0,0,.42.62.57.57,0,0,0,.72,0l.11-.12A4.66,4.66,0,0,0,440.76,326.18Zm-.43,3.07s-.1.08-.26,0a.56.56,0,0,1-.25-.38,3.8,3.8,0,0,1,.7-2.1A3.89,3.89,0,0,1,440.33,329.25Z" style="fill:#2E3A3A"></path><polygon points="377.68 396.48 378.73 412.15 385.42 411.7 384.7 392.37 377.68 396.48" style="fill:#ffc0ba"></polygon><path d="M433.69,329.86c-1.33-1.11-3.63-3.41-4.95-4.51-2.1.86-23.05,8.28-27.71,14.22-.18.22-.33.42-.46.6-.48-15.36,3.92-36.08-1.77-50.36A26.12,26.12,0,0,0,386.55,276c-4.65,1.06-9,2-13.64,3.07.7,2.56.44,4.23.55,6.87a153.38,153.38,0,0,0,16.61,63.24,10.87,10.87,0,0,0,12,5.28c4-1.14,7.36-3.91,10.55-6.61l15.81-13.37C429.72,333.4,432.32,330.83,433.69,329.86Z" style="fill:#2E3A3A"></path><path d="M433.69,329.86c-1.33-1.11-3.63-3.41-4.95-4.51-2.1.86-23.05,8.28-27.71,14.22-.18.22-.33.42-.46.6-.48-15.36,3.92-36.08-1.77-50.36A26.12,26.12,0,0,0,386.55,276c-4.65,1.06-9,2-13.64,3.07.7,2.56.44,4.23.55,6.87a153.38,153.38,0,0,0,16.61,63.24,10.87,10.87,0,0,0,12,5.28c4-1.14,7.36-3.91,10.55-6.61l15.81-13.37C429.72,333.4,432.32,330.83,433.69,329.86Z" style="fill:#fff;opacity:0.30000000000000004"></path><path d="M358.82,280.21l18.12,120.64,9.27-.62s.73-18,2.13-25.42-3.53-22-3.53-22l2.76-45.85a47.48,47.48,0,0,0-5.7-25.3c-1.19-2.21-1.8-3.92-.93-4l-22.12,2.63" style="fill:#2E3A3A"></path><path d="M358.82,280.21l18.12,120.64,9.27-.62s.73-18,2.13-25.42-3.53-22-3.53-22l2.76-45.85a47.48,47.48,0,0,0-5.7-25.3c-1.19-2.21-1.8-3.92-.93-4l-22.12,2.63" style="fill:#fff;opacity:0.4"></path><path d="M377.5,411c-1.28,1.92-2.1,6.34-7.57,6.32-1.87,0-2.38,2.25.42,3s9.63-2.18,11.66-2.71c3.32-.85,4.25-1.28,6.89-1.92a.9.9,0,0,0,.21-.08,1,1,0,0,0,.47-1.37l-2.86-5.61a.63.63,0,0,0-.73-.33l-7.53,2A1.67,1.67,0,0,0,377.5,411Z" style="fill:#2E3A3A"></path><path d="M375.18,412.08c.83.4,2.3-.26,3.1-.7a.14.14,0,0,0,.09-.11.19.19,0,0,0-.12-.24c-.48-.15-2.83-.85-3.47-.28a.56.56,0,0,0-.19.54.83.83,0,0,0,0,.15A1,1,0,0,0,375.18,412.08Zm.13-.37a.7.7,0,0,1-.36-.5A.28.28,0,0,1,375,411c.26-.28,1.58-.06,2.61.23C376.6,411.75,375.74,412,375.31,411.71Z" style="fill:#2E3A3A"></path><path d="M378.13,411.4a.24.24,0,0,0,.12,0,.19.19,0,0,0,.11-.25c0-.09-.71-2-1.66-2.43a.9.9,0,0,0-.75,0,.56.56,0,0,0-.43.57,1,1,0,0,0,0,.17A4.67,4.67,0,0,0,378.13,411.4Zm-2.22-2.16s0-.12.18-.19a.55.55,0,0,1,.45,0,3.93,3.93,0,0,1,1.29,1.81C377,410.52,375.94,409.66,375.91,409.24Z" style="fill:#2E3A3A"></path><g id="freepik--group--inject-58"><path d="M374.25,221.83c-.28,4.24-.33,10.37,2.92,12.76a93.08,93.08,0,0,1-9.93,19c-7.79-9.8-2.94-17.32-2.94-17.32,4.47-1.69,4.12-3.54,2.91-6.64Z" style="fill:#ffc0ba"></path><path d="M353.73,246.59c-3.78,13.15,8.34,11.68,5.38,32.78l28.31-3.48c-1.79-10.81-5.17-5.93-3.09-27,.17-1.79.81-9.2-1.7-13.43-1-1.65-17.64-.17-22.34,1.08C355.66,236.51,354.33,244.92,353.73,246.59Z" style="fill:#263238"></path><path d="M386.86,273.54a.5.5,0,0,1,.49.16l1,2.46c.13.19-.09.41-.41.45l-29.15,3.6c-.26,0-.48-.07-.52-.23l.33-2.79c-.05-.17.16-.35.44-.38Z" style="fill:#263238"></path><path d="M362.44,239.87s3.28,1.22,5.74,10.3l1,3.73h0c.32,1.23-4.2,2.38-6.52,1.7h0S365.09,246.84,362.44,239.87Z" style="opacity:0.2"></path><path d="M347.87,287.82l-3.18.59,2.61,4s5.16.63,5.25-2.51l-1.24-1.11A4.15,4.15,0,0,0,347.87,287.82Z" style="fill:#ffc0ba"></path><path d="M342.37,291.69l1.12,1.37a1.24,1.24,0,0,0,1.43.36l2.39-1-2.6-4.05-2.08,1.51a1.22,1.22,0,0,0-.32,1.71Z" style="fill:#ffc0ba"></path><path d="M364.58,270.84s-8.21,20.79-13.54,19.82c-.77-1.44-1.37-2.09-.17-3.21,0,0,6.51-14.91,6.15-19.29-.17-2.18-.62-15.33-.51-17.52.18-3.51,6.38-5.43,8.2,1.43C365.48,255,364.65,267.87,364.58,270.84Z" style="fill:#ffc0ba"></path><path d="M354,241.51c-1.28,5.81,1.07,12.86,1.07,12.86l11.95-.78s.1-12.89-3.1-15.12c-2.5-1.72-5.16-2.12-7.35-.78A5.89,5.89,0,0,0,354,241.51Z" style="fill:#263238"></path><path d="M358.07,217.27c0,.55-.3.95-.64.95s-.62-.44-.62-1,.3-1,.64-.95S358.07,216.74,358.07,217.27Z" style="fill:#263238"></path><path d="M357.6,216.33l-1.26-.38S357,217,357.6,216.33Z" style="fill:#263238"></path><path d="M357.87,218a13.91,13.91,0,0,1-1.94,3.35,2.3,2.3,0,0,0,1.89.38Z" style="fill:#a02724"></path><path d="M356.78,213.35a.31.31,0,0,1-.15-.27.31.31,0,0,1,.31-.31,3.1,3.1,0,0,1,2.54,1.27.31.31,0,1,1-.49.38l0,0a2.46,2.46,0,0,0-2-1A.3.3,0,0,1,356.78,213.35Z" style="fill:#263238"></path><path d="M375.79,215.71c-.49,6.5-.55,9.26-3.88,12.55-5,5-12.9,3-14.35-3.56-1.32-5.87-.31-15.51,6.09-18a8.9,8.9,0,0,1,12.14,9Z" style="fill:#ffc0ba"></path><path d="M357.47,224.29a3.7,3.7,0,0,0,1.32-1.4.14.14,0,0,0-.07-.18.13.13,0,0,0-.17.06,3.61,3.61,0,0,1-1.13,1.23Z" style="fill:#263238"></path><path d="M360,210.88a11.5,11.5,0,0,0,2.16,5.91c2,2.58,3.21-3.14,1.85-.18-1.09,2.39.39,3.73-1,6s-1.87,5.07-.15,7.36c1.25,1.66,3.42-1.21,5.81.82a9.51,9.51,0,0,0,8.43,2.2c7.72-1.9,17.4-8.17,3.31-18.67-.79-1.29-.19-5.22-.95-6.53a8.56,8.56,0,0,0-7.68-4.62C362.11,203.28,360,207,360,210.88Z" style="fill:#263238"></path><path d="M355.49,209.61a2.67,2.67,0,0,0,1.82,3.11A4.41,4.41,0,0,0,363,216c-1.2-.28-1.6-1.87-1.23-3,.68-2.16,3.66-4.9.62-6.53C360.09,205.13,356,207.09,355.49,209.61Z" style="fill:#263238"></path><path d="M366.78,218.76a5.68,5.68,0,0,1-2.1,3.8c-1.57,1.24-3.12,0-3.32-1.86-.19-1.68.41-4.36,2.29-4.86A2.54,2.54,0,0,1,366.78,218.76Z" style="fill:#ffc0ba"></path></g></g><g id="freepik--character-1--inject-58"><path d="M342.21,285.7l-2.88,1.76,4.05,3s5.26-1.31,4.17-4.4l-1.61-.62A4.37,4.37,0,0,0,342.21,285.7Z" style="fill:#cb7a63"></path><path d="M337.79,291.71l1.61.91a1.28,1.28,0,0,0,1.53-.17l2.46-2-4-3-2,2.43a1.27,1.27,0,0,0,.32,1.78Z" style="fill:#cb7a63"></path><path d="M342.83,256.31s7.36,30.69,3.89,31.92a13.76,13.76,0,0,0-3.07-1.88s-15.5-44.53-16.2-46.71c-1.13-3.49,4.19-7.66,8.52-1.66C337.79,240.51,341.79,253.39,342.83,256.31Z" style="fill:#cb7a63"></path><path d="M321.77,232.75c.58,4.21,5.24,10.83,10.9,23,2.61,5.61,8.59,25.69,8.59,25.69l7.15.91s-1.61-16.84-5.18-28.87c-3.39-11.43-7.11-20.16-10.61-24.86a6.38,6.38,0,0,0-7.11-2.4,5.62,5.62,0,0,0-2.59,1.84A6.14,6.14,0,0,0,321.77,232.75Z" style="fill:#2E3A3A"></path><g style="opacity:0.1"><path d="M321.77,232.75c.58,4.21,5.24,10.83,10.9,23,2.61,5.61,8.59,25.69,8.59,25.69l7.15.91s-1.61-16.84-5.18-28.87c-3.39-11.43-7.11-20.16-10.61-24.86a6.38,6.38,0,0,0-7.11-2.4,5.62,5.62,0,0,0-2.59,1.84A6.14,6.14,0,0,0,321.77,232.75Z"></path></g><g style="opacity:0.4"><path d="M321.77,232.75c.58,4.21,5.24,10.83,10.9,23,2.61,5.61,8.59,25.69,8.59,25.69l7.15.91s-1.61-16.84-5.18-28.87c-3.39-11.43-7.11-20.16-10.61-24.86a6.38,6.38,0,0,0-7.11-2.4,5.62,5.62,0,0,0-2.59,1.84A6.14,6.14,0,0,0,321.77,232.75Z" style="fill:#fff"></path></g><polygon points="330.56 395.18 331.66 411.7 338.71 411.22 337.95 390.86 330.56 395.18" style="fill:#cb7a63"></polygon><path d="M310.67,272.64l19.1,127.15,9.77-.66s.77-19,2.25-26.79-3.72-23.22-3.72-23.22l2.9-48.33a50,50,0,0,0-6-26.66,20.55,20.55,0,0,0-3.2-4.26l-21.1,2.77Z" style="fill:#263238"></path><path d="M310.67,272.64l19.1,127.15,9.77-.66s.77-19,2.25-26.79-3.72-23.22-3.72-23.22l2.9-48.33a50,50,0,0,0-6-26.66,20.55,20.55,0,0,0-3.2-4.26l-21.1,2.77Z" style="opacity:0.2"></path><path d="M330.36,410.49c-1.34,2-2.21,6.68-8,6.66-2,0-2.52,2.37.44,3.21s10.14-2.31,12.29-2.86c3.49-.9,4.47-1.35,7.26-2a.9.9,0,0,0,.21-.08,1.08,1.08,0,0,0,.5-1.44l-3-5.92a.66.66,0,0,0-.77-.34l-7.93,2.06A1.74,1.74,0,0,0,330.36,410.49Z" style="fill:#263238"></path><path d="M330.36,410.49c-1.34,2-2.21,6.68-8,6.66-2,0-2.52,2.37.44,3.21s10.14-2.31,12.29-2.86c3.49-.9,4.47-1.35,7.26-2a.9.9,0,0,0,.21-.08,1.08,1.08,0,0,0,.5-1.44l-3-5.92a.66.66,0,0,0-.77-.34l-7.93,2.06A1.74,1.74,0,0,0,330.36,410.49Z" style="opacity:0.2"></path><path d="M331.27,410.65l0-.06a.16.16,0,0,0-.09-.07h0l-.62-.18c-.3-.08-.67-.17-1-.23l-.12,0a2.52,2.52,0,0,0-1.83.14.6.6,0,0,0-.21.57,1,1,0,0,0,0,.17,1.15,1.15,0,0,0,.3.48.92.92,0,0,0,.28.19,2.71,2.71,0,0,0,1.88-.12,8.33,8.33,0,0,0,1.36-.61.18.18,0,0,0,.11-.1s0,0,0,0h0A.17.17,0,0,0,331.27,410.65Zm-1.18.3h0a6.67,6.67,0,0,1-.7.25,1.8,1.8,0,0,1-1.33,0,.71.71,0,0,1-.37-.53c0-.11.05-.15.06-.19.19-.2.86-.16,1.61,0,.29.05.59.12.88.19l.27.07Z" style="fill:#2E3A3A"></path><path d="M331.24,410.59c0-.11-.14-.36-.28-.66a3.91,3.91,0,0,0-1.45-1.85.73.73,0,0,0-.25-.08,1,1,0,0,0-.54.05.6.6,0,0,0-.45.61s0,.11,0,.17a2.3,2.3,0,0,0,.65.86c.12.11.24.22.37.32l.12.09a7.43,7.43,0,0,0,.83.51,3.76,3.76,0,0,0,.75.3.17.17,0,0,0,.12,0,.18.18,0,0,0,.11-.1s0,0,0,0a.15.15,0,0,0,0-.13Zm-2.56-2s0-.13.19-.2a.55.55,0,0,1,.4,0l.07,0a4,4,0,0,1,1.3,1.71l.07.19-.18-.09a5.69,5.69,0,0,1-1.08-.7l-.14-.12A1.68,1.68,0,0,1,328.68,408.63Z" style="fill:#2E3A3A"></path><rect x="326.1" y="397.52" width="15.44" height="4.74" transform="translate(-37.13 34.18) rotate(-5.55)" style="fill:#2E3A3A"></rect><rect x="326.1" y="397.52" width="15.44" height="4.74" transform="translate(-37.13 34.18) rotate(-5.55)" style="opacity:0.2"></rect><polygon points="321.32 395.46 322.41 411.79 329.38 411.32 328.63 391.18 321.32 395.46" style="fill:#cb7a63"></polygon><path d="M301.65,274.24,318.94,400l12.06-.65s.28-16.37,0-26.5c-.2-7.88-2.28-23-2.28-23l2.87-47.8a49.42,49.42,0,0,0-5.94-26.38c-1.23-2.3-1.88-4.09-1-4.21l-23.06,2.74Z" style="fill:#263238"></path><rect x="317.46" y="397.52" width="15.44" height="4.74" transform="translate(-37.17 33.34) rotate(-5.55)" style="fill:#2E3A3A"></rect><path d="M321.12,412.2c-1.32,2-2.18,6.61-7.88,6.58-1.95,0-2.49,2.35.44,3.18s10-2.28,12.15-2.83c3.45-.89,4.42-1.34,7.18-2l.22-.08a1.07,1.07,0,0,0,.49-1.43l-3-5.85a.63.63,0,0,0-.76-.34l-7.85,2A1.77,1.77,0,0,0,321.12,412.2Z" style="fill:#263238"></path><path d="M322,412.35s0,0,0-.05a.14.14,0,0,0-.1-.07l-.65-.2c-.3-.07-.66-.16-1-.22a2.7,2.7,0,0,0-1.93.12.58.58,0,0,0-.2.57.94.94,0,0,0,0,.16,1,1,0,0,0,.57.66,2.62,2.62,0,0,0,1.85-.11,8.74,8.74,0,0,0,1.39-.61s0,0,0,0h0a.1.1,0,0,0,0-.05l0,0a.17.17,0,0,0,0-.07A.13.13,0,0,0,322,412.35Zm-1.19.3a2.59,2.59,0,0,1-2,.29.71.71,0,0,1-.37-.52.29.29,0,0,1,.07-.19c.25-.28,1.44-.09,2.46.16l.26.07Z" style="fill:#2E3A3A"></path><path d="M322,412.35s0,0,0-.05-.13-.35-.27-.66a3.92,3.92,0,0,0-1.44-1.82.93.93,0,0,0-.78,0,.59.59,0,0,0-.45.6,1.16,1.16,0,0,0,0,.18,3.26,3.26,0,0,0,1.12,1.25,6.77,6.77,0,0,0,.83.5,3.13,3.13,0,0,0,.73.3h.12a.12.12,0,0,0,.07-.05h0a.1.1,0,0,0,0-.05.14.14,0,0,0,0-.09A.13.13,0,0,0,322,412.35Zm-2.56-2s0-.13.18-.2a.56.56,0,0,1,.47,0,3.93,3.93,0,0,1,1.27,1.69,1.54,1.54,0,0,1,.08.19l-.18-.09C320.48,411.57,319.5,410.77,319.47,410.36Z" style="fill:#2E3A3A"></path><g id="freepik--group--inject-58"><path d="M315.65,213.65c-.14,4.43,0,10.82,3.49,13.2a96.91,96.91,0,0,1-9.68,20.1C301,237,305.79,229,305.79,229c4.6-1.92,4.17-3.84,2.8-7Z" style="fill:#cb7a63"></path><path d="M324.35,226.8a5.47,5.47,0,0,0-2.43-2.62c-.56-.33-10.54.17-13.62,1.6a6.61,6.61,0,0,0-3.31,3.3Z" style="fill:#2E3A3A"></path><path d="M297.78,231.29c-1.51,4.09,5.57,42.28,5.57,42.28l28.12-3.83,1-23.29c.38-7.06.35-17.72-3.18-20.22-2-1.44-14.68,1.34-21.2,1.34C303.31,227.6,298.4,229.56,297.78,231.29Z" style="fill:#2E3A3A"></path><g style="opacity:0.5"><path d="M297.78,231.29c-1.51,4.09,5.57,42.28,5.57,42.28l28.12-3.83,1-23.29c.38-7.06.35-17.72-3.18-20.22-2-1.44-14.68,1.34-21.2,1.34C303.31,227.6,298.4,229.56,297.78,231.29Z" style="fill:#fff"></path></g><path d="M330.88,267.29a.56.56,0,0,1,.52.16l1.07,2.57c.13.2-.09.43-.43.47l-30.39,3.75c-.27,0-.5-.07-.54-.24l.34-2.9c0-.18.18-.37.46-.4Z" style="fill:#2E3A3A"></path><g style="opacity:0.5"><path d="M330.88,267.29a.56.56,0,0,1,.52.16l1.07,2.57c.13.2-.09.43-.43.47l-30.39,3.75c-.27,0-.5-.07-.54-.24l.34-2.9c0-.18.18-.37.46-.4Z" style="fill:#fff"></path></g><path d="M305.43,232.19l5.72,7.93a3.47,3.47,0,0,1,.59,1.48h0A13.35,13.35,0,0,1,308,252.89c-.93.91-1.86,1.49-2.58,1.28l.2-5.59S308.19,239.46,305.43,232.19Z" style="opacity:0.2"></path><path d="M296.15,286.4l-3.31.62,2.71,4.21s5.38.66,5.48-2.62l-1.29-1.15A4.37,4.37,0,0,0,296.15,286.4Z" style="fill:#cb7a63"></path><path d="M290.42,290.44l1.17,1.42a1.28,1.28,0,0,0,1.49.38l2.49-1L292.85,287l-2.16,1.57a1.28,1.28,0,0,0-.34,1.78Z" style="fill:#cb7a63"></path><path d="M307.66,264.48s-2.65,25.9-8.2,24.89c-.81-1.5-1.43-2.19-.18-3.35,0,0,.88-19.77.5-24.34-.19-2.27-.65-16-.54-18.26.19-3.66,6.65-5.67,8.55,1.49C308.6,247.92,307.73,261.37,307.66,264.48Z" style="fill:#cb7a63"></path><path d="M296.59,233.89c-.91,4.15,1.19,12,2.31,25.39.51,6.17-.78,27.07-.78,27.07h0a5.93,5.93,0,0,0,4.18,2.94l.32.06a2.09,2.09,0,0,0,2.38-1.56c1.13-4.66,4-17.05,4.59-27,.91-14.44,0-25.32-2.65-30-2.6-1.79-5.38-2.21-7.67-.81A6.17,6.17,0,0,0,296.59,233.89Z" style="fill:#2E3A3A"></path><g style="opacity:0.5"><path d="M296.59,233.89c-.91,4.15,1.19,12,2.31,25.39.51,6.17-.78,27.07-.78,27.07h0a5.93,5.93,0,0,0,4.18,2.94l.32.06a2.09,2.09,0,0,0,2.38-1.56c1.13-4.66,4-17.05,4.59-27,.91-14.44,0-25.32-2.65-30-2.6-1.79-5.38-2.21-7.67-.81A6.17,6.17,0,0,0,296.59,233.89Z" style="fill:#fff"></path></g><path d="M300.87,208.62c0,.58-.31,1-.67,1s-.65-.45-.64-1,.31-1,.66-1S300.87,208.07,300.87,208.62Z" style="fill:#263238"></path><path d="M300.66,209.35a14.65,14.65,0,0,1-2,3.49,2.38,2.38,0,0,0,2,.39Z" style="fill:#a02724"></path><path d="M299.52,204.54a.34.34,0,0,1-.16-.28.33.33,0,0,1,.33-.32,3.19,3.19,0,0,1,2.65,1.32.32.32,0,0,1,0,.45.33.33,0,0,1-.46-.05l0,0a2.58,2.58,0,0,0-2.11-1A.34.34,0,0,1,299.52,204.54Z" style="fill:#263238"></path><path d="M319.34,207c-.48,6.41-.56,9.34-3.52,12.55-.16.18-.34.36-.52.54a8.6,8.6,0,0,1-.64.58A9.5,9.5,0,0,1,309,223a8.28,8.28,0,0,1-8.29-5.42,6.57,6.57,0,0,1-.28-.92,2,2,0,0,1-.07-.26l0-.15-.06-.28-.06-.3,0-.18v0a20.27,20.27,0,0,1-.26-2.16c-.06-.71-.08-1.44-.08-2.18,0-.54,0-1.08.07-1.63s.12-1.22.21-1.83a18.49,18.49,0,0,1,.52-2.37c0-.16.08-.32.13-.48s.13-.41.21-.61a12.77,12.77,0,0,1,2.22-4,8.74,8.74,0,0,1,3-2.32,4.83,4.83,0,0,1,.52-.23A9.27,9.27,0,0,1,319.34,207Z" style="fill:#cb7a63"></path><path d="M298.18,200.64a2.78,2.78,0,0,0,1.9,3.24,4.6,4.6,0,0,0,5.95,3.37c-1.25-.29-1.66-1.95-1.28-3.17.71-2.25,3.81-5.1.64-6.81C303,196,298.7,198,298.18,200.64Z" style="fill:#263238"></path><path d="M324.35,206.06c-1,3.49-1.68,2.05-1.75,4.65a2.32,2.32,0,0,1-.51,2.48c-.54.58-2,1.18-2.09,2-.86,5.58-2.65,4.58-4.87,5.42a2.39,2.39,0,0,1-3-1.72c-.55.32-.32,1.17,0,1.71a2.23,2.23,0,0,1-2.75-1,4.36,4.36,0,0,1-.35-3.16,1.47,1.47,0,0,0-.63,1.77,1.42,1.42,0,0,1-1.1-.8,2.82,2.82,0,0,1-.26-1.38,6.15,6.15,0,0,1,2.32-4.6h-.14c0-.32-.78-3.2-.68-3.21a2.23,2.23,0,0,0-1.83,2.88,5.52,5.52,0,0,1-1.55-8.27.15.15,0,0,0,.19-.15,2.93,2.93,0,0,1-2.25-3.1,4.36,4.36,0,0,1,2.31-3.32,13.21,13.21,0,0,1,4.06-1.59c5.73-.94,8.79,1.41,10.51,3C323.42,199.15,325.22,203.13,324.35,206.06Z" style="fill:#263238"></path><path d="M305.3,202.69l-.09.12a.08.08,0,0,1-.06,0C305.08,202.65,305.21,202.6,305.3,202.69Z" style="fill:#263238"></path><path d="M310,210.18a5.94,5.94,0,0,1-2.19,4c-1.63,1.29-3.25,0-3.46-1.94-.19-1.76.43-4.56,2.39-5.08A2.66,2.66,0,0,1,310,210.18Z" style="fill:#cb7a63"></path><path d="M302.67,214.32a3.26,3.26,0,0,1-.46,1.92h0a5.72,5.72,0,0,1-.37.46,3.87,3.87,0,0,1-.84.67l-.29.16h0a6.57,6.57,0,0,1-.28-.92,2,2,0,0,1-.07-.26l0-.15-.06-.28-.06-.3,0-.18.59-.28.62-.29,1.12-.49Z" style="fill:#263238"></path><path d="M302.21,216.24h0a5.72,5.72,0,0,1-.37.46,3.87,3.87,0,0,1-.84.67l-.29.16h0a6.57,6.57,0,0,1-.28-.92,4,4,0,0,1,.47-.21A2.18,2.18,0,0,1,302.21,216.24Z" style="fill:#9d2724"></path><path d="M300.79,215.14l.6-.28c.37-.17.73-.33,1.1-.48v0a1.18,1.18,0,0,1-.59.89c-.52.33-1,.65-1.59.93l-.06-.28-.06-.3,0-.18v0l.64-.3Z" style="fill:#fafafa"></path></g></g></svg>