<svg xmlns="http://www.w3.org/2000/svg" viewBox="0 0 500 500"><g id="freepik--background-complete--inject-34"><path d="M46.57,215.72c5.28,0,137-.92,174.15-.92,2.61,0-.68-4.5-2.12-4.81-4.57-1-9.33-1.06-14-1.54a45.4,45.4,0,0,1-13.33-3.34c-3.66-1.54-7.31-3.33-11.28-4-7.66-1.2-14.38,3-21.57,4.79a16.24,16.24,0,0,1-13.06-1.79c-3.32-2-6.34-4.38-9.82-6.14a53.86,53.86,0,0,0-43-2,49.73,49.73,0,0,0-9.41,4.82c-3.51,2.3-6.54,5.24-10.06,7.52-7.8,5.05-17.44,3.4-25.95,6.3C46.64,214.84,46.12,215.72,46.57,215.72Z" style="fill:#ebebeb"></path><path d="M310.54,243.54c7,0,124.38.78,131.76.54a.57.57,0,0,0,.28-1.05c-4.65-2.31-9.92-1.85-14.76-3.47-2.84-1-4.59-2.82-6.56-4.95a13.53,13.53,0,0,0-6.11-4,12.83,12.83,0,0,0-6.65-.21c-2.38.57-4.45,1.93-6.72,2.79-5.64,2.13-11.12.11-15.15-4.07-3.32-3.44-6.59-6.68-11.1-8.53a14.71,14.71,0,0,0-11.76-.17c-4.31,1.95-7.26,5.88-11.31,8.24-4.79,2.8-10.53,2.14-15.82,3s-9.36,5.31-14,7.88a10,10,0,0,1-5.06,1.56,29.43,29.43,0,0,1-3.09-.43c-1.59-.2-3.11-.15-4.19,1.18C310,242.17,310.08,243.54,310.54,243.54Z" style="fill:#ebebeb"></path><path d="M43.77,91.41c5.09,0,90.8.56,96.19.39.39,0,.6-.58.21-.77-3.39-1.68-7.25-1.34-10.78-2.53-2.07-.7-3.35-2.06-4.79-3.62A10,10,0,0,0,120.14,82a9.39,9.39,0,0,0-4.85-.15,40.34,40.34,0,0,0-4.91,2c-4.12,1.55-8.12.08-11.06-3-2.43-2.51-4.81-4.88-8.11-6.23a10.72,10.72,0,0,0-8.58-.12c-3.15,1.42-5.3,4.29-8.26,6-3.5,2-7.68,1.56-11.55,2.18S56,86.6,52.6,88.48a7.31,7.31,0,0,1-3.7,1.14,21.37,21.37,0,0,1-2.25-.32,3.07,3.07,0,0,0-3.06.87C43.4,90.4,43.43,91.41,43.77,91.41Z" style="fill:#ebebeb"></path><path d="M170.53,59.77c5.1,0,90.81.56,96.2.39.38,0,.59-.58.21-.77-3.4-1.68-7.25-1.35-10.78-2.53-2.08-.7-3.35-2.06-4.79-3.62a9.92,9.92,0,0,0-4.46-2.91,9.43,9.43,0,0,0-4.86-.15,40.34,40.34,0,0,0-4.91,2c-4.11,1.55-8.12.07-11.06-3-2.42-2.52-4.8-4.89-8.1-6.24a10.78,10.78,0,0,0-8.59-.12c-3.14,1.43-5.3,4.29-8.25,6-3.5,2.05-7.69,1.57-11.55,2.18s-6.84,3.88-10.23,5.75a7.29,7.29,0,0,1-3.7,1.15c-.75,0-1.5-.23-2.25-.32a3.09,3.09,0,0,0-3.06.86C170.16,58.76,170.2,59.77,170.53,59.77Z" style="fill:#ebebeb"></path><path d="M245.31,206.23c5.09,0,90.8.56,96.19.39.39,0,.6-.58.21-.77-3.39-1.68-7.25-1.35-10.77-2.54-2.08-.69-3.36-2.05-4.8-3.61a9.81,9.81,0,0,0-4.46-2.91,9.39,9.39,0,0,0-4.85-.15c-1.74.41-3.25,1.41-4.91,2-4.12,1.56-8.12.08-11.06-3-2.43-2.51-4.81-4.88-8.11-6.23a10.76,10.76,0,0,0-8.58-.12c-3.15,1.43-5.3,4.29-8.26,6-3.5,2-7.68,1.57-11.55,2.18s-6.83,3.88-10.22,5.75a7.32,7.32,0,0,1-3.7,1.15c-.76,0-1.5-.23-2.25-.32a3.09,3.09,0,0,0-3.06.86C244.94,205.22,245,206.23,245.31,206.23Z" style="fill:#ebebeb"></path><path d="M322.54,142.88c.1.28,135.09,0,133.39,0-.78,0,1.18-1.17.42-1.54-4.39-2.18-9.2-2.24-14-2.68a21.52,21.52,0,0,1-8.17-2c-2.54-1.33-4.13-3.64-5.94-5.78a25.35,25.35,0,0,0-23.05-8.73c-9.6,1.5-17.16,8.81-26.78,10.16-5.77.81-11.24-1.43-16.88-2.22a20.7,20.7,0,0,0-12.68,2.32c-3,1.51-5.86,2.78-9.3,3-2.64.19-5.3-.11-7.95-.14A17.82,17.82,0,0,0,319.92,140C319.49,140.35,318.13,142.88,322.54,142.88Z" style="fill:#ebebeb"></path><path d="M248.75,309.73c4.47.2,8.93.66,13.38,1.19s8.87,1.17,13.29,1.92,8.8,1.62,13.14,2.69a72.66,72.66,0,0,1,12.73,4.18,23.45,23.45,0,0,1,2.95,1.62,9.74,9.74,0,0,1,2.51,2.24,3.88,3.88,0,0,1,.79,3.23,6,6,0,0,1-1.85,2.81,23.71,23.71,0,0,1-5.66,3.57c-2,1-4.11,1.77-6.21,2.53-8.44,3-17.22,4.82-25.77,7.35s-17.07,5.16-25.33,8.46a101.05,101.05,0,0,0-12,5.62,42.4,42.4,0,0,0-5.47,3.61,13.3,13.3,0,0,0-4.07,4.8,4.75,4.75,0,0,0-.29,2.92,6,6,0,0,0,1.47,2.63,17.67,17.67,0,0,0,5.33,3.59,66.3,66.3,0,0,0,12.58,4.17q13.05,3,26.28,5.24c35.19,6.37,70.68,11.27,105.81,18.1,8.77,1.78,17.53,3.63,26.13,6.09l3.2,1c1.06.35,2.15.63,3.18,1.06l6.24,2.41c2.11.74,4.1,1.75,6.13,2.66s4.08,1.81,6,2.92a88.87,88.87,0,0,1,21.58,15.25l2.31,2.35c.74.81,1.42,1.67,2.13,2.5l1.05,1.25.95,1.33c.61.91,1.31,1.75,1.84,2.7s1.15,1.85,1.63,2.82,1,1.92,1.39,2.93l.61,1.5c.18.51.33,1,.5,1.54a18.59,18.59,0,0,1,.73,3.14,18.79,18.79,0,0,0-.76-3.13c-.17-.51-.33-1-.52-1.53l-.62-1.5c-.38-1-.95-1.94-1.41-2.91s-1.11-1.86-1.66-2.8-1.24-1.78-1.86-2.67l-.95-1.32-1.07-1.24c-.71-.83-1.39-1.68-2.14-2.47l-2.32-2.32a88.34,88.34,0,0,0-21.64-15c-1.93-1.09-4-2-6-2.88s-4-1.9-6.12-2.63l-6.23-2.38c-1-.43-2.1-.71-3.16-1.05l-3.19-1c-8.57-2.43-17.33-4.25-26.09-6C337.09,396.1,301.6,391.31,266.35,385q-13.22-2.35-26.31-5.33a67.27,67.27,0,0,1-12.75-4.27,18.45,18.45,0,0,1-5.58-3.81,6.78,6.78,0,0,1-1.65-3,5.45,5.45,0,0,1,.34-3.38,14,14,0,0,1,4.32-5.1,41.08,41.08,0,0,1,5.59-3.67,103.5,103.5,0,0,1,12.13-5.64c8.3-3.28,16.83-6,25.42-8.4s17.37-4.3,25.76-7.26c2.09-.75,4.16-1.55,6.16-2.49a22.91,22.91,0,0,0,5.53-3.46,5.53,5.53,0,0,0,1.71-2.55,3.4,3.4,0,0,0-.69-2.84,9.33,9.33,0,0,0-2.38-2.12,24.24,24.24,0,0,0-2.87-1.6,72.24,72.24,0,0,0-12.61-4.26c-4.32-1.11-8.7-2-13.1-2.8s-8.82-1.47-13.26-2S253.22,310,248.75,309.73Z" style="fill:#ebebeb"></path><path d="M270.91,309.73c8.44.41,16.86,1.25,25.26,2.18s16.77,2.07,25.1,3.48c4.17.71,8.32,1.52,12.43,2.46a105.08,105.08,0,0,1,12.19,3.45,32.26,32.26,0,0,1,5.75,2.67,10,10,0,0,1,2.46,2,3.43,3.43,0,0,1,.84,3.08,5.46,5.46,0,0,1-1.85,2.62,15.64,15.64,0,0,1-2.63,1.79,42.19,42.19,0,0,1-5.78,2.6,121.54,121.54,0,0,1-12.11,3.68l-12.26,3.12L295.8,349.1c-8.17,2.11-16.32,4.25-24.39,6.62-4,1.19-8.05,2.43-12,3.83-2,.7-3.93,1.44-5.84,2.26a30.07,30.07,0,0,0-5.44,2.9,5,5,0,0,0-1.85,2.05c-.29.75.25,1.49,1.06,2A19.41,19.41,0,0,0,253,371a116,116,0,0,0,12.4,2.18c8.36,1.11,16.77,2,25.18,2.72,16.83,1.52,33.69,2.81,50.5,4.6s33.58,4,50.14,7.4,32.87,8,48.17,14.95C424,396,407.64,391.65,391.12,388.36s-33.3-5.49-50.1-7.22-33.67-3-50.51-4.43c-8.42-.74-16.84-1.55-25.23-2.64a117.25,117.25,0,0,1-12.53-2.17,19.71,19.71,0,0,1-6-2.34,4.05,4.05,0,0,1-1.22-1.25,2.24,2.24,0,0,1-.19-1.84,5.82,5.82,0,0,1,2.2-2.51,31.4,31.4,0,0,1,5.64-3c1.94-.83,3.92-1.57,5.91-2.27,4-1.39,8-2.63,12.07-3.81,8.1-2.34,16.27-4.46,24.44-6.54l24.54-6.14,12.26-3.08a121.4,121.4,0,0,0,12.06-3.63,42.2,42.2,0,0,0,5.7-2.53,15.42,15.42,0,0,0,2.53-1.72,4.85,4.85,0,0,0,1.67-2.32,2.83,2.83,0,0,0-.72-2.58,9.2,9.2,0,0,0-2.31-1.92,31.18,31.18,0,0,0-5.64-2.63,103.45,103.45,0,0,0-12.1-3.47c-4.1-.95-8.24-1.76-12.39-2.51-8.3-1.49-16.67-2.68-25.05-3.7S279.35,310.22,270.91,309.73Z" style="fill:#ebebeb"></path><path d="M343.74,309.73c7.18.33,14.35,1,21.5,1.74s14.29,1.61,21.41,2.68,14.19,2.32,21.19,4a100.51,100.51,0,0,1,10.37,3,40.27,40.27,0,0,1,5,2.11,10.67,10.67,0,0,1,4.22,3.41,3.18,3.18,0,0,1,.33,2.75,5.54,5.54,0,0,1-1.62,2.24,19.74,19.74,0,0,1-4.59,2.87,71.71,71.71,0,0,1-10.12,3.71c-3.45,1-6.94,1.9-10.42,2.77s-7,1.7-10.47,2.51c-14,3.23-28.06,6.15-42.14,9-7,1.42-14.08,2.83-21.1,4.33-3.51.75-7,1.52-10.49,2.36s-7,1.72-10.31,2.89a23.79,23.79,0,0,0-2.43,1,7.59,7.59,0,0,0-1.09.63c-.32.23-.61.54-.61.74s.23.45.58.65a7.63,7.63,0,0,0,1.16.49,21.31,21.31,0,0,0,2.56.65c3.49.68,7.07,1,10.65,1.34l21.47,2.09c14.31,1.46,28.6,3.23,42.73,5.93q10.58,2.08,21,4.84T423,386.79c-6.78-2.3-13.64-4.38-20.58-6.19s-14-3.31-21-4.62c-14.13-2.61-28.4-4.36-42.71-5.75l-21.47-2c-3.58-.33-7.18-.64-10.74-1.32a23,23,0,0,1-2.66-.66,7.39,7.39,0,0,1-1.3-.56,2.48,2.48,0,0,1-.62-.47,1.18,1.18,0,0,1-.35-.85,1.93,1.93,0,0,1,.91-1.31,8.38,8.38,0,0,1,1.21-.72,26.19,26.19,0,0,1,2.52-1c3.4-1.2,6.89-2.09,10.38-3s7-1.64,10.51-2.41c7-1.52,14.05-3,21.09-4.4,14.07-2.88,28.15-5.69,42.14-8.88,3.49-.8,7-1.62,10.47-2.47s7-1.71,10.39-2.72a71.36,71.36,0,0,0,10-3.63,19.54,19.54,0,0,0,4.43-2.73,5.12,5.12,0,0,0,1.44-2,2.58,2.58,0,0,0-.26-2.22,10.21,10.21,0,0,0-3.95-3.17,37.57,37.57,0,0,0-4.87-2.09,100.23,100.23,0,0,0-10.29-3c-7-1.67-14-2.94-21.13-4.05s-14.22-2.09-21.36-2.92S350.92,310.14,343.74,309.73Z" style="fill:#ebebeb"></path><path d="M226.44,309.73c4.28.19,8.56.63,12.82,1.12s8.51,1.11,12.74,1.81,8.45,1.52,12.63,2.49a88.85,88.85,0,0,1,12.3,3.7,26.2,26.2,0,0,1,5.69,3,7.84,7.84,0,0,1,2.21,2.34,3.57,3.57,0,0,1,.2,3.18,7.26,7.26,0,0,1-2,2.54,19.18,19.18,0,0,1-2.64,1.84,43.39,43.39,0,0,1-5.79,2.78c-8,3.19-16.36,5.11-24.64,7.26-16.58,4.28-33.17,8.53-49.52,13.52a202.4,202.4,0,0,0-24,8.69,49.46,49.46,0,0,0-5.57,3,19.07,19.07,0,0,0-2.49,1.84,6.81,6.81,0,0,0-1.82,2.29,2.55,2.55,0,0,0,.23,2.57,6.9,6.9,0,0,0,2.23,1.93,27.35,27.35,0,0,0,5.79,2.39c33.26,7.88,66.92,14.81,100,23.81,8.26,2.27,16.48,4.67,24.58,7.44a149.18,149.18,0,0,1,23.52,10.1,88.05,88.05,0,0,1,20.42,15,56.09,56.09,0,0,1,7.76,9.85,32.27,32.27,0,0,1,4.55,11.48,32.14,32.14,0,0,0-4.67-11.41,55.5,55.5,0,0,0-7.85-9.73,89.3,89.3,0,0,0-20.47-14.75,148,148,0,0,0-23.46-10c-8.09-2.73-16.31-5.11-24.57-7.35C258,398,241.36,394.1,224.65,390.31l-25.08-5.62L187,381.85l-6.26-1.43c-2.09-.47-4.2-1-6.25-1.61a28.53,28.53,0,0,1-6-2.5,7.83,7.83,0,0,1-2.5-2.2,3.49,3.49,0,0,1-.59-1.63,3.39,3.39,0,0,1,.3-1.7,7.52,7.52,0,0,1,2-2.58,21,21,0,0,1,2.6-1.92,49.76,49.76,0,0,1,5.68-3,205,205,0,0,1,24.16-8.67c16.4-5,33-9.16,49.61-13.39,8.28-2.13,16.66-4,24.58-7.17a43.62,43.62,0,0,0,5.73-2.73,17.7,17.7,0,0,0,2.56-1.78,6.64,6.64,0,0,0,1.86-2.35,3.13,3.13,0,0,0-.17-2.78,7.45,7.45,0,0,0-2.06-2.21,25.77,25.77,0,0,0-5.56-3,87.24,87.24,0,0,0-12.22-3.77c-4.16-1-8.36-1.85-12.58-2.59s-8.47-1.37-12.72-1.91S230.72,310,226.44,309.73Z" style="fill:#ebebeb"></path><path d="M122.49,309.73c4.47.2,8.93.66,13.38,1.19s8.87,1.17,13.29,1.92,8.8,1.62,13.14,2.69A72.66,72.66,0,0,1,175,319.71a23.45,23.45,0,0,1,2.95,1.62,9.74,9.74,0,0,1,2.51,2.24,3.88,3.88,0,0,1,.79,3.23,6,6,0,0,1-1.85,2.81,23.71,23.71,0,0,1-5.66,3.57c-2,1-4.11,1.77-6.21,2.53-8.44,3-17.22,4.82-25.77,7.35s-17.07,5.16-25.32,8.46a101.19,101.19,0,0,0-12,5.62A42.4,42.4,0,0,0,99,360.75a13.3,13.3,0,0,0-4.07,4.8,4.75,4.75,0,0,0-.29,2.92,6,6,0,0,0,1.47,2.63,17.67,17.67,0,0,0,5.33,3.59A66.3,66.3,0,0,0,114,378.86q13.05,3,26.28,5.24c35.19,6.37,70.68,11.27,105.81,18.1,8.77,1.78,17.53,3.63,26.13,6.09l3.2,1c1.06.35,2.15.63,3.18,1.06l6.24,2.41c2.11.74,4.1,1.75,6.13,2.66s4.08,1.81,6,2.92a88.68,88.68,0,0,1,21.58,15.25l2.31,2.35c.74.81,1.42,1.67,2.13,2.5L324,439.7,325,441c.61.91,1.32,1.75,1.84,2.7s1.15,1.85,1.63,2.82,1,1.92,1.39,2.93l.61,1.5c.18.51.33,1,.5,1.54a18.59,18.59,0,0,1,.73,3.14,18.79,18.79,0,0,0-.76-3.13c-.17-.51-.33-1-.52-1.53l-.62-1.5c-.38-1-1-1.94-1.41-2.91s-1.11-1.86-1.66-2.8-1.24-1.78-1.86-2.67l-.95-1.32-1.06-1.24c-.72-.83-1.4-1.68-2.15-2.47l-2.32-2.32a88.34,88.34,0,0,0-21.64-15c-1.93-1.09-4-2-6-2.88s-4-1.9-6.11-2.63l-6.24-2.38c-1-.43-2.1-.71-3.16-1.05l-3.19-1c-8.57-2.43-17.33-4.25-26.09-6-35.13-6.72-70.62-11.51-105.87-17.78q-13.22-2.35-26.31-5.33A67.27,67.27,0,0,1,101,375.44a18.45,18.45,0,0,1-5.58-3.81,6.78,6.78,0,0,1-1.65-3,5.45,5.45,0,0,1,.34-3.38,14,14,0,0,1,4.32-5.1,41.08,41.08,0,0,1,5.59-3.67,103.5,103.5,0,0,1,12.13-5.64c8.3-3.28,16.83-6,25.43-8.4s17.36-4.3,25.75-7.26c2.09-.75,4.16-1.55,6.16-2.49a22.91,22.91,0,0,0,5.53-3.46,5.53,5.53,0,0,0,1.71-2.55,3.4,3.4,0,0,0-.69-2.84,9.33,9.33,0,0,0-2.38-2.12,24.24,24.24,0,0,0-2.87-1.6,72.24,72.24,0,0,0-12.61-4.26c-4.32-1.11-8.7-2-13.1-2.8s-8.82-1.47-13.26-2S127,310,122.49,309.73Z" style="fill:#ebebeb"></path><path d="M103.06,309.73c4.29.19,8.57.63,12.83,1.12s8.51,1.11,12.74,1.81,8.45,1.52,12.63,2.49a88.85,88.85,0,0,1,12.3,3.7,26.2,26.2,0,0,1,5.69,3,7.84,7.84,0,0,1,2.21,2.34,3.57,3.57,0,0,1,.2,3.18,7.26,7.26,0,0,1-2,2.54,19.18,19.18,0,0,1-2.64,1.84,43.39,43.39,0,0,1-5.79,2.78c-8,3.19-16.36,5.11-24.64,7.26-16.58,4.28-33.17,8.53-49.52,13.52a202.4,202.4,0,0,0-24,8.69,49.46,49.46,0,0,0-5.57,3A19.07,19.07,0,0,0,45,368.8a6.81,6.81,0,0,0-1.82,2.29,2.55,2.55,0,0,0,.23,2.57,6.9,6.9,0,0,0,2.23,1.93A27.35,27.35,0,0,0,51.42,378c33.26,7.88,66.92,14.81,100,23.81,8.26,2.27,16.48,4.67,24.58,7.44a149.18,149.18,0,0,1,23.52,10.1,88.05,88.05,0,0,1,20.42,15,56.09,56.09,0,0,1,7.76,9.85,32.27,32.27,0,0,1,4.55,11.48,32.14,32.14,0,0,0-4.67-11.41,55.5,55.5,0,0,0-7.85-9.73,89.3,89.3,0,0,0-20.47-14.75,148,148,0,0,0-23.46-10c-8.09-2.73-16.31-5.11-24.57-7.35C134.67,398,118,394.1,101.28,390.31L76.2,384.69l-12.54-2.84-6.26-1.43c-2.09-.47-4.2-1-6.25-1.61a28.53,28.53,0,0,1-6-2.5,7.83,7.83,0,0,1-2.5-2.2,3.49,3.49,0,0,1-.59-1.63,3.39,3.39,0,0,1,.3-1.7,7.52,7.52,0,0,1,2-2.58,20.27,20.27,0,0,1,2.6-1.92,49.76,49.76,0,0,1,5.68-3,205,205,0,0,1,24.16-8.67c16.4-5,33-9.16,49.61-13.39,8.28-2.13,16.66-4,24.58-7.17a43.62,43.62,0,0,0,5.73-2.73,17.7,17.7,0,0,0,2.56-1.78,6.64,6.64,0,0,0,1.86-2.35,3.13,3.13,0,0,0-.17-2.78,7.45,7.45,0,0,0-2.06-2.21,26,26,0,0,0-5.56-3,87.24,87.24,0,0,0-12.22-3.77c-4.16-1-8.36-1.85-12.58-2.59s-8.47-1.37-12.72-1.91S107.35,310,103.06,309.73Z" style="fill:#ebebeb"></path></g><g id="freepik--Sun--inject-34"><circle cx="310.13" cy="91.84" r="34.28" transform="matrix(0.21, -0.98, 0.98, 0.21, 154.36, 375.3)" style="fill:#2E3A3A;opacity:0.4"></circle><circle cx="310.13" cy="91.84" r="28.4" transform="translate(146.07 370.58) rotate(-76.01)" style="fill:#2E3A3A"></circle></g><g id="freepik--Mountains--inject-34"><path d="M120.2,289.94l73.89-4.05,30-12.48,39.1-7.42,20.28-12.15,3-11.13h6.75l5.4,1.44,4.72-5.83V220.78L305.09,208V194.8l6.41-3v13.83l-1.35,17.89,3.37,12.14,10.46,2.7-1.68-40.49L329,152.29h8.46l3-3.38,27.66,6.41,4.73,3.71,9.44.68,4.73,45.88,2,10.8v19.23l4.39,2,4.38-3V199.52l.93-6.92,4.89,5.15s-.25,11,0,11.3.68,10.38.68,10.38l.76,16.36,3.79-3.46v-4.55l.68-11.56,4,1.52v10l.93,7,8.43,10.12,3.72,6.24,2.3,16.53,17.55,14.51,20.24,7.76Z" style="fill:#2E3A3A"></path><path d="M120.2,289.94l73.89-4.05,30-12.48,39.1-7.42,20.28-12.15,3-11.13h6.75l5.4,1.44,4.72-5.83V220.78L305.09,208V194.8l6.41-3v13.83l-1.35,17.89,3.37,12.14,10.46,2.7-1.68-40.49L329,152.29h8.46l3-3.38,27.66,6.41,4.73,3.71,9.44.68,4.73,45.88,2,10.8v19.23l4.39,2,4.38-3V199.52l.93-6.92,4.89,5.15s-.25,11,0,11.3.68,10.38.68,10.38l.76,16.36,3.79-3.46v-4.55l.68-11.56,4,1.52v10l.93,7,8.43,10.12,3.72,6.24,2.3,16.53,17.55,14.51,20.24,7.76Z" style="opacity:0.4"></path><path d="M33.65,289.94s17.2-11.09,20.28-11.09,20.79-6.66,20.79-6.66,5.14-37.71,5.14-39.3V211.66l-1.54-12,1.54-13h2.56l-.7,11.57s4.1,5.86,4.17,6.18.77,18.78.77,18.78l4.68,5.46,1.54-30.82,2.44-4.12V157.22l4.24-5.54L120.22,146l3.85,3.09,2.7-5.39,12.07,4.84,1.28,45.16,4.88,6,.32-22.58,1.86-4.59,2.18-.32.26,16.08,4,17.12.58,31.85,4.25,9.91,6.94-5.18,10.69,3.8L177,260l18.65,15,5.39,7.6,27.73,7.29Z" style="fill:#2E3A3A"></path><path d="M33.65,289.94s17.2-11.09,20.28-11.09,20.79-6.66,20.79-6.66,5.14-37.71,5.14-39.3V211.66l-1.54-12,1.54-13h2.56l-.7,11.57s4.1,5.86,4.17,6.18.77,18.78.77,18.78l4.68,5.46,1.54-30.82,2.44-4.12V157.22l4.24-5.54L120.22,146l3.85,3.09,2.7-5.39,12.07,4.84,1.28,45.16,4.88,6,.32-22.58,1.86-4.59,2.18-.32.26,16.08,4,17.12.58,31.85,4.25,9.91,6.94-5.18,10.69,3.8L177,260l18.65,15,5.39,7.6,27.73,7.29Z" style="opacity:0.4"></path><polygon points="466.35 289.94 462.98 265.26 457.95 258.83 451.45 271.47 441.25 270.02 435.64 261.85 430.04 255.97 418.33 255.97 420.81 260.45 412.14 264.64 380.82 267.58 358.16 271.08 339.14 266.6 338.02 261.85 336.9 261.01 336.34 257.37 335.22 258.21 335.22 260.19 334.66 260.45 334.1 256.81 332.43 256.53 331.59 260.73 330.75 260.45 328.79 257.37 320.12 255.13 313.13 260.17 294.11 265.2 252.71 269.12 234.25 266.6 225.02 269.4 198.84 267.58 189.41 271.08 181.1 268.84 179.15 266.88 180.26 265.2 175.79 266.04 174.11 268.84 173.27 268.28 172.99 266.6 172.43 266.6 172.14 267.72 171.03 268.84 150.62 267.72 143.62 270.24 115.04 264.92 103.31 268.75 98.59 263.99 90.36 262.81 77.56 278.08 46.64 280.15 33.65 289.94 466.35 289.94 466.35 289.94" style="fill:#2E3A3A"></polygon><polygon points="466.35 289.94 462.98 265.26 457.95 258.83 451.45 271.47 441.25 270.02 435.64 261.85 430.04 255.97 418.33 255.97 420.81 260.45 412.14 264.64 380.82 267.58 358.16 271.08 339.14 266.6 338.02 261.85 336.9 261.01 336.34 257.37 335.22 258.21 335.22 260.19 334.66 260.45 334.1 256.81 332.43 256.53 331.59 260.73 330.75 260.45 328.79 257.37 320.12 255.13 313.13 260.17 294.11 265.2 252.71 269.12 234.25 266.6 225.02 269.4 198.84 267.58 189.41 271.08 181.1 268.84 179.15 266.88 180.26 265.2 175.79 266.04 174.11 268.84 173.27 268.28 172.99 266.6 172.43 266.6 172.14 267.72 171.03 268.84 150.62 267.72 143.62 270.24 115.04 264.92 103.31 268.75 98.59 263.99 90.36 262.81 77.56 278.08 46.64 280.15 33.65 289.94 466.35 289.94 466.35 289.94" style="opacity:0.6000000000000001"></polygon></g><g id="freepik--Floor--inject-34"><polygon points="32.99 289.94 87.24 289.7 141.5 289.61 250 289.44 358.5 289.61 412.76 289.7 467.01 289.94 412.76 290.19 358.5 290.27 250 290.44 141.5 290.27 87.24 290.19 32.99 289.94" style="fill:#263238"></polygon></g><g id="freepik--Cactus--inject-34"><path d="M418,365.92h17.87l2.41-75.35,20.15-14.73L462,217.7l-2.21-5.57-6-1.45-4.55,2.9-1.61,5.7-1.52,48.63-7.68,5.52,1.12-95s-4.29-6.56-4.79-7.06-7.34-1.74-7.34-1.74l-8.09,2.7-3.56,7.13V247.1l-5.4-3-2.49-39.85-1.25-2.84-4.35-2.91-5.85,2.91L394.23,205l2.62,42.68,1.12,2.87,3.86,4.85L416,263.65Z" style="fill:#37474f"></path><path d="M404.3,365.92c3.57-.21,7.13-.3,10.7-.38s7.13-.11,10.7-.12,7.13,0,10.69.11l5.35.14c1.78.09,3.57.14,5.35.25-1.78.11-3.57.16-5.35.24l-5.35.14c-3.56.09-7.13.11-10.69.12s-7.14,0-10.7-.12S407.87,366.13,404.3,365.92Z" style="fill:#263238"></path><path d="M56.76,365.92H70.87L72.78,338,88.7,326.36l2-27.76L89,294.2l-4.71-1.13-3.59,2.28-1.27,4.51L79,320.1l-6.07,4.36.88-90.87S70.42,228.41,70,228s-5.8-1.38-5.8-1.38l-6.39,2.13L55,234.41v69.25l-4.27-2.36-2-23.57-1-2.24-3.44-2.3-4.61,2.3L38,278.34l2.06,25.81.89,2.26,3,3.84,11.21,6.48Z" style="fill:#37474f"></path><path d="M42.11,365.92c3.56-.21,7.13-.3,10.7-.38s7.13-.11,10.69-.12,7.13,0,10.7.11l5.35.14c1.78.09,3.56.14,5.35.25-1.79.11-3.57.16-5.35.24l-5.35.14c-3.57.09-7.13.11-10.7.12s-7.13,0-10.69-.12S45.67,366.13,42.11,365.92Z" style="fill:#263238"></path><path d="M387.67,336h-9.4L377,317.39l-10.6-7.75L365,291.15l1.17-2.93,3.13-.76,2.4,1.53.84,3,.28,13.48,4,2.9-.59-60.51s2.26-3.45,2.52-3.71a25.88,25.88,0,0,1,3.86-.92l4.26,1.42,1.87,3.75v46.12l2.84-1.57,1.31-15.7.65-1.49,2.29-1.53,3.08,1.53,1.18,1.9-1.38,17.19-.59,1.5-2,2.56-7.46,4.32Z" style="fill:#263238"></path><path d="M397.42,336c-2.37.21-4.75.3-7.12.38s-4.75.11-7.12.12-4.75,0-7.13-.11l-3.56-.14c-1.19-.09-2.37-.13-3.56-.25,1.19-.11,2.37-.16,3.56-.24l3.56-.14c2.38-.09,4.75-.11,7.13-.12s4.74,0,7.12.12S395.05,335.78,397.42,336Z" style="fill:#263238"></path></g><g id="freepik--Shadow--inject-34"><ellipse cx="250" cy="447.74" rx="179.31" ry="14.54" style="fill:#ebebeb"></ellipse></g><g id="freepik--Plants--inject-34"><polygon points="382.29 404.72 378.27 418.29 374.7 408.82 376.54 391.25 381.43 378.77 382.6 394.31 382.29 404.72" style="fill:#37474f"></polygon><polygon points="382.29 404.72 378.27 418.29 377.2 402.27 380.29 389.29 381.43 378.77 382.6 394.31 382.29 404.72" style="fill:#455a64"></polygon><polygon points="374.03 406.02 378.18 418.1 370.17 413.11 362.1 399.28 359.24 387.54 368.63 398.25 374.03 406.02" style="fill:#37474f"></polygon><polygon points="374.03 406.02 378.18 418.1 368.63 406.98 364.04 395.84 359.24 387.54 368.63 398.25 374.03 406.02" style="fill:#455a64"></polygon><polygon points="370.53 411.54 378.5 418.33 370.99 418.48 359.64 412.28 352.67 405.13 363.57 408.46 370.53 411.54" style="fill:#37474f"></polygon><polygon points="370.53 411.54 378.5 418.33 367.32 414.78 359.46 408.87 352.67 405.13 363.57 408.46 370.53 411.54" style="fill:#455a64"></polygon><polygon points="382.63 404.75 377.76 418.25 386.89 412.27 396.22 396.61 399.62 383.56 388.85 395.89 382.63 404.75" style="fill:#37474f"></polygon><polygon points="382.63 404.75 377.76 418.25 388.73 405.46 394.07 392.96 399.62 383.56 388.85 395.89 382.63 404.75" style="fill:#455a64"></polygon><polygon points="388.31 410.89 377.76 418.26 386.91 418.76 401.5 412.19 410.87 404.35 397.18 407.68 388.31 410.89" style="fill:#37474f"></polygon><polygon points="388.31 410.89 377.76 418.26 391.83 414.7 402.14 408.32 410.87 404.35 397.18 407.68 388.31 410.89" style="fill:#455a64"></polygon><path d="M346.3,418.27c5.15-.21,10.3-.31,15.45-.39s10.3-.07,15.45-.11,10.3,0,15.45.11l7.73.14c2.57.08,5.15.13,7.72.25-2.57.11-5.15.16-7.72.24l-7.73.14c-5.15.08-10.3.08-15.45.11s-10.3,0-15.45-.11S351.45,418.47,346.3,418.27Z" style="fill:#263238"></path><polygon points="119.36 382.35 115.98 393.75 112.98 385.79 114.53 371.03 118.63 360.55 119.62 373.61 119.36 382.35" style="fill:#37474f"></polygon><polygon points="119.36 382.35 115.98 393.75 115.08 380.3 117.67 369.39 118.63 360.55 119.62 373.61 119.36 382.35" style="fill:#455a64"></polygon><polygon points="112.42 383.44 115.91 393.59 109.18 389.4 102.4 377.79 100 367.92 107.88 376.92 112.42 383.44" style="fill:#37474f"></polygon><polygon points="112.42 383.44 115.91 393.59 107.88 384.25 104.03 374.89 100 367.92 107.88 376.92 112.42 383.44" style="fill:#455a64"></polygon><polygon points="109.48 388.08 116.17 393.78 109.87 393.91 100.33 388.7 94.48 382.69 103.63 385.49 109.48 388.08" style="fill:#37474f"></polygon><polygon points="109.48 388.08 116.17 393.78 106.78 390.8 100.18 385.84 94.48 382.69 103.63 385.49 109.48 388.08" style="fill:#455a64"></polygon><polygon points="119.64 382.37 115.56 393.71 123.22 388.69 131.06 375.54 133.91 364.58 124.87 374.94 119.64 382.37" style="fill:#37474f"></polygon><polygon points="119.64 382.37 115.56 393.71 124.77 382.97 129.25 372.47 133.91 364.58 124.87 374.94 119.64 382.37" style="fill:#455a64"></polygon><polygon points="124.41 387.53 115.56 393.73 123.23 394.14 135.5 388.63 143.36 382.04 131.86 384.84 124.41 387.53" style="fill:#37474f"></polygon><polygon points="124.41 387.53 115.56 393.73 127.37 390.74 136.03 385.38 143.36 382.04 131.86 384.84 124.41 387.53" style="fill:#455a64"></polygon><path d="M89.13,393.73c4.33-.21,8.65-.31,13-.39s8.65-.07,13-.11,8.65,0,13,.11l6.49.14c2.16.09,4.33.13,6.49.25-2.16.11-4.33.16-6.49.24l-6.49.14c-4.32.08-8.65.08-13,.12s-8.66,0-13-.12S93.46,393.93,89.13,393.73Z" style="fill:#263238"></path><polygon points="241.28 337.92 239.02 345.54 237.01 340.22 238.05 330.36 240.79 323.35 241.45 332.07 241.28 337.92" style="fill:#37474f"></polygon><polygon points="241.28 337.92 239.02 345.54 238.42 336.55 240.15 329.26 240.79 323.35 241.45 332.07 241.28 337.92" style="fill:#455a64"></polygon><polygon points="236.64 338.65 238.97 345.43 234.47 342.63 229.94 334.87 228.33 328.27 233.6 334.29 236.64 338.65" style="fill:#37474f"></polygon><polygon points="236.64 338.65 238.97 345.43 233.6 339.19 231.03 332.93 228.33 328.27 233.6 334.29 236.64 338.65" style="fill:#455a64"></polygon><polygon points="234.67 341.75 239.15 345.56 234.93 345.65 228.56 342.17 224.65 338.15 230.76 340.02 234.67 341.75" style="fill:#37474f"></polygon><polygon points="234.67 341.75 239.15 345.56 232.87 343.57 228.46 340.25 224.65 338.15 230.76 340.02 234.67 341.75" style="fill:#455a64"></polygon><polygon points="241.47 337.94 238.74 345.52 243.86 342.16 249.1 333.37 251.01 326.04 244.96 332.96 241.47 337.94" style="fill:#37474f"></polygon><polygon points="241.47 337.94 238.74 345.52 244.89 338.34 247.89 331.32 251.01 326.04 244.96 332.96 241.47 337.94" style="fill:#455a64"></polygon><polygon points="244.66 341.38 238.73 345.53 243.87 345.81 252.06 342.12 257.32 337.71 249.63 339.58 244.66 341.38" style="fill:#37474f"></polygon><polygon points="244.66 341.38 238.73 345.53 246.63 343.53 252.42 339.94 257.32 337.71 249.63 339.58 244.66 341.38" style="fill:#455a64"></polygon><path d="M221.07,345.53c2.89-.21,5.78-.31,8.68-.39s5.78-.1,8.67-.11,5.78,0,8.67.11l4.34.14c1.45.08,2.89.13,4.34.25-1.45.11-2.89.16-4.34.24l-4.34.14c-2.89.09-5.78.11-8.67.12s-5.78,0-8.67-.12S224,345.73,221.07,345.53Z" style="fill:#263238"></path></g><g id="freepik--Character--inject-34"><path d="M103.31,241.23c-2,2.06-10.86,13.41-11.29,15.33s-.9,13.6-1.13,14.56-9.81,18-9.81,18-6.42,8.56-7.39,10c-3.37,5.06-3.23,16.16-3.23,16.16l2.49-8.6s-2.19,9.17-2.11,11.56.23,7.91.23,7.91l3.86-12.48L71.33,329s5.12-6.45,6-8.11,3.71-10.26,3.71-10.26-1.84,6.6-2,7.12-1.91,5-1.91,5,6.27-9.69,8.23-14.22.36-16.14.36-16.14S95.6,276.12,96.3,274s.8-13.12,1-14.55,6.06-9.22,6.06-9.22Z" style="fill:#2E3A3A"></path><path d="M103.31,241.23c-2,2.06-10.86,13.41-11.29,15.33s-.9,13.6-1.13,14.56-9.81,18-9.81,18-6.42,8.56-7.39,10c-3.37,5.06-3.23,16.16-3.23,16.16l2.49-8.6s-2.19,9.17-2.11,11.56.23,7.91.23,7.91l3.86-12.48L71.33,329s5.12-6.45,6-8.11,3.71-10.26,3.71-10.26-1.84,6.6-2,7.12-1.91,5-1.91,5,6.27-9.69,8.23-14.22.36-16.14.36-16.14S95.6,276.12,96.3,274s.8-13.12,1-14.55,6.06-9.22,6.06-9.22Z" style="opacity:0.1"></path><path d="M103.31,241.22v9s-2.93,3.86-4.72,6.65l-1.3-8.19C99.74,245.44,102.33,242.23,103.31,241.22Z" style="opacity:0.2"></path><path d="M136.44,300.68s11.49,35.58,11.78,39.73-2.46,35.31-2,36.58,8.35,5.94,8.35,5.94,17.48,21.62,20,26.71,13.58,24.37,15.27,26.07,6.84,3.39,6.84,3.39a71.28,71.28,0,0,0-4.27,5.94c-1.08,1.9-1.67,7.42-1.67,7.42h33s-1-3.93-2.44-5.73S208,440.48,208,440.48a6.32,6.32,0,0,1-1.8-3.71c0-1.91-23.22-34.76-26.45-40.28s-11.07-16.11-11.5-17.8,1.91-49.21,2.55-52.06,13-25.95,13-25.95Z" style="fill:#2E3A3A"></path><path d="M136.44,300.68s11.49,35.58,11.78,39.73-2.46,35.31-2,36.58,8.35,5.94,8.35,5.94,17.48,21.62,20,26.71,13.58,24.37,15.27,26.07,6.84,3.39,6.84,3.39a71.28,71.28,0,0,0-4.27,5.94c-1.08,1.9-1.67,7.42-1.67,7.42h33s-1-3.93-2.44-5.73S208,440.48,208,440.48a6.32,6.32,0,0,1-1.8-3.71c0-1.91-23.22-34.76-26.45-40.28s-11.07-16.11-11.5-17.8,1.91-49.21,2.55-52.06,13-25.95,13-25.95Z" style="opacity:0.2"></path><path d="M183.78,300.68s-5,9.39-8.83,16.93l-32.07,3.52c-3.11-10.15-6.44-20.45-6.44-20.45Z" style="opacity:0.2"></path><path d="M271.25,298.53s36.53,33.68,39.72,37.19,13.71,16.79,13.71,19.2-12.17,29.84-15,33.58-14.7,19.74-15.58,22.16-.24,7.71-.24,7.71a8,8,0,0,0-4,2.28,13,13,0,0,0-2.61,4.05l24.41,23.54a44.82,44.82,0,0,0,.88-7.52c0-3.29-10.21-17.66-10.21-17.66s4.25-1.57,5.35-2.88S316.9,395.3,318,392s15.91-26.12,15.91-26.12,6-6.58,6.69-10.53-5.48-9.44-5.48-9.44-9.23-18.46-14.7-27.39c-3.6-5.87-15.36-38-15.36-38Z" style="fill:#2E3A3A"></path><path d="M271.25,298.53s36.53,33.68,39.72,37.19,13.71,16.79,13.71,19.2-12.17,29.84-15,33.58-14.7,19.74-15.58,22.16-.24,7.71-.24,7.71a8,8,0,0,0-4,2.28,13,13,0,0,0-2.61,4.05l24.41,23.54a44.82,44.82,0,0,0,.88-7.52c0-3.29-10.21-17.66-10.21-17.66s4.25-1.57,5.35-2.88S316.9,395.3,318,392s15.91-26.12,15.91-26.12,6-6.58,6.69-10.53-5.48-9.44-5.48-9.44-9.23-18.46-14.7-27.39c-3.6-5.87-15.36-38-15.36-38Z" style="opacity:0.2"></path><path d="M315.67,308.15,292.8,318.49c-10.48-9.76-21.54-20-21.54-20l33.79-18S311,296.66,315.67,308.15Z" style="opacity:0.2"></path><path d="M429.51,191.21c-.86,2.49-5,12.67-7.87,13.54s-8.64-1.45-10.95-1.16-16.14,2-17.57,3.17-24.78,15.56-25.64,18.15-13.71,60.27-23.65,65.85c-13.9,7.8-32.43,13.55-50.18,17.68L275,361.36s1.79,8.1.69,12.08-4.94,8.9-5.09,9.7-2.32,33.07-1.75,35,4.07,18.5,3.92,19.56a7.78,7.78,0,0,1-1.6,2.7s14.8,4.24,16.92,5.3,6.1,6.79,6.1,6.79H259.59s0-3.5.16-4.93,2.86-4.06,2.86-4.06-4.61-3.81-5.16-5.32,1.9-20.51,2-22.35.47-34.89.47-34.89-2.55-7.31-2.85-10.17,4-11.13,4-11.93c0-.54-2.48-27.56-2.24-44.23-14.88,2.3-22.39,3.22-22.39,3.22-18.1,4.87-77.86-6.05-88.88-8.13a20.06,20.06,0,0,1-3.62,5.22c-4.21,3.81-52.19,48.75-52.82,51.93-.38,1.82-4.78,22.85-5.94,40.49-.86,13.07,1.51,26.86,1.06,28.3-1.06,3.4-1.7,5.09-1.7,5.09s10.71,3.39,13.7,5.14,4.22,6.62,4.22,6.62H73.48v-3.82c0-.64,2.76-5.67,2.76-5.67s-2.34-4.08-3.49-5.78.09-23.1.09-29-.21-50.87,0-52.14,5.94-5.1,7.21-5.73,13.78-17.38,15.82-22.16,8.35-28.92,9.83-33.7C103,280.6,94,257,104.37,238.93s31.49-47.44,45.32-51.85c16.69-5.34,38.68,10.06,49.62,10.06,16.62,0,37.38-13.91,49.3-6.42s32.49,55.4,36.13,62.5,22.25,8.6,28.4,5,26.2-75.46,28.69-78.35,25-14.93,29.49-15.12,20.64,10.65,22,11.33,15.75-1.92,18.53-1.92S430.37,188.7,429.51,191.21Z" style="fill:#2E3A3A"></path><path d="M429.51,191.21c-.86,2.49-5,12.67-7.87,13.54s-8.64-1.45-10.95-1.16-16.14,2-17.57,3.17-24.78,15.56-25.64,18.15-13.71,60.27-23.65,65.85c-13.9,7.8-32.43,13.55-50.18,17.68L275,361.36s1.79,8.1.69,12.08-4.94,8.9-5.09,9.7-2.32,33.07-1.75,35,4.07,18.5,3.92,19.56a7.78,7.78,0,0,1-1.6,2.7s14.8,4.24,16.92,5.3,6.1,6.79,6.1,6.79H259.59s0-3.5.16-4.93,2.86-4.06,2.86-4.06-4.61-3.81-5.16-5.32,1.9-20.51,2-22.35.47-34.89.47-34.89-2.55-7.31-2.85-10.17,4-11.13,4-11.93c0-.54-2.48-27.56-2.24-44.23-14.88,2.3-22.39,3.22-22.39,3.22-18.1,4.87-77.86-6.05-88.88-8.13a20.06,20.06,0,0,1-3.62,5.22c-4.21,3.81-52.19,48.75-52.82,51.93-.38,1.82-4.78,22.85-5.94,40.49-.86,13.07,1.51,26.86,1.06,28.3-1.06,3.4-1.7,5.09-1.7,5.09s10.71,3.39,13.7,5.14,4.22,6.62,4.22,6.62H73.48v-3.82c0-.64,2.76-5.67,2.76-5.67s-2.34-4.08-3.49-5.78.09-23.1.09-29-.21-50.87,0-52.14,5.94-5.1,7.21-5.73,13.78-17.38,15.82-22.16,8.35-28.92,9.83-33.7C103,280.6,94,257,104.37,238.93s31.49-47.44,45.32-51.85c16.69-5.34,38.68,10.06,49.62,10.06,16.62,0,37.38-13.91,49.3-6.42s32.49,55.4,36.13,62.5,22.25,8.6,28.4,5,26.2-75.46,28.69-78.35,25-14.93,29.49-15.12,20.64,10.65,22,11.33,15.75-1.92,18.53-1.92S430.37,188.7,429.51,191.21Z" style="opacity:0.1"></path><g style="opacity:0.2"><path d="M147.52,309.67c1-2,2-4,2.83-6.1s1.73-4.12,2.56-6.2,1.65-4.15,2.43-6.24,1.6-4.18,2.28-6.27c.09-.26.18-.52.26-.77s.16-.53.2-.73a2.36,2.36,0,0,0,.08-.65c0-.23,0-.52,0-.78,0-1.09-.13-2.21-.2-3.32l-.48-6.7c-.32-4.47-.6-9-.71-13.45.94,4.41,1.65,8.84,2.27,13.29.32,2.23.56,4.46.81,6.7.11,1.13.2,2.25.26,3.4,0,.3,0,.57,0,.89a4.26,4.26,0,0,1-.1,1c-.07.35-.16.62-.24.9s-.17.56-.26.83A124.7,124.7,0,0,1,154.33,298c-1,2-2,4-3.1,6A42.08,42.08,0,0,1,147.52,309.67Z"></path><path d="M258.79,314.58c-1.42-3-3.07-5.92-4.54-8.93-.73-1.51-1.45-3-2.06-4.62a28.43,28.43,0,0,1-1.53-4.92,14.33,14.33,0,0,1-.31-2.65,11.63,11.63,0,0,1,.32-2.67l1-4.89c.69-3.26,1.39-6.53,2.34-9.76a86,86,0,0,1-.66,10c-.21,1.66-.42,3.32-.72,5a10,10,0,0,0-.24,2.29,12.25,12.25,0,0,0,.24,2.31,58.33,58.33,0,0,0,3,9.32A72.4,72.4,0,0,1,258.79,314.58Z"></path></g><path d="M416.46,182.37s-8.21-.44-6.91-3.23C411.37,175.22,416.46,182.37,416.46,182.37Z" style="fill:#263238"></path><path d="M382.46,186.47l-16,4s3.52-4.17,7.46-4.82A21.39,21.39,0,0,1,382.46,186.47Z" style="fill:#263238"></path><path d="M370.71,188.94a4.48,4.48,0,0,0,4.17,1.72c2.55-.49,2.8-3.51,2.8-3.51Z" style="fill:#263238"></path><path d="M411.32,203.56a45.21,45.21,0,0,0-7.17-.45c-2.46,0-4.91.08-7.37.27s-4.81.46-7.21.82a42.86,42.86,0,0,1-7.21.93,6.4,6.4,0,0,1-3.55-1.48c-1.12-.78-2.26-1.55-3.42-2.28-.07,0-.15.07-.08.12q1.38,1.19,2.82,2.31a11.41,11.41,0,0,0,2.57,1.74,6.88,6.88,0,0,0,3.31.25c1.24-.14,2.48-.33,3.71-.53a113.21,113.21,0,0,1,15-1.53c1.41,0,2.81-.06,4.22-.06s2.88.08,4.32,0A.07.07,0,0,0,411.32,203.56Z" style="fill:#263238"></path><path d="M385.84,208.84c-2.33.8-4.89,1.76-7.39,1.3a10.59,10.59,0,0,1-3.2-1.24,14.78,14.78,0,0,1-3.15-2.24c-.07-.06-.16,0-.1.11a15.25,15.25,0,0,0,2.84,2.66,8.18,8.18,0,0,0,3.48,1.65c2.72.46,5.27-.83,7.56-2.15C385.93,208.9,385.89,208.83,385.84,208.84Z" style="fill:#263238"></path><path d="M349.21,178.94s-7.06-6.62-13.68-7.2-14.55,1.15-14.12,1.87,7.95,8.36,11.38,9.66,11.67,1,11.67,1Z" style="fill:#2E3A3A"></path><path d="M349.21,178.94s-7.06-6.62-13.68-7.2-14.55,1.15-14.12,1.87,7.95,8.36,11.38,9.66,11.67,1,11.67,1Z" style="opacity:0.1"></path><path d="M347.45,180.92s-7.41-5.68-10.6-5.95-7,.55-6.8.9,3.83,4,5.48,4.65,9.68,2.91,9.68,2.91Z" style="opacity:0.2"></path><g style="opacity:0.2"><path d="M348.2,265.83a13.38,13.38,0,0,0-.3-2.89.07.07,0,0,0-.14,0c-.14.94-.13,1.89-.19,2.84,0,.49-.07,1-.1,1.47s0,1,0,1.46c0,.32.51.39.56.06a9.82,9.82,0,0,0,.19-1.43C348.23,266.84,348.22,266.34,348.2,265.83Z"></path><path d="M345.66,268.47c0-.09-.15-.09-.15,0a13.06,13.06,0,0,1-.48,3,20.27,20.27,0,0,1-.91,2.83c-.15.36.36.65.53.3a11,11,0,0,0,1-3A15.5,15.5,0,0,0,345.66,268.47Z"></path><path d="M86.61,377.24a14,14,0,0,0-.29-2.89c0-.07-.14-.07-.15,0-.14.95-.12,1.9-.18,2.85,0,.49-.07,1-.11,1.46s0,1,0,1.47c0,.31.51.38.57.06a11.4,11.4,0,0,0,.18-1.43C86.64,378.25,86.63,377.75,86.61,377.24Z"></path><path d="M84.07,379.88c0-.09-.14-.09-.15,0a12.53,12.53,0,0,1-.48,3,20.27,20.27,0,0,1-.91,2.83c-.15.35.37.65.53.29a10.8,10.8,0,0,0,1-3A15.5,15.5,0,0,0,84.07,379.88Z"></path><path d="M112,294.57a21.93,21.93,0,0,0-1.62,3,7.61,7.61,0,0,0-.43,1.64A6.36,6.36,0,0,0,110,301a.17.17,0,0,0,.33,0c.11-.55.32-1.07.42-1.62l.3-1.56a9.9,9.9,0,0,1,1-3.18C112.14,294.56,112,294.49,112,294.57Z"></path><path d="M113,302.89v-.59c0-.25,0-.52,0-.76s-.13-.13-.14,0-.13.45-.18.67l-.15.67a10.68,10.68,0,0,0-.16,1.25,11.12,11.12,0,0,0,0,1.29,6.12,6.12,0,0,0,.25,1.33c0,.2.32.12.33-.06,0-.43.09-.85.09-1.29s0-.82,0-1.23S113,303.3,113,302.89Z"></path><path d="M113.61,243.79a7,7,0,0,0-1.91,2.79,7.59,7.59,0,0,0-.39,1.63,3,3,0,0,0,0,1.58.08.08,0,0,0,.13,0,3,3,0,0,0,.15-.73,6,6,0,0,1,.12-.74,7.56,7.56,0,0,1,.54-1.51,9.21,9.21,0,0,1,1.81-2.57C114.38,243.94,113.92,243.51,113.61,243.79Z"></path><path d="M104.61,339.67a7.07,7.07,0,0,0-2.29,4.42,2.83,2.83,0,0,0,0,1.58.07.07,0,0,0,.13,0,2.69,2.69,0,0,0,.14-.74,6.17,6.17,0,0,1,.12-.73,8,8,0,0,1,.55-1.51,8.89,8.89,0,0,1,1.8-2.57C105.39,339.82,104.92,339.4,104.61,339.67Z"></path><path d="M221.37,301.77c-.73-.38-1.43-.8-2.14-1.22a4.84,4.84,0,0,1-.94-.69c-.15-.14-.29-.29-.43-.44l-.2-.2-.13-.15-.12-.09c0-.05-.14,0-.12.08s0,.07,0,.11a.77.77,0,0,0,.07.16,2.49,2.49,0,0,0,.11.29,3.89,3.89,0,0,0,.35.58,9.51,9.51,0,0,0,.85,1.05,4,4,0,0,0,2.53,1.15C221.56,302.43,221.65,301.92,221.37,301.77Z"></path><path d="M283,307.86c0-.22.06-.44.09-.66s.05-.43.07-.65a4.71,4.71,0,0,0,0-.65c0-.1,0-.21,0-.32a.21.21,0,0,0-.07-.12.23.23,0,0,1-.05-.15c0-.08-.15-.07-.15,0v.13c-.12.12-.1.32-.11.49s-.05.39-.08.59a5.23,5.23,0,0,1-.31,1.16,10.63,10.63,0,0,1-1,2.17c-.15.24.2.52.39.31A5.12,5.12,0,0,0,283,307.86Z"></path><path d="M282,315.51a6.31,6.31,0,0,0,1.08-2.3,5.33,5.33,0,0,0,.19-1.25c0-.21,0-.41,0-.61s0-.44-.06-.66-.15-.1-.15,0-.05.41-.07.61a4.1,4.1,0,0,1-.11.61c-.1.39-.2.78-.33,1.16a10.74,10.74,0,0,1-1.08,2.14.32.32,0,0,0,.11.42A.31.31,0,0,0,282,315.51Z"></path><path d="M338.19,206.21a6.82,6.82,0,0,0-.65,1.15c-.22.4-.43.81-.68,1.2s-.51.73-.74,1.12-.45.8-.73,1.18a.37.37,0,0,0,.54.51c.33-.33.68-.65,1-1a5.2,5.2,0,0,0,.79-1.29c.19-.44.39-.89.54-1.35a3.84,3.84,0,0,0,.26-1.38C338.49,206.2,338.3,206.07,338.19,206.21Z"></path><path d="M338.73,212.09a.06.06,0,0,0-.06,0c-.19,0-.27.15-.35.3s-.27.45-.4.67a6.6,6.6,0,0,0-.54,1.42,4.9,4.9,0,0,0-.06,3c.09.26.54.3.59,0,.15-.93.14-1.88.26-2.81.07-.47.2-.9.31-1.35a3.89,3.89,0,0,1,.21-.74C338.75,212.4,338.83,212.26,338.73,212.09Z"></path><path d="M265,362.81a8.27,8.27,0,0,0-.66,1.16,11.75,11.75,0,0,1-.68,1.19c-.24.37-.5.74-.73,1.12a12.9,12.9,0,0,1-.73,1.18c-.28.38.19.86.53.51s.69-.65,1-1a5.39,5.39,0,0,0,.79-1.29c.19-.45.39-.89.54-1.35a3.63,3.63,0,0,0,.25-1.38C265.26,362.81,265.07,362.67,265,362.81Z"></path><path d="M265.5,368.7a.07.07,0,0,0-.06,0c-.19,0-.27.15-.35.3l-.4.67a6.6,6.6,0,0,0-.54,1.42,4.9,4.9,0,0,0-.06,3c.09.26.54.3.59,0,.15-.93.14-1.88.26-2.82.07-.46.2-.89.31-1.34a3.89,3.89,0,0,1,.21-.74C265.52,369,265.6,368.87,265.5,368.7Z"></path><path d="M265.73,226.73a12,12,0,0,0-3.78-4.5c-.08,0-.14.06-.09.12a21.38,21.38,0,0,1,1.81,2.22,12.41,12.41,0,0,1,1.33,2.49A.4.4,0,1,0,265.73,226.73Z"></path><path d="M264.4,231.32a8.46,8.46,0,0,0-.54-1.28,13.29,13.29,0,0,0-.69-1.14l-.4-.56a5.55,5.55,0,0,0-.49-.48.08.08,0,0,0-.12.1c.11.19.17.4.28.58s.22.37.32.57a10.54,10.54,0,0,1,.51,1.2c.14.41.26.82.38,1.24s.24.82.36,1.24a.31.31,0,0,0,.61-.1A5.3,5.3,0,0,0,264.4,231.32Z"></path><path d="M258.43,230.38a12.39,12.39,0,0,0-.67-1.65.89.89,0,0,0-.37-.46c-.09-.05-.24-.07-.3,0s.12.4.22.24a.31.31,0,0,1,0,.08c0,.17.05.34.09.51.09.36.18.72.28,1.07a17,17,0,0,0,.73,2.07.27.27,0,0,0,.51-.16A13.18,13.18,0,0,0,258.43,230.38Z"></path><path d="M276.75,256.76c-.41-.81-.79-1.65-1.13-2.49-.16-.41-.35-.82-.52-1.23a7.75,7.75,0,0,1-.38-1.33c0-.09-.16-.05-.14,0a21.69,21.69,0,0,0,.58,2.75,11,11,0,0,0,1.21,2.49A.22.22,0,0,0,276.75,256.76Z"></path></g><path d="M83.58,420.27c-.41-.81-.79-1.64-1.13-2.49-.17-.41-.36-.82-.52-1.23a7.65,7.65,0,0,1-.38-1.32c0-.1-.16-.05-.14,0A18.42,18.42,0,0,0,82,418a11,11,0,0,0,1.21,2.49A.22.22,0,0,0,83.58,420.27Z"></path><path d="M143.11,190.57c.24-.81-9.7-9.16-9.91-11.18s2.66-4.61,4.1-4.18,9.22,10.33,10.81,11.09,16.42-.72,21.31,0,20.22,10.08,25.05,10.46,45.25-10.17,47.7-10.46,7.49-12.24,10.66-13.1,5.95,0,5.56,2-9.6,12.39-8.59,12.68,4.18,3,5.76,4.75,10.54,19.8,10.38,21.18-1.16,1.51-2,1-11.52-19.3-13.33-20.45-3.81-.94-4.6.58-4,14.18-4.54,16.2c-1.08,3.75-.87,10.95-2.31,11.45s-4.46.37-4.64-1.14A130.09,130.09,0,0,1,236,205.61c.58-2.6,4.33-13.54,4.33-13.54s-44.05,10.45-47.7,9.88S143.11,190.57,143.11,190.57Z" style="fill:#a6a6a6"></path><path d="M242.74,184.89a11.52,11.52,0,0,0,1.88,1,8,8,0,0,0,2,.54,8.18,8.18,0,0,0,2,.05,9.71,9.71,0,0,0,1-.13c.36-.05.7-.14,1.08-.19a6.63,6.63,0,0,1-.95.6,6.08,6.08,0,0,1-1.06.39,5.68,5.68,0,0,1-2.29.14,5.41,5.41,0,0,1-2.15-.81A4.54,4.54,0,0,1,242.74,184.89Z" style="fill:#263238"></path><path d="M243.12,185.27a8.76,8.76,0,0,0,1.65,1.2,6.33,6.33,0,0,0,1.8.67,7.28,7.28,0,0,0,1.93.1c.33,0,.66-.08,1-.11s.67-.14,1-.17a7.72,7.72,0,0,1-.91.57,5.93,5.93,0,0,1-1,.38,4.89,4.89,0,0,1-2.22.07A4.42,4.42,0,0,1,243.12,185.27Z" style="fill:#263238"></path><path d="M242.74,185.21a9.32,9.32,0,0,0,3.59,2.27,6,6,0,0,0,2,.27,13.06,13.06,0,0,0,2.18-.26,5,5,0,0,1-2.1.94,4.77,4.77,0,0,1-2.37-.13,5.31,5.31,0,0,1-2-1.19A4.94,4.94,0,0,1,242.74,185.21Z" style="fill:#263238"></path><path d="M146.28,188.57c-2,.34-22.75,46.57-23.86,49.45s-6.44,36-6.29,36.87,52.43,8.93,60.93,8.36,64.18-8.07,66.05-8.93-8.86-45.95-9-49,5.33-34,8.07-39c0,0-39.34,11.33-47.7,10.46S154.1,187.24,146.28,188.57Z" style="fill:#455a64"></path><path d="M148.11,186.3c-3.78.82-21.32,54.46-22.48,60.72S121,281.23,123,281.81s40.62,5.9,54.31,5.9,59.34-5.9,60.5-7.49-6.63-46.67-7.21-53,7.64-34.71,11.53-40.91c0,0-1-.86-10.52,0s-33.72,9-38.47,8.59S168.85,181.84,148.11,186.3Z" style="fill:#2E3A3A"></path><path d="M237.44,273.53c-15.65,2.19-56.16,7.8-61.24,7.8h0c-3.28,0-38.7-4.47-53.68-6.38,0-.81.08-1.69.14-2.6,20.2,2.57,50.73,6.37,53.54,6.38h0c4.85,0,45.39-5.6,60.92-7.78C237.25,271.86,237.36,272.73,237.44,273.53Z" style="fill:#263238"></path><path d="M235.56,259.93c-16.78,2.35-54.48,7.55-59.36,7.55h0c-3.19,0-36.89-4.25-52.48-6.22.09-.88.19-1.74.3-2.59,20.17,2.57,49.43,6.2,52.18,6.21h0c4.66,0,42.25-5.18,59-7.51C235.31,258.22,235.43,259.08,235.56,259.93Z" style="fill:#263238"></path><path d="M236.69,267.73c-16.29,2.28-55.44,7.68-60.49,7.68h0c-3.34,0-37.66-4.33-53.28-6.31.15-1.68.32-3.43.5-5.18,22,2.8,50.22,6.29,52.78,6.29h0c4.32,0,39.85-4.84,59.75-7.63C236.21,264.38,236.47,266.1,236.69,267.73Z" style="fill:#263238"></path><path d="M233.43,246c-16.86,1.42-49.47,4.09-55.52,4.09h-.43c-3.06-.1-34.17-4-51.07-6.14.39-1.38.89-3.08,1.49-5,19.06,2.41,47.14,5.91,49.74,6,4,.12,33.57-2.24,55-4Z" style="fill:#263238"></path><path d="M231.85,218.11c-.43,2-.76,3.77-1,5.3-17.09,1.45-46.25,3.84-53.31,3.84h0c-2.72,0-26.77-3-44.2-5.24.56-1.65,1.13-3.34,1.71-5,19.84,2.53,40.35,5.06,42.5,5.06h0C184.55,222.05,215.07,219.54,231.85,218.11Z" style="fill:#263238"></path><path d="M232.07,237.28c-17.23,1.44-48.09,3.95-53.95,3.95h-.44c-2.91-.1-31.42-3.67-48.69-5.85.49-1.59,1-3.28,1.61-5,18.93,2.39,44.77,5.61,47.26,5.69,3.9.12,32.18-2.12,53.43-3.9C231.51,233.63,231.78,235.36,232.07,237.28Z" style="fill:#263238"></path><path d="M230.93,229.6c-17.4,1.46-47,3.86-52.62,3.86h-.43c-2.76-.09-29.11-3.38-46.48-5.57.26-.84.54-1.68.83-2.52,17.32,2.18,43.12,5.4,45.73,5.49,4.21.12,34.82-2.35,52.68-3.83v.19C230.7,227.75,230.79,228.56,230.93,229.6Z" style="fill:#263238"></path><path d="M131.94,252.09a2.21,2.21,0,1,1-2.21-2.21A2.21,2.21,0,0,1,131.94,252.09Z" style="fill:#263238"></path><path d="M143.51,253.77a2.21,2.21,0,1,1-2.21-2.21A2.2,2.2,0,0,1,143.51,253.77Z" style="fill:#263238"></path><path d="M156.75,255.69a2.21,2.21,0,1,1-2.21-2.21A2.2,2.2,0,0,1,156.75,255.69Z" style="fill:#263238"></path><path d="M170.25,257.11a2.21,2.21,0,1,1-2.2-2.21A2.2,2.2,0,0,1,170.25,257.11Z" style="fill:#263238"></path><path d="M183,257.64a2.21,2.21,0,1,1-2.21-2.21A2.21,2.21,0,0,1,183,257.64Z" style="fill:#263238"></path><path d="M195.87,256.58a2.21,2.21,0,1,1-2.21-2.2A2.21,2.21,0,0,1,195.87,256.58Z" style="fill:#263238"></path><path d="M208.11,255.43a2.21,2.21,0,1,1-2.21-2.21A2.21,2.21,0,0,1,208.11,255.43Z" style="fill:#263238"></path><path d="M220.27,254a2.21,2.21,0,1,1-2.21-2.21A2.21,2.21,0,0,1,220.27,254Z" style="fill:#263238"></path><path d="M231.76,252.61a2.21,2.21,0,1,1-2.21-2.21A2.21,2.21,0,0,1,231.76,252.61Z" style="fill:#263238"></path><path d="M375.41,207.2h-.23a72.83,72.83,0,0,1-38.85-15.6,2.6,2.6,0,0,1,3.42-3.91,68.93,68.93,0,0,0,34.11,14.15c2.59-5.21,11-20.87,22-28.33a2.6,2.6,0,1,1,2.93,4.29c-11.78,8-20.91,27.69-21,27.89A2.59,2.59,0,0,1,375.41,207.2Z" style="fill:#455a64"></path><path d="M367.42,233.7h-.21c-29.83-2.37-39.41-15.51-39.8-16.07a2.6,2.6,0,0,1,4.24-3c.06.08,2.23,3,7.63,6.1,5.08,2.94,14.12,6.67,28.34,7.8a2.6,2.6,0,0,1-.2,5.19Z" style="fill:#455a64"></path><path d="M381.54,217.77a2.56,2.56,0,0,1-1.83-.76c-6-6-6.85-11.84-6.88-12.08a2.6,2.6,0,0,1,5.16-.69c0,.12.74,4.44,5.39,9.09a2.6,2.6,0,0,1-1.84,4.44Z" style="fill:#455a64"></path><path d="M331.48,222.36a4.28,4.28,0,1,1-4.28-4.27A4.27,4.27,0,0,1,331.48,222.36Z" style="fill:#455a64"></path><circle cx="336.49" cy="196.87" r="4.28" style="fill:#455a64"></circle><path d="M350.5,202.92a4.28,4.28,0,1,1-4.28-4.28A4.28,4.28,0,0,1,350.5,202.92Z" style="fill:#455a64"></path><path d="M361.35,207.7a4.28,4.28,0,1,1-4.28-4.28A4.28,4.28,0,0,1,361.35,207.7Z" style="fill:#455a64"></path><path d="M372.88,210.58a4.28,4.28,0,1,1-4.28-4.28A4.28,4.28,0,0,1,372.88,210.58Z" style="fill:#455a64"></path><path d="M380.35,219.33a4.28,4.28,0,1,1-4.28-4.27A4.28,4.28,0,0,1,380.35,219.33Z" style="fill:#455a64"></path><path d="M338.89,228.77a4.28,4.28,0,1,1-4.28-4.27A4.28,4.28,0,0,1,338.89,228.77Z" style="fill:#455a64"></path><path d="M348.11,233.05a4.28,4.28,0,1,1-4.28-4.28A4.28,4.28,0,0,1,348.11,233.05Z" style="fill:#455a64"></path><path d="M358.12,236a4.28,4.28,0,1,1-4.28-4.27A4.28,4.28,0,0,1,358.12,236Z" style="fill:#455a64"></path><path d="M369.06,237.73a4.28,4.28,0,1,1-4.27-4.27A4.27,4.27,0,0,1,369.06,237.73Z" style="fill:#455a64"></path><path d="M211.51,312.82c-1.85-.47-46.37-29.37-47.34-31.49-.13-.24,2.4-4.32,6-9.85l.07-.11c2.24-3.51,20.42-34.11,20.42-34.11L218.69,255l-17.22,30.57s4.41,6.4,8.05,12.28c0,0,0,0,0,0a72.19,72.19,0,0,1,4.48,7.75C214.82,308.06,213.35,313.29,211.51,312.82Z" style="fill:#d3766a"></path><path d="M211.51,312.82c-1.85-.47-46.37-29.36-47.34-31.49-.13-.24,2.4-4.32,6-9.85l.07-.11.47-.75.33-.54c.17-.26.33-.54.49-.81,1.44-2.37,3.75-6.22,6.28-10.44L206.33,277l-4.86,8.63s4.41,6.39,8.05,12.27v0a73.29,73.29,0,0,1,4.47,7.75C214.81,308.06,213.35,313.3,211.51,312.82Z" style="fill:#fff"></path><path d="M211.58,313.1c-1.89-.49-46.4-29.53-47.4-31.71-.38-.83,3.43-8.13,9-15.32l28.68,18.76s11.5,18.39,12.34,20.9S213.48,313.6,211.58,313.1Z" style="fill:#455a64"></path><path d="M212.11,310.91c-7.34-5.05-37.43-24.74-45.07-29.17-.06,0-.09,0,0,.05,7.17,5.16,37.41,24.6,45,29.24C212.19,311.13,212.26,311,212.11,310.91Z" style="fill:#263238"></path><path d="M212.37,302.26a7.11,7.11,0,0,0-5.65-1.09,6.91,6.91,0,0,0-4.27,2.89c0,.05.06.1.1.06a8.27,8.27,0,0,1,9.76-1.77A.05.05,0,1,0,212.37,302.26Z" style="fill:#263238"></path><path d="M203.7,287.11c-3-2-7.11-3.2-10.56-2-.13.05-.06.24.05.25a49.27,49.27,0,0,1,10.32,2.12A.22.22,0,0,0,203.7,287.11Z" style="fill:#263238"></path><path d="M205.42,289.51c-3-2-7.11-3.19-10.56-2-.14,0-.07.23,0,.25a49.25,49.25,0,0,1,10.32,2.11A.22.22,0,0,0,205.42,289.51Z" style="fill:#263238"></path><path d="M207.14,291.91c-3-2-7.11-3.19-10.56-2-.14.05-.07.24,0,.25A49.9,49.9,0,0,1,207,292.31.22.22,0,0,0,207.14,291.91Z" style="fill:#263238"></path><path d="M208.85,294.32c-3-2-7.11-3.2-10.55-2-.14,0-.07.24,0,.25a49.27,49.27,0,0,1,10.32,2.12A.22.22,0,0,0,208.85,294.32Z" style="fill:#263238"></path><path d="M173.56,275.89c-3.35-2.17-6.74,3-3.38,5.22S176.93,278.07,173.56,275.89Z" style="fill:#fff"></path><path d="M212.12,281.25c-.69-2.24-3.39-2.26-5.17-1.57a18.66,18.66,0,0,0-7.7,5.87c-.05.06,0,.11,0,.14a.43.43,0,0,0,.38.59c3.08-.08,6.39.21,9.36-.81C210.76,284.87,212.78,283.36,212.12,281.25Zm-7.8,3.95c-1.52.08-3,.08-4.54.22a55.58,55.58,0,0,1,4.57-3.33,19.84,19.84,0,0,1,2.4-1.3c1.3-.57,5.86-1.15,4,2.29C209.78,285,206.13,285.11,204.32,285.2Z" style="fill:#263238"></path><path d="M191.11,281.81c2.34,2.1,5.5,3.11,8.32,4.38a.43.43,0,0,0,.57-.4.11.11,0,0,0,.1-.12,18.77,18.77,0,0,0-4.83-8.39c-1.38-1.32-3.88-2.35-5.38-.56S189.74,280.59,191.11,281.81Zm-.7-2.87c-.34-3.88,3.63-1.58,4.61-.56a20.7,20.7,0,0,1,1.71,2.13c1.11,1.54,2,3.2,2.93,4.83-1.34-.7-2.74-1.29-4.11-1.95C193.92,282.6,190.61,281.08,190.41,278.94Z" style="fill:#263238"></path><path d="M208.55,273l-28.77-17.57s23.94-52.34,22.89-53.18c-1.66-1.34-38.52,2.32-50.17-10.16-14.19-15.21,0-38.76,0-38.76h38.8a49.42,49.42,0,0,1-2.5,13.13s37.91,3.24,48.63,15.12C254.33,200.37,208.55,273,208.55,273Z" style="fill:#d3766a"></path><path d="M206.5,169a143.6,143.6,0,0,1,15.65,3.88,67.16,67.16,0,0,1,7.57,2.86,30.24,30.24,0,0,1,3.59,1.92,16.19,16.19,0,0,1,3.15,2.62,18.73,18.73,0,0,1,4.49,6.83,20,20,0,0,1,.9,8.13,59.93,59.93,0,0,1-1.22,8c-.56,2.64-1.25,5.27-2.06,7.84-1.62,5.14-3.52,10.18-5.55,15.17s-4.19,9.91-6.52,14.76-4.8,9.63-7.38,14.35-5.36,9.32-8.27,13.84a318.28,318.28,0,0,0,15-28.52,258.31,258.31,0,0,0,11.82-29.9c.82-2.55,1.51-5.12,2.08-7.73a62.69,62.69,0,0,0,1.25-7.9,19.25,19.25,0,0,0-.81-7.78,18.67,18.67,0,0,0-4.23-6.58,19.57,19.57,0,0,0-6.46-4.5,72.68,72.68,0,0,0-7.45-3A159.68,159.68,0,0,0,206.5,169Z" style="fill:#263238"></path><path d="M203.43,168.49l-21.18,33.35s-20.1.56-30.74-9.13c-8-7.27-9.51-21.71,1-39.36h38.92a31.27,31.27,0,0,1-.85,12.35Z" style="fill:#37474f"></path><path d="M168.29,158.21a2,2,0,0,1-.19.46.06.06,0,0,0,0,.07c-.44,1.41-.62,2.9-1.05,4.31a6.74,6.74,0,0,1-2.58,3.73c-2.65,1.86-5.84,2.71-8.93,3.49-.1,0-.06.17,0,.17a16.83,16.83,0,0,0,5.27-.83,13.88,13.88,0,0,0,4.44-2.16,7,7,0,0,0,2.53-3.85,23.2,23.2,0,0,0,.43-2.47,18.89,18.89,0,0,0,.3-2.9A.14.14,0,0,0,168.29,158.21Z" style="fill:#263238"></path><path d="M194.05,163.7a39.78,39.78,0,0,0-6.14,2.38l-.1,0a1.62,1.62,0,0,0,.09-.38c0-.14,0-.29.07-.44s0-.31.05-.47l0-.23v0a1.84,1.84,0,0,0,1.32-.69,4.85,4.85,0,0,0,.82-1.94c.22-.88.43-1.76.62-2.65s.38-2,.54-3a21,21,0,0,0,.32-3,.14.14,0,0,0-.28,0c-.22.91-.32,1.85-.49,2.77s-.36,1.84-.57,2.76-.43,1.83-.67,2.73-.44,2-1.38,2.25c-1.92.56-1.08-3.76-1-4.61.18-2,.29-3.95.62-5.89a.06.06,0,0,0-.12,0c-.41,1.78-.88,3.53-1.19,5.34-.15.88-.26,1.78-.35,2.67a4.15,4.15,0,0,0,.19,2.29,1.72,1.72,0,0,0,1.28.94l-.06.2c-.05.14-.09.28-.13.43s-.06.29-.1.44a1.21,1.21,0,0,0-.06.53.29.29,0,0,0,.1.12c-.82.36-1.64.72-2.45,1.1a20.69,20.69,0,0,0-2.95,1.45c-.11,0,0,.2.08.18a20.09,20.09,0,0,0,3.09-1.14c1-.39,2.05-.82,3.06-1.25a39,39,0,0,0,5.85-2.75A.1.1,0,0,0,194.05,163.7Z" style="fill:#263238"></path><path d="M176.17,198.24c2.78-3.73,5.38-7.58,8-11.44s5.14-7.75,7.59-11.69c1.39-2.23,2.67-4.51,4.05-6.74a.07.07,0,0,0-.11-.07c-1.3,1.94-2.71,3.82-4,5.75s-2.57,3.83-3.85,5.75c-2.56,3.88-5.08,7.78-7.62,11.67-1.43,2.19-2.8,4.42-4.15,6.67A.09.09,0,0,0,176.17,198.24Z" style="fill:#263238"></path><path d="M154,156.8a54.56,54.56,0,0,0-2.47,6.52,47.66,47.66,0,0,0-1.61,6.75,33,33,0,0,0-.46,6.87,19.57,19.57,0,0,0,1.3,6.65,11.84,11.84,0,0,0,1.71,2.88,17.07,17.07,0,0,0,2.36,2.45,29.93,29.93,0,0,0,5.75,3.75,48.63,48.63,0,0,0,6.4,2.69,61.81,61.81,0,0,0,6.7,1.93,48.13,48.13,0,0,1-13.44-3.93,27.17,27.17,0,0,1-6-3.75,17.37,17.37,0,0,1-2.52-2.55,12.9,12.9,0,0,1-1.88-3.08,20.45,20.45,0,0,1-1.29-7,29.63,29.63,0,0,1,.62-7A45.16,45.16,0,0,1,154,156.8Z" style="fill:#263238"></path><path d="M181.76,116c4.48,6.08,23.45,23.06,32.86,27.59,3.09,1.48,29.46-8.86,34.48-12.76,2.05-1.59-8.42-18.57-11.14-18-3,.61-21.57,12.45-23.64,12.25s-16.74-8.26-26.5-12.72C182,109.66,179.24,112.55,181.76,116Z" style="fill:#d3766a"></path><path d="M243.37,134.1c2.13-1.06,13.58-7.43,15.82-9.6s8.22-8.88,6.73-10.77-3.39,0-3.39,0,2.32-3.51.41-5c-1.53-1.18-4.36,1.24-4.36,1.24s2.35-4,.26-5.2c-1.91-1.13-4.29,2.26-4.29,2.26s1.63-3.53-.42-4.25c-2.45-.88-5.27,5.23-7.92,7.44-.61.5-12.93,9.3-12.93,9.3Z" style="fill:#d3766a"></path><path d="M254.47,106.79c-2.58,4.36-3.77,6.08-7.86,8.72-.08,0,0,.18.06.14,4.24-2.22,5.81-4.17,8-8.77C254.8,106.66,254.59,106.59,254.47,106.79Z" style="fill:#263238"></path><path d="M258.53,109.92c-2.57,4.47-4.43,6.1-8.51,9.18-.05,0,0,.15.08.11,4.25-2.69,6.61-4.44,8.6-9.24C258.79,109.75,258.65,109.71,258.53,109.92Z" style="fill:#263238"></path><path d="M262.32,113.83c-2.8,4.15-4.71,6.15-9,8.63-.1.06,0,.22.08.17a16.6,16.6,0,0,0,9.09-8.7C262.58,113.65,262.5,113.57,262.32,113.83Z" style="fill:#263238"></path><path d="M228.25,118.36l6.36-6.38c2-2,6.76-8.31,9.14-8,2.67.35.31,7.19-3.18,10.73,0,0,3.91,7.17.72,10.73S228.25,118.36,228.25,118.36Z" style="fill:#d3766a"></path><path d="M240.34,115.19c1.62,2.73,2.62,6.81,1.16,9.63a.07.07,0,0,0,.13.07c2-2.81.86-7.53-.74-9.89C240.59,114.55,239.92,114.48,240.34,115.19Z" style="fill:#263238"></path><path d="M228.62,116.62l12.74,21.12s-23,8.59-28.83,6.28-23.57-17.86-29.8-25.65c-5.63-7-2.35-10,5.44-7.18s25.75,12.73,26.77,12.58S228.62,116.62,228.62,116.62Z" style="fill:#ebebeb"></path><path d="M224.21,143.05c-4.89,1.17-9.48,1.84-11.68,1-5.85-2.32-23.57-17.86-29.8-25.65-2.86-3.57-3.42-6.08-2.26-7.32C188.62,117,210.12,132.71,224.21,143.05Z" style="fill:#dbdbdb"></path><path d="M238.35,138.81l-1,.33L225.2,118.5l.88-.49Z" style="fill:#2E3A3A"></path><path d="M235.61,139.75l-2,.62-11.83-20.05,1.76-.94Z" style="fill:#2E3A3A"></path><path d="M194.14,163.88l-46.36-6s17.12-37,28.21-46.13c5-4.16,9.28-2.87,12.55.65.81.88,10.29,16.77,10.59,21.91.27,4.55-4,9-4,9Z" style="fill:#ebebeb"></path><path d="M190.67,140.21a30,30,0,0,0-5.52.21c-.92.14-1.83.32-2.74.53-.46.11-.91.19-1.36.28a5,5,0,0,1-1.43.09c-.05,0-.06.07,0,.08a7.61,7.61,0,0,0,1.33.19,7.33,7.33,0,0,0,1.32-.09c.93-.12,1.85-.3,2.78-.44,1.88-.28,3.75-.55,5.63-.66C190.75,140.39,190.76,140.21,190.67,140.21Z" style="fill:#263238"></path><path d="M194.77,142.94a30.28,30.28,0,0,0-4.41-1,21.36,21.36,0,0,0-2.25-.2l-1.09,0c-.4,0-.8.06-1.2.05,0,0,0,.08,0,.08.37,0,.74.13,1.11.18l1.12.14c.75.1,1.49.22,2.24.31,1.49.18,3,.38,4.47.63C194.83,143.1,194.85,143,194.77,142.94Z" style="fill:#263238"></path><path d="M242.86,185.11a23.39,23.39,0,0,0-4.2-1.53l-4.29-1.34a55.29,55.29,0,0,1-8.4-3.31,11.64,11.64,0,0,1-3.71-2.77,4.44,4.44,0,0,1-.63-1.08,6.58,6.58,0,0,1-.28-1.15c-.12-.73-.2-1.46-.25-2.18-.21-2.9-.12-5.74-.21-8.56a35.36,35.36,0,0,0-.35-4.15,10.13,10.13,0,0,0-1.2-3.71c-1.54-2.29-3.53-4.51-5.24-6.93a22,22,0,0,1-2.31-3.91,6.94,6.94,0,0,1-.53-4.9,10,10,0,0,1,2.92-3.89,13,13,0,0,1,4.21-2.38,7.72,7.72,0,0,1,5.22,0,5.53,5.53,0,0,1,2.25,1.59,8.37,8.37,0,0,1,1.29,2.12,26.62,26.62,0,0,1,1.8,8.71,35.55,35.55,0,0,1,0,4.38,16.65,16.65,0,0,1-.8,4.46,4.37,4.37,0,0,1-.66,1.2l-.27.3-.09.09a3.15,3.15,0,0,0-.22.33,9.55,9.55,0,0,0-.76,1.8,35.31,35.31,0,0,0-1,4.05,80.87,80.87,0,0,0-1.27,8.35c-.07.7-.12,1.4-.15,2.09a6.8,6.8,0,0,0,.1,1.88,4.94,4.94,0,0,0,1.3,1.41c.55.44,1.15.85,1.76,1.25a77,77,0,0,0,7.83,4.17C237.39,182.72,240.11,184,242.86,185.11Zm0,0c-2.83-1-5.63-2-8.39-3.19a76.36,76.36,0,0,1-8.13-3.86,20.76,20.76,0,0,1-1.92-1.23,5.42,5.42,0,0,1-1.7-1.76,3.67,3.67,0,0,1-.26-1.24c0-.37,0-.74-.05-1.1,0-.73,0-1.45.05-2.17a70.24,70.24,0,0,1,.94-8.56,40.63,40.63,0,0,1,.94-4.26,12.24,12.24,0,0,1,.84-2.17,4.22,4.22,0,0,1,.37-.57l.28-.31.09-.11a3,3,0,0,0,.34-.69,14.84,14.84,0,0,0,.6-3.93,36,36,0,0,0-.09-4.15,26.74,26.74,0,0,0-1.72-8,4.28,4.28,0,0,0-2.3-2.52,5.46,5.46,0,0,0-3.58.11,10.72,10.72,0,0,0-3.45,1.94,8.07,8.07,0,0,0-2.29,2.92,5,5,0,0,0,.44,3.43,22.28,22.28,0,0,0,2,3.57c1.59,2.37,3.49,4.54,5.14,7.1a11.3,11.3,0,0,1,1.35,4.45,37.75,37.75,0,0,1,.21,4.36c0,2.88-.2,5.72-.15,8.52,0,.69.06,1.39.14,2.07a3.17,3.17,0,0,0,.61,1.74,10.72,10.72,0,0,0,3.24,2.62,53.62,53.62,0,0,0,8.09,3.63l4.21,1.55A23.82,23.82,0,0,1,242.86,185.11Z" style="fill:#263238"></path><path d="M171.49,119.25c-7.54,12.7-19.18,35.86-15,41.79,4,5.77,33.4,14.54,39.7,14.4,2.68-.06,3.36-23.76.49-23.76-2.5,0-19.8-3.05-20.78-4.08-.61-.65,2.47-15.2,4.66-27.44C182.8,107.46,175,113.27,171.49,119.25Z" style="fill:#d3766a"></path><path d="M196.3,151.74a86.1,86.1,0,0,0,8.83-2.42A27,27,0,0,1,233,159.1c3.55,4.53,1.92,9-2.6,5-3.19-2.85-5.15-5.1-6.45-5.73,0,0,1.1,6.44-1.57,9.13a71.37,71.37,0,0,1-7.5,6.51,14.59,14.59,0,0,1-1.34-1.3s-5.48,4.64-17.34,2.78Z" style="fill:#d3766a"></path><path d="M235,162.94a11.25,11.25,0,0,0-3.08-5.06s-.15.1-.11.14a11.68,11.68,0,0,1,2.67,4.67c.21.8.21,2.05-.76,2.37a3,3,0,0,1-2.29-.7,32.41,32.41,0,0,1-3.86-3.27,23.79,23.79,0,0,0-3.85-2.92.08.08,0,0,0-.09.14,31.13,31.13,0,0,1,4.74,4.15c1.24,1.22,2.61,2.78,4.39,3.19S235.38,164.44,235,162.94Z" style="fill:#263238"></path><path d="M210.24,148.63c2.55,1.16,7.91,3.69,11.58,7.29,4.07,4,10.83,12.81,7.85,15.78-2.19,2.18-5.07-.95-5.07-.95s2,4.22-.38,5.76c-2.19,1.4-4.27-1.15-4.27-1.15s.6,3.45-1.77,3.92c-3,.59-3.35-5.32-7.74-6.42C209.55,172.63,210.24,148.63,210.24,148.63Z" style="fill:#d3766a"></path><path d="M216.88,159.52a22.86,22.86,0,0,1,7.76,11.11c0,.12,0,.2-.09.1a56.19,56.19,0,0,0-7.71-11.17A0,0,0,0,1,216.88,159.52Z" style="fill:#263238"></path><path d="M213,163.75A25.58,25.58,0,0,1,220,175.3c0,.12,0,.2-.09.1a60.11,60.11,0,0,0-7-11.62S212.93,163.73,213,163.75Z" style="fill:#263238"></path><path d="M224.47,170.33s-.09,0-.07,0c1.06,2.41.92,4.68.33,5.46a2.38,2.38,0,0,1-2.51.95,4.17,4.17,0,0,1-2.28-1.68c-.05-.06-.15,0-.11.06.67,1,2,2.72,3.92,2C225.33,176.5,226.64,174.14,224.47,170.33Z" style="fill:#263238"></path><path d="M230.58,168.78c-.54-4-5.6-9.49-6.68-10.46-.07-.07-.3-.08-.22,0,.69.58,5,5.93,6,9,.46,1.39.74,3.46-.59,4.5-1.64,1.28-3.55-.49-4.64-1.62a.07.07,0,0,0-.11.1c1,1.31,2.5,2.95,4.37,2.37C230.27,172.13,230.78,170.23,230.58,168.78Z" style="fill:#263238"></path><path d="M233,159a18.61,18.61,0,0,0-1.64-2.11,27.57,27.57,0,0,0-2-1.9,28,28,0,0,0-4.34-3.08,27.3,27.3,0,0,0-10.2-3.37,27.69,27.69,0,0,0-3-.16c-3,0-6.66.23-15.16,3.14a.1.1,0,1,0,.06.2c1.66-.52,7.87-2,9.69-2.23a34,34,0,0,1,12.79.62,29.57,29.57,0,0,1,9.29,4.89,33.28,33.28,0,0,1,4.32,4.16C232.83,159.23,233,159.09,233,159Z" style="fill:#263238"></path><path d="M194.72,151l-9,26.27s-31.92-10.05-32.4-17.64,9.52-29.89,17.67-41.25,11.79-8.72,9.84,4.16c-2.27,15-3.72,24.86-3.64,25.39Z" style="fill:#ebebeb"></path><path d="M191.62,150.48l-9.31,25.68-.95-.33,9.26-25.53Z" style="fill:#2E3A3A"></path><path d="M188.79,150l-9.16,25.26-1.89-.69,9-24.94Z" style="fill:#2E3A3A"></path><path d="M194.46,151.8l.21-.78,0,.07-12.76-2c-2.12-.35-4.25-.64-6.38-.94s-4.27-.55-6.42-.77a56,56,0,0,1,6.48.21c2.15.17,4.29.48,6.43.77s4.26.73,6.38,1.15,4.21.92,6.3,1.5l.07,0,0,.05Z" style="fill:#263238"></path><path d="M177,148.1c.11-1.95.3-3.88.5-5.82s.46-3.87.72-5.8.56-3.85.9-5.77.67-3.83,1.18-5.72l-.29,2.9-.32,2.91c-.21,1.93-.47,3.86-.73,5.79s-.55,3.85-.89,5.77S177.45,146.19,177,148.1Z" style="fill:#263238"></path><path d="M179.65,129.31a3.53,3.53,0,0,0,.38-.75c.1-.26.21-.52.29-.79.21-.53.36-1.07.6-1.6a6.8,6.8,0,0,1-.36,1.68A3.23,3.23,0,0,1,179.65,129.31Z" style="fill:#263238"></path><path d="M153.35,158.39a40.77,40.77,0,0,1,1.91-9.26,84.5,84.5,0,0,1,3.34-8.87c1.28-2.9,2.68-5.72,4.17-8.51l2.34-4.11c.84-1.34,1.65-2.69,2.51-4-.71,1.41-1.46,2.8-2.19,4.19L163.28,132c-1.37,2.83-2.78,5.64-4,8.54s-2.45,5.78-3.48,8.75c-.53,1.48-1,3-1.42,4.49A33.9,33.9,0,0,0,153.35,158.39Z" style="fill:#263238"></path><path d="M165.61,127.51a3.21,3.21,0,0,1,.13-1.71,6.29,6.29,0,0,1,.71-1.56c-.13.56-.32,1.09-.47,1.63-.09.27-.16.54-.23.81A4,4,0,0,0,165.61,127.51Z" style="fill:#263238"></path><path d="M196.15,175.44a39,39,0,0,0,8,0,27.14,27.14,0,0,0,3.91-.7,19,19,0,0,0,3.66-1.45l.2-.09.16.09a7.74,7.74,0,0,1,2.53,2.56,6.21,6.21,0,0,1,.42.81,7.21,7.21,0,0,0,.36.74,3.92,3.92,0,0,0,1,1.25,2,2,0,0,0,1.44.42,2.41,2.41,0,0,0,1.45-.58,2.59,2.59,0,0,0,.66-1.47,6,6,0,0,0,0-1.7,5.53,5.53,0,0,1,.17,1.72,2.82,2.82,0,0,1-.6,1.68,2,2,0,0,1-.77.55,3.58,3.58,0,0,1-.88.25,2.5,2.5,0,0,1-1.81-.43,4.34,4.34,0,0,1-1.22-1.38,8.52,8.52,0,0,1-.4-.8c-.11-.24-.24-.48-.38-.72a7.29,7.29,0,0,0-2.33-2.26h.36a19.32,19.32,0,0,1-7.88,2.11,34.36,34.36,0,0,1-4.06,0A26.82,26.82,0,0,1,196.15,175.44Z" style="fill:#263238"></path><path d="M195.93,132.15c-1.9,0-9.14-1.15-9.74-1.59-.77-.57-7.23-19-7.27-19.15a.85.85,0,0,1,.26-.81c.62-.66,2.58-1.37,5-.88,4.32.86,6.49,5.68,6.58,5.88,6.22,15.65,6.07,16,5.94,16.22l-.1.21-.3.09A1.64,1.64,0,0,1,195.93,132.15Zm-9.1-2.37a64,64,0,0,0,8.81,1.38c-.65-2.06-3.78-10.08-5.8-15.17,0,0-2.05-4.53-5.85-5.29h0a5.2,5.2,0,0,0-4.07.57C180.49,113.05,186.09,128.48,186.83,129.78Z" style="fill:#2E3A3A"></path><path d="M180.79,111.29c.18.84,4.1,6.35,7.94,6.23,1.25,0,1.33-6.88,1.33-6.88l.12-.5,1.68-7-8.22-5.46-1.18-.72s-.34,2-.73,4.4c0,.11,0,.22-.06.35s0,.26-.07.39l-.18,1.11c0,.28-.09.56-.12.86l-.12.88A45.63,45.63,0,0,0,180.79,111.29Z" style="fill:#d3766a"></path><path d="M181.73,101.32a14.57,14.57,0,0,0,8.45,8.82l1.68-7-8.22-5.46-1.18-.72S182.12,98.88,181.73,101.32Z" style="fill:#263238"></path><path d="M180.79,111.29c.73,1.27,6.31,17.09,6.62,17.28s6.75,1.37,6.77,1-5.39-15.18-5.39-15.18Z" style="fill:#d3766a"></path><path d="M182.67,98.87c-2.28-.68-7.41-.31-9.5,3-4.47,7,4.55,15.24,5.6,24.93,1.28,11.71,6.61,17.65,11.87,14.4,5.89-3.64,5.64-13.31-5.22-24.08-6.79-6.73-7.59-10.59-6.18-12.88,1-1.68,4.36-2,4.36-2Z" style="fill:#263238"></path><path d="M181.78,113.28c1,1.14,2.12,2.17,3.2,3.23s2.18,2.1,3.24,3.18a43.35,43.35,0,0,1,3,3.36,22.38,22.38,0,0,1,2.48,3.73A11.71,11.71,0,0,1,195,131a13,13,0,0,1-.42,4.46,9.89,9.89,0,0,1-2.13,4,8.89,8.89,0,0,1-1.72,1.52,7.54,7.54,0,0,1-1,.58,4.26,4.26,0,0,1-1.08.4,5.8,5.8,0,0,0,2.17-.82,9,9,0,0,0,1.87-1.44,9.88,9.88,0,0,0,1.45-1.89,10.59,10.59,0,0,0,.95-2.18,12.14,12.14,0,0,0,.5-2.32l.05-.58,0-.59a9.46,9.46,0,0,0,0-1.19,12,12,0,0,0-1.37-4.48,28.59,28.59,0,0,0-5.72-7.15c-1.1-1.06-2.24-2.06-3.4-3S182.89,114.31,181.78,113.28Z" style="fill:#263238"></path><path d="M181.09,99.11a12.78,12.78,0,0,0-3.14-.18,6.88,6.88,0,0,0-5.13,3,7.64,7.64,0,0,0-.71,1.36,6.56,6.56,0,0,0-.47,1.44,8.81,8.81,0,0,0,0,3,15.69,15.69,0,0,0,.88,3c.76,1.94,1.76,3.8,2.69,5.71a42,42,0,0,1,2.45,5.91,41.66,41.66,0,0,1,1.25,6.27,47.55,47.55,0,0,0,1.08,6.22,12.62,12.62,0,0,0,1.13,2.92l.39.68.47.63.24.32.27.28.55.57a10.71,10.71,0,0,1-3.44-5.28,48.14,48.14,0,0,1-1.33-6.24,46.5,46.5,0,0,0-1.37-6.13,42.32,42.32,0,0,0-2.44-5.79c-.9-1.9-1.91-3.77-2.67-5.79a15.76,15.76,0,0,1-.87-3.13,9.06,9.06,0,0,1,.11-3.28,7.7,7.7,0,0,1,.57-1.54,8.67,8.67,0,0,1,.81-1.42,7.3,7.3,0,0,1,2.43-2.16,7.37,7.37,0,0,1,3.11-.81A11.18,11.18,0,0,1,181.09,99.11Z" style="fill:#263238"></path><path d="M184.39,97.61a2.14,2.14,0,0,0-2.08.54c-.25.45.4,4.4,1.24,4.93s2-.85,2-.85Z" style="fill:#2E3A3A"></path><path d="M201,92.33c1.1,12.66-6.36,14.75-9.09,15-2.48.21-10.95.62-13.35-11.87s3.15-17,8.79-17.77S199.94,79.67,201,92.33Z" style="fill:#d3766a"></path><path d="M197,90.19a7.55,7.55,0,0,1-.85-.13,1.45,1.45,0,0,1-.84-.3.45.45,0,0,1,0-.55,1.1,1.1,0,0,1,1.07-.31,1.65,1.65,0,0,1,1,.52A.47.47,0,0,1,197,90.19Z" style="fill:#263238"></path><path d="M188,90.67c.29,0,.55-.15.84-.22a1.41,1.41,0,0,0,.8-.39.44.44,0,0,0,0-.54,1.09,1.09,0,0,0-1.09-.2,1.66,1.66,0,0,0-1,.62A.48.48,0,0,0,188,90.67Z" style="fill:#263238"></path><path d="M190.09,93.62s-.06,0-.06.08c.09.84.05,1.82-.69,2.16a0,0,0,0,0,0,0C190.27,95.71,190.31,94.4,190.09,93.62Z" style="fill:#263238"></path><path d="M189.27,92.79c-1.37,0-1.27,2.74,0,2.74S190.41,92.79,189.27,92.79Z" style="fill:#263238"></path><path d="M188.74,93c-.24.16-.46.44-.75.48s-.59-.23-.82-.5c0,0,0,0,0,0,0,.53.23,1.06.8,1.11s.87-.42,1-1C188.92,93,188.83,92.89,188.74,93Z" style="fill:#263238"></path><path d="M195.34,93.21s.06,0,.06.07c0,.85.14,1.82.91,2.08,0,0,0,0,0,0C195.37,95.3,195.2,94,195.34,93.21Z" style="fill:#263238"></path><path d="M196.07,92.3c1.36-.14,1.54,2.59.28,2.72S194.93,92.42,196.07,92.3Z" style="fill:#263238"></path><path d="M196.65,92.44c.23.13.46.38.71.38s.51-.31.68-.6c0,0,0,0,0,0,0,.52-.08,1.08-.58,1.21s-.82-.3-1-.81C196.49,92.54,196.56,92.39,196.65,92.44Z" style="fill:#263238"></path><path d="M191.11,100.46c.2.2.4.47.71.5a2.28,2.28,0,0,0,.92-.2s0,0,0,0a1.15,1.15,0,0,1-1.08.45.9.9,0,0,1-.66-.76S191.08,100.43,191.11,100.46Z" style="fill:#263238"></path><path d="M194.51,97.23a17.65,17.65,0,0,1,.26,1.85c0,.06-.14.09-.34.11,0,0,0,0,0,0a2.83,2.83,0,0,1-2.81-.93c0-.05,0-.12.09-.08a4.26,4.26,0,0,0,2.62.62c0-.17-.47-2.14-.37-2.15a5.2,5.2,0,0,1,1.37.24c-.42-2.63-1.25-5.18-1.62-7.8a.09.09,0,0,1,.16,0,42.7,42.7,0,0,1,2.09,8.33C196,97.71,194.76,97.32,194.51,97.23Z" style="fill:#263238"></path><path d="M194.35,99.08a3.52,3.52,0,0,1-1.36,1.19,1.58,1.58,0,0,1-1,.12c-.71-.15-.77-.79-.67-1.35a3.77,3.77,0,0,1,.27-.86A4.58,4.58,0,0,0,194.35,99.08Z" style="fill:#263238"></path><path d="M193,100.27a1.58,1.58,0,0,1-1,.12c-.71-.15-.77-.79-.67-1.35A1.65,1.65,0,0,1,193,100.27Z" style="fill:#ff9bbc"></path><path d="M179.53,96.68c2.71-.23,2.38-6.43,2.38-6.43s1.54-.73,3.21-4a10.45,10.45,0,0,1-2.78,4c-.29.21,8.93-1.4,9.29-8.58a14.42,14.42,0,0,0,9.19,7.6c.21.05-1.08-6.36-2.56-7.76a13.79,13.79,0,0,0-2.82-2.1,13.33,13.33,0,0,0-9.93-1.81c-5.64,1.24-8.22,7.37-8.47,9.87C176.54,92.41,178.25,96.78,179.53,96.68Z" style="fill:#263238"></path><path d="M182.64,90.43c5.05-.59,8.85-4.11,8.9-9.32,0-.13.2-.14.23,0,1.06,5.2-4.34,9.45-9.17,9.42C182.49,90.52,182.53,90.44,182.64,90.43Z" style="fill:#263238"></path><path d="M191.54,81.51s0,0,.05,0c1.5,2.57,3.15,7.2,6.92,6.73a.08.08,0,0,1,0,.15C195,89.14,192.11,84.49,191.54,81.51Z" style="fill:#263238"></path><path d="M179,100.11a3.08,3.08,0,0,0,.59.16,2.44,2.44,0,0,0,.6,0,1.75,1.75,0,0,0,.73-.24,1.8,1.8,0,0,0,.48-.37,2.4,2.4,0,0,0,.49-.71l-.71-3.4s-2.77-4-4.57-3S176.86,99.33,179,100.11Z" style="fill:#d3766a"></path><path d="M177.22,94.22s0,0,0,0a5.43,5.43,0,0,1,2.81,3.4,1.19,1.19,0,0,0-1.77-.32,0,0,0,0,0,0,.08,1.31,1.31,0,0,1,1.45.46,6.67,6.67,0,0,1,.7,1.18c.07.13.31.06.26-.09l0,0C180.71,97.05,179.24,94.41,177.22,94.22Z" style="fill:#263238"></path><path d="M175.89,89l1.58-9.15s7.27-3.35,9-3.79,8.68-.48,8.68-.48l4.46,7.12Z" style="fill:#2E3A3A"></path><path d="M206.51,86.24s-15.89.5-34.58,9.68l4-6.89s11.91-7,23.71-6.3Z" style="fill:#2E3A3A"></path><path d="M206.51,86.24s-15.89.5-34.58,9.68l4-6.89s11.91-7,23.71-6.3Z" style="opacity:0.1"></path></g></svg>